SplineFontDB: 3.0
FontName: CrimsonText-BoldItalic
FullName: Crimson Text Bold Italic
FamilyName: Crimson Text
Weight: Bold
Copyright: Copyright (c) 2010, Sebastian Kosch (sebastian@aldusleaf.org),\nwith Reserved Font Name "Crimson Text".\nThis Font Software is licensed under the SIL Open Font License, Version 1.1.\nThis license is available with a FAQ at: http://scripts.sil.org/OFL
UComments: "2010-5-14: Created." 
Version: 0.12
ItalicAngle: -11
UnderlinePosition: -102
UnderlineWidth: 51
Ascent: 717
Descent: 307
LayerCount: 2
Layer: 0 0 "Back"  1
Layer: 1 0 "Fore"  0
NeedsXUIDChange: 1
XUID: [1021 85 519305545 5082149]
FSType: 0
OS2Version: 0
OS2_WeightWidthSlopeOnly: 0
OS2_UseTypoMetrics: 1
CreationTime: 1273891947
ModificationTime: 1290561650
PfmFamily: 17
TTFWeight: 700
TTFWidth: 5
LineGap: 92
VLineGap: 0
OS2TypoAscent: 0
OS2TypoAOffset: 1
OS2TypoDescent: 0
OS2TypoDOffset: 1
OS2TypoLinegap: 92
OS2WinAscent: 0
OS2WinAOffset: 1
OS2WinDescent: 0
OS2WinDOffset: 1
HheadAscent: 0
HheadAOffset: 1
HheadDescent: 0
HheadDOffset: 1
OS2Vendor: 'PfEd'
Lookup: 4 0 1 "'liga' Standard Ligatures in Latin lookup 0"  {"'liga' Standard Ligatures in Latin lookup 0-1"  } ['liga' ('DFLT' <'dflt' > 'latn' <'dflt' > ) ]
MarkAttachClasses: 1
DEI: 91125
LangName: 1033 "" "" "Bold Italic" 
Encoding: UnicodeBmp
UnicodeInterp: none
NameList: Adobe Glyph List
DisplaySize: -24
AntiAlias: 1
FitToEm: 1
WidthSeparation: 100
WinInfo: 100 10 10
Grid
0 1229 m 0
 0 -819 l 0
502 642 m 25
 0 642 l 25
 502 642 l 25
789 -227 m 25
 1195 -227 l 25
0 662 m 25
 560 662 l 25
0 670 m 25
 560 670 l 25
555 -218 m 25
 0 -218 l 25
 555 -218 l 25
560 695 m 25
 0 695 l 25
 560 695 l 25
560 443 m 25
 -6 443 l 25
 560 443 l 25
560 449 m 25
 -6 449 l 25
 560 449 l 25
EndSplineSet
BeginChars: 66098 996

StartChar: exclam
Encoding: 33 33 1
Width: 230
Flags: W
HStem: -11 150<31.4089 106.993>
VStem: 2 228
LayerCount: 2
Fore
SplineSet
2 66 m 0
 10 108 48 139 83 139 c 0
 122 139 146 107 138 66 c 0
 130 25 94 -11 57 -11 c 0
 23 -11 -7 21 2 66 c 0
185 642 m 0
 214 642 238 617 230 574 c 0
 225 546 151 309 122 221 c 0
 115 201 99 190 85 190 c 0
 80 190 79 200 79 212 c 0
 82 279 101 524 111 575 c 0
 119 617 152 642 185 642 c 0
EndSplineSet
Validated: 33
EndChar

StartChar: quotedbl
Encoding: 34 34 2
Width: 340
Flags: W
HStem: 434 264<98 99.8269 252 253.827>
VStem: 62 101<565.027 671.25> 216 101<565.027 671.25>
LayerCount: 2
Fore
SplineSet
289 698 m 27
 317 698 328 692 317 633 c 0
 306 577 271 516 252 449 c 0
 249 439 238 434 231 434 c 0
 224 434 215 439 216 447 c 0
 225 537 216 590 216 636 c 1
 219 654 252 698 289 698 c 27
135 698 m 31
 163 698 174 692 163 633 c 4
 152 577 117 516 98 449 c 4
 95 439 84 434 77 434 c 4
 70 434 61 439 62 447 c 4
 71 537 62 590 62 636 c 5
 65 654 98 698 135 698 c 31
EndSplineSet
Validated: 33
EndChar

StartChar: numbersign
Encoding: 35 35 3
Width: 442
VWidth: 0
Flags: W
HStem: 170 67<17.3047 86 168 226 308 376.695> 311 67<65.3047 134 216 274 356 424.695>
LayerCount: 2
Fore
SplineSet
356 378 m 1
 356 378 398 378 427 378 c 0
 432 378 434 377 434 373 c 3
 434 357 420 311 409 311 c 2
 337 311 l 1
 308 237 l 1
 379 237 l 2
 384 237 386 235 386 231 c 3
 386 215 372 170 361 170 c 2
 289 170 l 1
 238 24 l 2
 237 21 228 16 200 16 c 0
 189 16 173 18 173 21 c 0
 173 21 174 23 174 24 c 0
 175 28 226 170 226 170 c 1
 149 170 l 1
 98 24 l 2
 97 21 88 16 60 16 c 0
 49 16 33 18 33 21 c 0
 33 21 34 23 34 24 c 0
 35 28 86 170 86 170 c 1
 15 170 l 2
 10 170 8 172 8 176 c 3
 8 192 22 237 33 237 c 2
 105 237 l 1
 134 311 l 1
 63 311 l 2
 58 311 56 313 56 317 c 3
 56 333 70 378 81 378 c 2
 153 378 l 1
 204 524 l 2
 205 527 219 532 247 532 c 0
 258 532 269 529 269 526 c 0
 269 526 268 525 268 524 c 0
 267 520 216 378 216 378 c 1
 293 378 l 1
 344 524 l 2
 345 527 359 532 387 532 c 0
 398 532 409 529 409 526 c 0
 409 526 408 525 408 524 c 0
 407 520 356 378 356 378 c 1
274 311 m 1
 197 311 l 1
 168 237 l 1
 245 237 l 1
 274 311 l 1
EndSplineSet
Validated: 1
EndChar

StartChar: dollar
Encoding: 36 36 4
Width: 452
Flags: W
HStem: -9 55<166 225.305> 589 54<233.847 309>
VStem: 14 45<98.2324 184.988> 72 129<402 517.914> 270 132<122.472 247.5> 382 55<450.048 547.945>
LayerCount: 2
Fore
SplineSet
233 231 m 1xf8
 166 46 l 1
 170 46 l 2
 233 46 270 117 270 161 c 0
 270 185 258 203 243 220 c 0
 240 224 237 227 233 231 c 1xf8
146 -9 m 1
 124 -69 l 2
 123 -72 118 -74 110 -74 c 0
 90 -74 80 -63 74 -58 c 1
 94 -3 l 1
 62 2 37 8 6 16 c 1
 6 16 6 32 6 42 c 3
 6 85 12 157 14 175 c 0
 15 185 28 185 38 185 c 0
 46 185 53 186 59 181 c 1
 59 140 77 84 117 59 c 1
 191 266 l 1
 176 280 159 292 143 306 c 0
 106 337 72 372 72 432 c 0
 72 559 205 643 300 643 c 0
 310 643 319 642 328 641 c 1
 347 694 l 2
 349 700 356 700 360 700 c 3
 371 700 391 692 400 682 c 1
 380 631 l 1
 397 626 415 622 437 618 c 1
 433 556 423 446 418 446 c 0
 410 446 395 447 389 450 c 0
 386 451 382 454 382 462 c 0xf4
 382 481 376 526 354 557 c 1
 287 374 l 1
 307 358 328 344 346 330 c 0
 378 304 402 276 402 219 c 0
 402 157 378 106 343 68 c 0
 296 18 228 -9 168 -9 c 2
 146 -9 l 1
245 411 m 1
 309 587 l 1
 303 588 297 589 290 589 c 0
 218 589 201 516 201 492 c 0
 201 472 208 455 217 442 c 0
 226 428 238 418 245 411 c 1
EndSplineSet
Validated: 1
EndChar

StartChar: percent
Encoding: 37 37 5
Width: 627
Flags: W
HStem: -4 21G<16 33.5> 1 37<368.523 437.547> 268 38<396.392 466.117> 337 38<157.523 226.547> 605 37<186.001 255.117>
LayerCount: 2
Fore
SplineSet
220 605 m 24x38
 181 605 161 552 153 510 c 24
 142 451 136 375 191 375 c 24
 229 375 251 425 259 466 c 24
 271 527 277 605 220 605 c 24x38
236 642 m 0
 318 642 369 573 353 489 c 0
 337 405 259 337 177 337 c 0
 95 337 44 405 60 489 c 0
 76 573 154 642 236 642 c 0
431 268 m 24
 392 268 372 216 364 174 c 24
 353 115 347 38 402 38 c 24x78
 440 38 462 89 470 130 c 24
 482 191 488 268 431 268 c 24
447 306 m 0
 529 306 580 237 564 153 c 0
 548 69 470 1 388 1 c 0
 306 1 255 69 271 153 c 0
 287 237 365 306 447 306 c 0
629 629 m 5
 61 7 l 6
 55 1 39 -4 28 -4 c 4xb8
 4 -4 -6 5 -6 10 c 5
 563 632 l 6
 569 638 577 646 583 646 c 4
 604 646 621 637 629 629 c 5
EndSplineSet
Validated: 33
EndChar

StartChar: ampersand
Encoding: 38 38 6
Width: 649
VWidth: 0
Flags: W
HStem: -14 54<205.984 369.178> 157 100<349.798 412.256> 320 87<199.653 298.218> 329 57<364.806 485.122> 342 42<479.931 584.142> 452 94<485.169 569.026> 584 51<212.795 324.574>
VStem: 17 120<112.343 278.384> 100 70<411.667 538.213> 299 50<228 317.121> 343 66<486.181 566.131> 468 102<145.343 301.972> 603 43<403.289 471.073>
LayerCount: 2
Back
SplineSet
355 635 m 7xe7f8
 273 635 173 572 173 479 c 31
 173 438 195 399 211 381 c 5
 154 359 85 283 85 196 c 31
 85 69 206 -14 333 -14 c 31
 480 -14 624 88 624 224 c 7
 624 277 597 323 569 348 c 13
 579 347 585 346 595 346 c 7
 663 346 707 386 707 444 c 7
 707 504 655 538 582 538 c 5
 565 525 556 515 556 495 c 31
 556 478 568 462 585 462 c 31
 607 462 616 480 638 480 c 31
 657 480 670 463 670 444 c 31
 670 402 624 384 582 384 c 31xcff8
 552 384 536 386 506 386 c 31
 431 386 362 333 362 258 c 7
 362 202 413 170 439 170 c 5
 458 175 472 195 472 217 c 7
 472 238 452 246 435 250 c 4
 418 254 403 263 403 280 c 31
 403 315 438 335 473 335 c 31xd7f8
 523 335 556 287 556 237 c 31
 556 121 452 29 345 29 c 4
 245 29 171 107 171 204 c 31
 171 265 205 309 243 341 c 5
 257 329 279 320 305 320 c 31
 335 320 370 333 370 360 c 7
 370 389 328 402 295 402 c 31
 279 402 270 399 256 395 c 5
 240 409 223 441 223 474 c 31
 223 536 271 590 333 590 c 31
 376 590 411 557 411 514 c 7
 411 485 401 477 401 469 c 7
 401 465 405 462 410 462 c 7
 430 462 470 502 470 543 c 7
 470 601 413 635 355 635 c 7xe7f8
EndSplineSet
Fore
SplineSet
294 635 m 3xce98
 352 635 409 601 409 543 c 3xceb8
 409 502 369 460 349 460 c 3xce58
 344 460 335 462 335 469 c 3
 335 477 343 485 343 514 c 3
 343 557 311 584 272 584 c 27
 211 584 170 527 170 466 c 27
 170 438 183 414 199 400 c 1
 213 404 223 407 239 407 c 27
 272 407 309 389 309 360 c 3
 309 333 274 320 244 320 c 27xe6b8
 218 320 196 329 182 341 c 1
 144 309 137 260 137 204 c 27
 137 118 184 40 284 40 c 0
 391 40 468 132 468 237 c 27
 468 279 453 329 411 329 c 27
 380 329 349 311 349 280 c 27
 349 266 360 261 377 257 c 0
 394 253 421 238 421 217 c 3
 421 195 418 167 378 157 c 1
 352 157 299 200 299 256 c 3
 299 331 369 386 445 386 c 27xd758
 475 386 491 384 521 384 c 27
 561 384 603 404 603 444 c 27
 603 462 588 474 570 474 c 27
 549 474 542 452 521 452 c 27
 496 452 479 474 479 499 c 27
 479 519 489 537 501 546 c 1
 601 546 646 510 646 444 c 3
 646 386 607 342 539 342 c 3
 529 342 523 343 513 344 c 17
 541 319 570 277 570 224 c 3
 570 88 421 -14 272 -14 c 27
 143 -14 17 67 17 196 c 27xcf58
 17 285 93 359 150 381 c 1
 134 399 100 424 100 479 c 3
 100 586 212 635 294 635 c 3xce98
EndSplineSet
Validated: 1
EndChar

StartChar: quotesingle
Encoding: 39 39 7
Width: 186
Flags: W
HStem: 434 264<98 99.8269>
VStem: 62 101<565.027 671.25>
LayerCount: 2
Back
SplineSet
106 698 m 2
 121 698 l 2
 137 698 151 692 151 633 c 0
 151 577 123 516 117 449 c 0
 116 439 108 434 101 434 c 0
 94 434 87 439 86 447 c 0
 77 537 52 594 52 635 c 0
 52 653 80 698 106 698 c 2
EndSplineSet
Fore
SplineSet
135 698 m 31
 163 698 174 692 163 633 c 4
 152 577 117 516 98 449 c 4
 95 439 84 434 77 434 c 4
 70 434 61 439 62 447 c 4
 71 537 62 590 62 636 c 5
 65 654 98 698 135 698 c 31
EndSplineSet
Validated: 33
EndChar

StartChar: parenleft
Encoding: 40 40 8
Width: 353
Flags: W
VStem: 29 110<53.8577 328.785>
LayerCount: 2
Fore
SplineSet
29 200 m 0
 29 517 309 748 356 748 c 0
 361 748 363 737 363 729 c 0
 363 726 362 723 362 721 c 0
 362 719 361 719 360 718 c 0
 286 670 139 418 139 141 c 0
 139 0 177 -92 199 -106 c 0
 201 -107 200 -109 200 -111 c 0
 199 -118 191 -137 184 -137 c 0
 153 -137 29 -8 29 200 c 0
EndSplineSet
Validated: 1
EndChar

StartChar: parenright
Encoding: 41 41 9
Width: 344
Flags: W
HStem: -137 31<-13.9268 5.39526>
VStem: 209 110<281.766 556.068>
LayerCount: 2
Fore
SplineSet
319 408 m 0
 319 103 46 -137 -7 -137 c 0
 -13 -137 -14 -126 -14 -118 c 0
 -14 -116 -14 -113 -14 -112 c 0
 -14 -110 -13 -107 -11 -106 c 0
 37 -83 209 164 209 471 c 0
 209 596 180 691 149 718 c 0
 148 719 148 719 148 721 c 0
 149 728 158 748 165 748 c 0
 204 748 319 609 319 408 c 0
EndSplineSet
Validated: 1
EndChar

StartChar: asterisk
Encoding: 42 42 10
Width: 376
Flags: W
HStem: 428 80<33.1873 122.375> 462 54<212.475 236.088> 472 28<139.545 183.749> 645 20G<166.5 196.5>
VStem: 116 76<307.43 384.921> 184 53<465 469 500.002 513.969>
LayerCount: 2
Fore
SplineSet
221 516 m 0x54
 246 516 284 635 341 635 c 0
 355 635 368 626 368 602 c 0
 368 540 237 524 237 492 c 0x54
 237 465 358 485 358 424 c 0
 358 400 333 378 313 378 c 0
 270 378 243 462 218 462 c 0
 195 462 210 396 192 339 c 0
 183 309 162 301 148 301 c 0
 132 301 116 317 116 334 c 0x58
 116 374 184 438 184 464 c 0
 184 469 183 472 176 472 c 0x34
 155 472 94 428 56 428 c 0
 39 428 24 442 24 458 c 0
 24 471 32 508 86 508 c 0x94
 115 508 146 500 166 500 c 0x34
 188 500 188 503 188 510 c 0
 188 534 135 573 135 616 c 0
 135 641 154 665 179 665 c 0
 214 665 212 624 212 584 c 0
 212 578 207 516 221 516 c 0x54
EndSplineSet
Validated: 33
EndChar

StartChar: plus
Encoding: 43 43 11
Width: 485
Flags: W
HStem: 214 72<18.1 187.001 285.734 452.9>
LayerCount: 2
Back
SplineSet
211 19 m 25
 306 521 l 25
 294.499 39.166 l 25
 383 504 l 29
EndSplineSet
Fore
SplineSet
236 470 m 4
 239 484 304 488 308 488 c 4
 317 488 319 483 318 479 c 6
 318 479 295 353 283 291 c 4
 282 288 283 286 286 286 c 12
 353 286 459 286 459 286 c 6
 462 286 463 274 463 268 c 7
 463 254 451 228 437 214 c 5
 437 214 336 214 271 214 c 20
 268 214 267 212 267 210 c 4
 254 138 232 30 232 30 c 6
 230 19 184 12 166 12 c 4
 155 12 150 17 151 21 c 6
 151 21 176 153 187 209 c 4
 187 211 188 214 183 214 c 12
 116 214 12 214 12 214 c 6
 9 214 8 226 8 232 c 7
 8 246 20 272 34 286 c 5
 87 286 135 286 199 286 c 20
 202 286 203 288 203 290 c 4
 215 350 222 400 236 470 c 4
EndSplineSet
Validated: 1
EndChar

StartChar: comma
Encoding: 44 44 12
Width: 243
Flags: W
HStem: -168 302
VStem: 68 127<-6.84958 108.964> 84 111<-51 108.079>
LayerCount: 2
Fore
SplineSet
2 -134 m 0xc0
 2 -127 84 -93 84 -9 c 0xa0
 84 12 68 34 68 61 c 0
 68 105 110 134 159 134 c 0
 166 134 185 134 194 126 c 1
 195 119 195 107 195 95 c 0
 195 61 189 20 166 -20 c 0
 125 -91 93 -120 18 -168 c 1
 9 -161 2 -144 2 -134 c 0xc0
EndSplineSet
Validated: 1
EndChar

StartChar: hyphen
Encoding: 45 45 13
Width: 330
Flags: W
VStem: 29 257<206.461 266.565>
LayerCount: 2
Fore
SplineSet
53 267 m 2
 280 279 l 2
 285 279 286 272 286 267 c 0
 286 254 270 205 260 204 c 10
 34 193 l 2
 31 193 29 200 29 208 c 0
 29 219 42 266 53 267 c 2
EndSplineSet
Validated: 1
EndChar

StartChar: period
Encoding: 46 46 14
Width: 203
Flags: W
HStem: -11 150<49.25 124.339>
VStem: 19 137<21.015 109.541>
LayerCount: 2
Fore
SplineSet
156 66 m 0
 148 26 113 -11 75 -11 c 27
 36 -11 11 26 19 66 c 0
 27 106 64 139 102 139 c 27
 139 139 164 106 156 66 c 0
EndSplineSet
Validated: 33
EndChar

StartChar: slash
Encoding: 47 47 15
Width: 486
Flags: W
LayerCount: 2
Back
SplineSet
380 755 m 1
 84 -12 l 2
 82 -19 67 -35 32 -35 c 0
 17 -35 14 -28 14 -28 c 1
 310 739 l 1
 317 754 329 761 359 761 c 0
 373 761 376 757 380 755 c 1
EndSplineSet
Fore
SplineSet
496 755 m 1
 72 -12 l 2
 69 -19 37 -35 4 -35 c 0
 -10 -35 -11 -28 -11 -28 c 1
 413 739 l 2
 420 752 435 761 463 761 c 0
 476 761 493 757 496 755 c 1
EndSplineSet
Validated: 1
EndChar

StartChar: zero
Encoding: 48 48 16
Width: 502
Flags: W
HStem: -3 52<175.513 247.048> 575 50<265.931 337.831>
LayerCount: 2
Fore
SplineSet
307 575 m 0
 252 575 199 469 168 312 c 0
 137 155 158 49 205 49 c 0
 262 49 307 160 338 317 c 0
 369 474 358 575 307 575 c 0
316 625 m 0
 428 625 501 485 467 311 c 0
 433 137 305 -3 193 -3 c 0
 81 -3 4 137 38 311 c 0
 72 485 204 625 316 625 c 0
EndSplineSet
Validated: 33
EndChar

StartChar: one
Encoding: 49 49 17
Width: 309
Flags: W
HStem: -4 34<-7.04615 51.3281 203.138 242.931> 4 26<0 118>
VStem: -7 314
LayerCount: 2
Fore
SplineSet
298 643 m 3xa0
 304 643 307 629 307 624 c 1
 307 624 293 595 280 530 c 2
 202 126 l 2
 197 98 195 85 195 66 c 0
 195 36 237 30 244 30 c 0x60
 245 30 245 29 245 27 c 0
 245 19 240 0 238 -4 c 1xa0
 201 -2 155 4 118 4 c 0x60
 81 4 31 -2 -7 -4 c 1
 -8 -3 -8 0 -8 3 c 0
 -8 13 -4 30 0 30 c 0
 11 30 56 43 62 56 c 0
 71 76 74 94 78 113 c 2
 144 452 l 2
 147 464 148 474 148 481 c 0
 148 499 141 502 135 502 c 0
 123 502 85 481 64 469 c 1
 57 473 54 487 55 493 c 0
 55 495 57 503 59 505 c 0
 176 577 285 643 298 643 c 3xa0
EndSplineSet
Validated: 1
EndChar

StartChar: two
Encoding: 50 50 18
Width: 452
Flags: W
HStem: 0 102<130.001 346.46> 559 83<232.505 343.5>
VStem: 302 135<415.562 545.468>
LayerCount: 2
Fore
SplineSet
245 559 m 4
 178 559 125 474 118 474 c 0
 109 474 104 489 104 499 c 0
 104 506 108 516 108 516 c 0
 135 552 232 642 305 642 c 0
 382 642 437 594 437 511 c 0
 437 352 256 216 132 113 c 0
 130 111 130 108 130 106 c 3
 130 104 131 102 133 102 c 2
 292 102 l 2
 350 102 364 151 377 174 c 0
 382 182 394 182 406 182 c 0
 410 182 417 179 420 174 c 1
 399 123 365 50 346 0 c 1
 203 1 l 1
 203 1 4 0 -3 0 c 1
 -6 5 -8 11 -8 19 c 0
 -8 23 -8 27 -7 33 c 1
 125 160 279 347 299 451 c 0
 301 462 302 473 302 483 c 0
 302 525 285 559 245 559 c 4
EndSplineSet
Validated: 1
EndChar

StartChar: three
Encoding: 51 51 19
Width: 430
Flags: W
HStem: -4 52<68.7561 202.224> 314 45<118.372 186.71> 572 70<186.937 331>
LayerCount: 2
Fore
SplineSet
310 642 m 0
 352 642 411 609 395 527 c 0
 381 456 341 423 287 378 c 1
 323 378 410 319 390 214 c 0
 363 73 217 -4 98 -4 c 4
 41 -4 11 14 -3 28 c 5
 -5 33 -6 47 -6 56 c 4
 -6 87 20 104 42 104 c 4
 82 104 96 48 142 48 c 4
 201 48 243 98 260 188 c 0
 275 263 249 319 187 319 c 0
 181 319 163 321 120 314 c 1
 117 319 117 332 119 340 c 0
 120 344 122 354 125 359 c 1
 214 374 264 422 281 501 c 0
 291 546 262 572 238 572 c 0
 170 572 121 524 112 524 c 0
 107 524 104 534 104 544 c 3
 104 551 105 558 107 560 c 0
 151 609 204 642 310 642 c 0
EndSplineSet
Validated: 33
EndChar

StartChar: four
Encoding: 52 52 20
Width: 464
Flags: W
HStem: -5 21G<251 286.5> 174 70<104.001 244.094 377.956 415.375>
LayerCount: 2
Fore
SplineSet
439 646 m 0
 445 646 455 642 453 634 c 2
 378 252 l 2
 377 247 380 244 385 244 c 2
 415 244 l 2
 421 244 423 239 423 229 c 0
 423 211 407 174 407 174 c 1
 369 174 l 2
 365 174 363 171 362 166 c 2
 330 4 l 1
 330 4 306 -5 267 -5 c 0
 235 -5 214 -1 216 8 c 2
 247 168 l 2
 247 173 242 173 239 173 c 2
 16 174 l 1
 12 179 9 186 9 198 c 0
 9 204 10 212 12 222 c 1
 410 630 l 2
 418 638 432 646 439 646 c 0
300 445 m 2
 301 448 301 452 298 452 c 3
 296 452 295 451 294 450 c 2
 106 256 l 2
 105 255 104 254 104 251 c 0
 104 248 106 244 109 244 c 2
 253 244 l 1
 256 245 262 247 264 253 c 2
 300 445 l 2
EndSplineSet
Validated: 33
EndChar

StartChar: five
Encoding: 53 53 21
Width: 445
Flags: W
HStem: -4 52<69.7561 201.577> 328 94<160.345 282.542> 535 103<194.344 412.131>
LayerCount: 2
Fore
SplineSet
402 535 m 1
 228 535 204 539 198 523 c 2
 159 412 l 1
 183 418 202 422 236 422 c 0
 327 422 418 340 398 235 c 0
 371 97 240 -4 99 -4 c 0
 42 -4 12 14 -2 28 c 1
 -4 33 -5 47 -5 56 c 0
 -5 87 21 104 43 104 c 0
 83 104 97 48 143 48 c 0
 213 48 251 127 262 183 c 0
 280 274 239 328 186 328 c 0
 127 328 99 314 90 314 c 0
 85 314 80 319 76 328 c 1
 78 331 178 638 189 638 c 0
 255 638 391 635 426 643 c 1
 429 637 430 627 427 609 c 0
 424 592 411 548 402 535 c 1
EndSplineSet
Validated: 33
EndChar

StartChar: six
Encoding: 54 54 22
Width: 467
VWidth: 0
Flags: W
HStem: -6 52<154.719 233.112>
VStem: 18 126<70.8621 269.88> 283 126<133.293 300.155>
LayerCount: 2
Fore
SplineSet
231 344 m 7
 231 355 258 367 287 367 c 4
 353 367 409 299 409 218 c 4
 409 102 290 -6 181 -6 c 4
 88 -6 18 55 18 161 c 4
 18 298 142 519 455 645 c 5
 463 642 466 621 465 611 c 5
 350 562 246 475 186 334 c 4
 152 254 144 175 144 120 c 4
 144 72 158 46 193 46 c 4
 247 46 283 144 283 224 c 4
 283 270 274 291 265 300 c 4
 255 310 239 316 232 318 c 5
 231 323 231 334 231 344 c 7
EndSplineSet
Validated: 33
EndChar

StartChar: seven
Encoding: 55 55 23
Width: 471
Flags: W
HStem: 513 102<94.3178 361>
LayerCount: 2
Fore
SplineSet
37 -11 m 0
 22 -11 10 2 10 14 c 0
 10 20 13 27 14 28 c 2
 361 513 l 1
 141 513 l 2
 95 513 64 454 54 434 c 1
 51 434 47 433 43 433 c 0
 34 433 24 435 20 440 c 1
 36 486 77 572 90 603 c 0
 93 611 102 615 110 615 c 2
 411 615 l 2
 435 615 468 618 474 618 c 0
 478 618 479 616 479 613 c 0
 479 599 454 563 440 542 c 2
 44 -10 l 1
 41 -11 39 -11 37 -11 c 0
EndSplineSet
Validated: 1
EndChar

StartChar: eight
Encoding: 56 56 24
Width: 458
Flags: W
HStem: -6 52<147.014 237.476> 580 53<243.08 323.711>
VStem: 8 125<56.4547 209.451> 89 125<413.308 531.258> 271 132<115.733 217.491> 330 120<440.143 574.377>
LayerCount: 2
Fore
SplineSet
185 46 m 8xe8
 254 46 271 127 271 154 c 0
 271 207 229 243 202 270 c 0
 199 273 193 278 191 278 c 3
 189 278 186 276 183 274 c 0
 165 261 133 182 133 122 c 0
 133 82 147 46 185 46 c 8xe8
286 580 m 3
 225 580 214 491 214 470 c 0
 214 429 238 410 260 388 c 0
 264 384 267 383 270 383 c 0
 273 383 276 385 277 386 c 0
 311 431 330 469 330 524 c 0xd4
 330 559 317 580 286 580 c 3
294 633 m 19
 374 633 450 592 450 514 c 0xd4
 450 420 348 359 317 341 c 0
 315 340 314 335 316 334 c 0
 334 317 403 262 403 191 c 0
 403 98 297 -6 168 -6 c 19
 84 -6 8 29 8 121 c 0xe8
 8 237 104 291 151 315 c 0
 153 316 155 320 152 323 c 0
 129 349 89 381 89 448 c 0
 89 573 210 633 294 633 c 19
EndSplineSet
Validated: 1
EndChar

StartChar: nine
Encoding: 57 57 25
Width: 451
VWidth: 0
Flags: W
HStem: 593 52<230.888 309.281>
VStem: 55 126<338.845 505.707> 320 126<369.12 568.138>
LayerCount: 2
Fore
SplineSet
233 294 m 7
 233 283 206 272 177 272 c 4
 111 272 55 340 55 421 c 4
 55 537 174 645 283 645 c 4
 376 645 446 584 446 478 c 4
 446 341 322 120 9 -6 c 5
 1 -3 -2 18 -1 28 c 5
 114 77 218 164 278 305 c 4
 312 385 320 464 320 519 c 4
 320 567 306 593 271 593 c 4
 217 593 181 495 181 415 c 4
 181 369 190 348 199 339 c 4
 209 329 225 323 232 321 c 5
 233 316 233 304 233 294 c 7
EndSplineSet
Validated: 33
EndChar

StartChar: colon
Encoding: 58 58 26
Width: 226
Flags: W
HStem: -11 151<42.4595 116.235> 298 151<102.46 176.619>
VStem: 10 139<23.6687 107.311> 70 140<333.295 416.311>
LayerCount: 2
Fore
SplineSet
70 361 m 4xd0
 70 408 114 449 156 449 c 23
 188 449 210 425 210 392 c 4
 210 347 169 298 127 298 c 23
 93 298 70 327 70 361 c 4xd0
10 52 m 0xe0
 10 99 54 140 96 140 c 19
 128 140 149 116 149 83 c 0
 149 38 109 -11 67 -11 c 19
 33 -11 10 18 10 52 c 0xe0
EndSplineSet
Validated: 1
EndChar

StartChar: semicolon
Encoding: 59 59 27
Width: 262
Flags: W
HStem: 298 151<137.46 211.619>
VStem: 59 124<-6.81888 102.495> 105 140<333.295 416.311>
LayerCount: 2
Fore
SplineSet
105 361 m 0xa0
 105 408 149 449 191 449 c 19
 223 449 245 425 245 392 c 0
 245 347 204 298 162 298 c 19
 128 298 105 327 105 361 c 0xa0
72 -18 m 0
 78 15 50 14 59 62 c 0
 62 78 89 134 147 134 c 0
 154 134 174 134 183 126 c 1xc0
 185 110 187 76 182 52 c 0
 178 30 158 -13 155 -20 c 0
 120 -85 82 -120 7 -168 c 1
 5 -168 l 2
 -2 -168 -11 -143 -9 -134 c 0
 -8 -127 57 -95 72 -18 c 0
EndSplineSet
Validated: 33
EndChar

StartChar: less
Encoding: 60 60 28
Width: 427
Flags: W
LayerCount: 2
Fore
SplineSet
93 209 m 1
 359 51 l 1
 359 51 361 50 360 45 c 0
 359 38 340 -15 334 -15 c 0
 333 -15 332 -14 330 -13 c 2
 18 177 l 2
 6 185 6 200 9 217 c 0
 11 228 20 236 30 241 c 2
 414 428 l 2
 416 429 418 430 419 430 c 0
 422 430 423 423 423 386 c 0
 423 373 419 364 419 364 c 1
 93 209 l 1
EndSplineSet
Validated: 33
EndChar

StartChar: equal
Encoding: 61 61 29
Width: 531
Flags: W
HStem: 109 72<42.1421 454.789> 251 72<62.7465 481.928>
LayerCount: 2
Fore
SplineSet
27 109 m 17
 27 109 21 109 23 119 c 0
 24 123 31 152 42 176 c 0
 45 182 50 181 50 181 c 1
 462 181 l 2
 466 181 470 183 469 176 c 0
 467 167 458 137 448 115 c 0
 445 109 443 111 440 109 c 25
 27 109 l 17
55 251 m 1
 55 251 48 251 50 261 c 1
 50 261 67 323 76 323 c 2
 494 323 l 2
 496 323 498 322 497 318 c 0
 495 309 485 279 475 257 c 0
 472 251 469 251 469 251 c 1
 55 251 l 1
EndSplineSet
Validated: 1
EndChar

StartChar: greater
Encoding: 62 62 30
Width: 441
Flags: W
LayerCount: 2
Fore
SplineSet
331 209 m 5
 65 364 l 1
 65 364 62 367 64 373 c 0
 78 410 88 430 91 430 c 0
 92 430 93 429 95 428 c 2
 406 241 l 2
 414 236 420 228 418 217 c 0
 415 200 409 185 393 177 c 2
 8 -13 l 2
 6 -14 4 -15 3 -15 c 0
 -3 -15 -2 38 -1 45 c 0
 0 50 3 51 3 51 c 1
 331 209 l 5
EndSplineSet
Validated: 33
EndChar

StartChar: question
Encoding: 63 63 31
Width: 346
Flags: W
HStem: -11 150<36.6502 113.54> 567 79<184.657 264.508>
VStem: 6 140<22.3419 108.271> 50 80<250.585 303.169> 271 77<468.119 560.38>
LayerCount: 2
Fore
SplineSet
6 51 m 0xe8
 6 99 48 139 89 139 c 0
 123 139 146 115 146 81 c 0
 146 34 105 -11 64 -11 c 0
 34 -11 6 14 6 51 c 0xe8
179 215 m 3
 179 209 171 198 166 195 c 1
 142 195 50 244 50 300 c 3
 50 361 91 392 118 404 c 0
 180 432 174 429 219 449 c 0
 250 463 271 482 271 515 c 3
 271 547 254 567 222 567 c 0
 192 567 177 522 147 522 c 0
 101 522 89 571 104 609 c 1
 116 624 140 646 187 646 c 0
 270 646 348 588 348 500 c 0
 348 445 314 386 272 363 c 0
 231 340 205 328 169 312 c 0
 150 304 130 291 130 271 c 3xd8
 130 242 179 225 179 215 c 3
EndSplineSet
Validated: 33
EndChar

StartChar: at
Encoding: 64 64 32
Width: 749
Flags: W
HStem: -171 45<221.63 395.448> -13 47<488.609 570.936> -7 60<214 329.896> 359 51<381.134 503> 519 58<341.875 549.663>
LayerCount: 2
Fore
SplineSet
291 -171 m 0xd8
 90 -171 -8 23 23 185 c 0
 71 432 269 577 476 577 c 0
 662 577 740 391 709 233 c 0
 671 40 565 -13 492 -13 c 0xd8
 427 -13 388 28 396 69 c 0
 396 71 392 68 391 67 c 0
 372 37 313 -7 249 -7 c 0xb8
 179 -7 155 73 168 141 c 0
 194 274 319 410 485 410 c 8
 521 410 577 401 577 401 c 1
 568 375 566 369 560 348 c 8
 537 268 501 143 501 143 c 2
 478 63 485 34 512 34 c 0
 605 34 637 160 647 214 c 0
 679 381 614 519 455 519 c 0
 287 519 135 399 101 223 c 0
 63 26 118 -126 351 -126 c 0
 382 -126 410 -116 418 -113 c 1
 418 -122 l 1
 414 -145 371 -171 291 -171 c 0xd8
412 182 m 2
 454 322 l 2
 458 338 467 359 432 359 c 0
 386 359 298 284 271 143 c 0
 257 73 264 53 287 53 c 0xb8
 333 53 406 161 412 182 c 2
EndSplineSet
Validated: 33
EndChar

StartChar: A
Encoding: 65 65 33
Width: 634
Flags: HW
HStem: -4 34<-33.5877 19.5415 134.339 188.778 358.866 407.175 578.682 624.516> 213 60<247.852 385.999> 647 20G<422.96 435.96>
LayerCount: 2
Fore
SplineSet
303 213 m 0
 265 213 250.96 213 217.96 212 c 0
 214.96 212 202 209 201 207 c 0
 156 131 l 0
 132 95 123 77 123 65 c 0
 123 38 181 30 188 30 c 0
 189 30 190 29 190 26 c 0
 190 18 187 0 185 -4 c 1
 148 -2 125.96 3 84.96 3 c 0
 41.96 3 9.95996 -2 -33.04 -4 c 1
 -34.04 -2 -34.04 0 -34.04 4 c 0
 -34.04 14 -32.04 30 -29.04 30 c 0
 -18.04 30 42.96 53 55.96 71 c 0
 75.96 100 79.96 109 94.96 134 c 2
 366.96 586 l 2
 381.96 610 412.96 667 432.96 667 c 0
 438.96 667 443.96 662 444.96 659 c 2
 549.96 141 l 2
 555.96 104 559.96 86 563.96 66 c 0
 568.96 41 616.96 30 623.96 30 c 0
 624.96 30 625.96 28 625.96 25 c 0
 625.96 16 621.96 0 618.96 -4 c 1
 581.96 -2 537.96 3 496.96 3 c 0
 453.96 3 393 -2 359 -4 c 1
 358 -3 358 0 358 3 c 0
 358 14 362 30 366 30 c 0
 377 30 407 44 417 55 c 0
 420 59 422 62 422 69 c 0
 422 83 413 131 400 207 c 0
 400 210 397 211 394 211 c 0
 376 212 315 213 303 213 c 0
315 273 m 0
 344 273 353 273 382 275 c 0
 384 275 386 278 386 280 c 24
 375 350 354 458 354 458 c 1
 354 458 287 350 246 280 c 24
 245 279 245 276 247 276 c 0
 265 274 294 273 315 273 c 0
EndSplineSet
EndChar

StartChar: B
Encoding: 66 66 34
Width: 561
Flags: W
HStem: -4 34<-13.18 44.1553> 0 55<194.96 329.131> 315 56<256.474 366.562> 606 55<294.066 412.352> 628 34<108.71 150.461>
VStem: 390.96 141<133.085 291.397> 426.96 140<435.372 591.452>
LayerCount: 2
Fore
SplineSet
390.96 224 m 0x64
 390.96 277 367.96 315 298.96 315 c 0
 250.96 315 239.96 309 238.96 301 c 2
 194.96 76 l 2
 194.96 75 194.96 73 194.96 72 c 3
 194.96 60 204.96 55 266.96 55 c 0
 280.96 55 296.96 57 312.96 64 c 0
 343.96 77 390.96 124 390.96 224 c 0x64
531.96 226 m 0
 531.96 90 411.96 0 260.96 0 c 0x74
 258.96 0 110.96 2 106.96 2 c 0
 48.96 2 33.96 -2 -12.04 -4 c 17
 -13.04 -3 -14.04 0 -14.04 5 c 0
 -14.04 17 -8.04004 30 -6.04004 30 c 0xa4
 4.95996 30 45.96 42 52.96 55 c 0
 63.96 74 70.96 106 77.96 143 c 2
 150.96 521 l 2
 153.96 539 161.96 576 160.96 599 c 1
 158.96 611 120.96 628 109.96 628 c 0
 108.96 628 107.96 631 107.96 635 c 0
 107.96 644 109.96 657 114.96 662 c 1x6c
 114.96 662 183.96 659 245.96 659 c 0
 346.96 659 360.96 661 389.96 661 c 0
 467.96 661 566.96 621 566.96 518 c 0x32
 566.96 402 454.96 348 455.96 348 c 1
 483.96 343 531.96 302 531.96 226 c 0
426.96 529 m 0x32
 426.96 587 400.96 606 353.96 606 c 3
 321.96 606 298.96 605 294.96 590 c 0
 289.96 563 254.96 385 254.96 385 c 2
 252.96 376 267.96 371 300.96 371 c 0
 373.96 371 426.96 417 426.96 529 c 0x32
EndSplineSet
EndChar

StartChar: C
Encoding: 67 67 35
Width: 587
Flags: W
HStem: -7 54<227.224 424.816> 611 56<308.201 477.196>
VStem: 10.7998 145<149.587 383.754> 545.8 42<475.636 542.773>
LayerCount: 2
Fore
SplineSet
390.8 667 m 0
 451.8 667 539.8 654 597.8 638 c 1
 597.8 623 589.8 500 587.8 490 c 0
 585.8 480 570.8 475 559.8 475 c 3
 554.8 475 549.8 477 545.8 478 c 1
 543.8 517 515.8 611 384.8 611 c 0
 253.8 611 155.8 443 155.8 247 c 0
 155.8 134 201.8 47 304.8 47 c 0
 360.8 47 420.8 61 451.8 83 c 0
 490.8 111 511.8 168 514.8 168 c 3
 515.8 168 540.8 167 543.8 155 c 1
 541.8 144 515.8 55 503.8 44 c 0
 463.8 8 381.8 -7 297.8 -7 c 0
 118.8 -7 10.7998 110 10.7998 259 c 0
 10.7998 486 213.8 667 390.8 667 c 0
EndSplineSet
EndChar

StartChar: D
Encoding: 68 68 36
Width: 678
Flags: W
HStem: -4 34<-13.18 44.1553> -3 56<197.679 376.207> 603 56<301.319 472.218> 628 34<108.71 150.461>
VStem: 160.96 513<404 599>
LayerCount: 2
Fore
SplineSet
106.96 2 m 0x68
 48.96 2 33.96 -2 -12.04 -4 c 17
 -13.04 -3 -14.04 0 -14.04 5 c 0
 -14.04 17 -8.04004 30 -6.04004 30 c 0
 4.95996 30 45.96 42 52.96 55 c 0
 63.96 74 70.96 106 77.96 143 c 2
 150.96 521 l 2
 153.96 539 161.96 576 160.96 599 c 1
 158.96 611 120.96 628 109.96 628 c 0
 108.96 628 107.96 631 107.96 635 c 0
 107.96 644 109.96 657 114.96 662 c 1x98
 114.96 662 183.96 659 245.96 659 c 0
 407.96 659 l 0
 591.96 659 673.96 541 673.96 404 c 3
 673.96 218 524.96 -3 277.96 -3 c 0
 236.96 -3 168.96 2 106.96 2 c 0x68
401.96 603 m 3x68
 365.96 603 318.96 602 305.96 587 c 0
 292.96 572 284.96 542 281.96 524 c 2
 206.96 136 l 2
 200.96 106 192.96 72 200.96 66 c 0
 216.96 54 288.96 53 303.96 53 c 0
 405.96 53 484.96 145 522.96 340 c 0
 549.96 478 514.96 603 401.96 603 c 3x68
EndSplineSet
EndChar

StartChar: E
Encoding: 69 69 37
Width: 542
Flags: W
HStem: -4 34<-13.18 44.1553> 2 52<200.058 386.148> 304 55<251.72 380.483> 610 49<297.908 460.342> 628 34<108.71 150.461>
VStem: 391.96 34<230.198 271.632> 510.96 34<511.298 553.469>
LayerCount: 2
Fore
SplineSet
106.96 2 m 0x76
 48.96 2 33.96 -2 -12.04 -4 c 17
 -13.04 -3 -14.04 0 -14.04 5 c 0
 -14.04 17 -8.04004 30 -6.04004 30 c 0
 4.95996 30 45.96 42 52.96 55 c 0
 63.96 74 70.96 106 77.96 143 c 2
 150.96 521 l 2
 153.96 539 161.96 576 160.96 599 c 1
 158.96 611 120.96 628 109.96 628 c 0
 108.96 628 107.96 631 107.96 635 c 0
 107.96 644 109.96 657 114.96 662 c 1xae
 114.96 662 194.96 659 245.96 659 c 24
 362.96 660 445.96 664 546.96 664 c 1
 544.96 634 544.96 603 544.96 573 c 0
 544.96 553 544.96 534 544.96 516 c 1
 541.96 513 529.96 511 522.96 511 c 0
 515.96 511 511.96 513 510.96 518 c 0
 496.96 568 447.96 610 398.96 610 c 2
 363.96 610 l 2
 325.96 610 304.96 609 300.96 597 c 0
 293.96 578 284.96 542 280.96 519 c 2
 250.96 365 l 2
 249.96 360 269.96 359 289.96 359 c 2
 368.96 359 l 2
 398.96 359 400.96 362 426.96 421 c 0
 428.96 426 435.96 428 442.96 428 c 0
 449.96 428 459.96 426 461.96 423 c 1
 425.96 234 l 1
 423.96 232 411.96 230 404.96 230 c 0
 397.96 230 392.96 233 391.96 238 c 0
 390.96 267 389.96 283 380.96 292 c 0
 370.96 302 349.96 304 305.96 304 c 0
 279.96 304 238.96 304 236.96 295 c 2
 207.96 141 l 2
 204.96 126 199.96 101 199.96 82 c 0
 199.96 60 201.96 54 260.96 54 c 2
 284.96 54 l 2
 319.96 54 364.96 65 394.96 80 c 0
 414.96 90 453.96 125 478.96 170 c 0
 480.96 174 485.96 176 492.96 176 c 0
 501.96 176 517.96 173 519.96 170 c 1
 491.96 116 450.96 42 435.96 -2 c 1
 334.96 -2 191.96 2 106.96 2 c 0x76
EndSplineSet
EndChar

StartChar: F
Encoding: 70 70 38
Width: 537
Flags: W
HStem: -4 34<-13.18 44.1553 212.769 281.702> 304 55<250.72 379.483> 610 49<296.908 459.342> 628 34<108.71 150.461>
VStem: 390.96 34<230.198 271.632> 509.96 34<511.298 553.469>
LayerCount: 2
Fore
SplineSet
117.96 3 m 0xec
 59.96 3 38.96 -1 -12.04 -4 c 17
 -13.04 -3 -14.04 0 -14.04 5 c 0
 -14.04 17 -8.04004 30 -6.04004 30 c 0
 4.95996 30 45.96 42 52.96 55 c 0
 63.96 74 70.96 106 77.96 143 c 2
 150.96 521 l 2
 153.96 539 161.96 576 160.96 599 c 1
 158.96 611 120.96 628 109.96 628 c 0
 108.96 628 107.96 631 107.96 635 c 0
 107.96 644 109.96 657 114.96 662 c 1xdc
 114.96 662 194.96 659 245.96 659 c 24
 362.96 660 444.96 664 545.96 664 c 1
 543.96 634 543.96 603 543.96 573 c 0
 543.96 553 543.96 534 543.96 516 c 1
 540.96 513 528.96 511 521.96 511 c 0
 514.96 511 510.96 513 509.96 518 c 0
 495.96 568 446.96 610 397.96 610 c 2
 362.96 610 l 2
 324.96 610 303.96 609 299.96 597 c 0
 292.96 578 283.96 542 279.96 519 c 2
 249.96 365 l 2
 248.96 360 268.96 359 288.96 359 c 2
 367.96 359 l 2
 397.96 359 399.96 362 425.96 421 c 0
 427.96 426 434.96 428 441.96 428 c 0
 448.96 428 458.96 426 460.96 423 c 1
 424.96 234 l 1
 422.96 232 410.96 230 403.96 230 c 0
 396.96 230 391.96 233 390.96 238 c 0
 389.96 267 388.96 283 379.96 292 c 0
 369.96 302 348.96 304 304.96 304 c 0
 278.96 304 237.96 304 235.96 295 c 2
 206.96 141 l 2
 199.96 106 197.96 88 197.96 74 c 0
 197.96 31 273.96 30 280.96 30 c 0
 283.96 30 282.96 20 281.96 14 c 0
 280.96 9 278.96 -1 276.96 -4 c 1
 239.96 -2 159.96 3 117.96 3 c 0xec
EndSplineSet
EndChar

StartChar: G
Encoding: 71 71 39
Width: 616
Flags: W
HStem: -8 55<231.196 396.281> 267 34<357.898 422.895 581.582 643.229> 611 56<306.098 477.217>
VStem: 10.7998 144<151.047 379.007> 430 100<109.223 188.312> 546 42<475.718 541.554>
LayerCount: 2
Back
SplineSet
390.8 667 m 4
 451.8 667 539.8 654 597.8 638 c 5
 597.8 623 589.8 500 587.8 490 c 4
 585.8 480 570.8 475 559.8 475 c 7
 554.8 475 549.8 477 545.8 478 c 5
 543.8 517 515.8 611 384.8 611 c 4
 253.8 611 155.8 443 155.8 247 c 4
 155.8 134 201.8 47 304.8 47 c 4
 360.8 47 420.8 61 451.8 83 c 4
 490.8 111 511.8 168 514.8 168 c 7
 515.8 168 540.8 167 543.8 155 c 5
 541.8 144 515.8 55 503.8 44 c 4
 463.8 8 381.8 -7 297.8 -7 c 4
 118.8 -7 10.7998 110 10.7998 259 c 4
 10.7998 486 213.8 667 390.8 667 c 4
EndSplineSet
Fore
SplineSet
490 34 m 0
 448 13 395 -8 299 -8 c 0
 127 -8 10.7998 107 10.7998 254 c 0
 10.7998 488 215 667 390.8 667 c 0
 451.8 667 539.8 654 597.8 638 c 1
 597.8 617 590 500 588 490 c 0
 586 480 572 475 559 475 c 0
 554 475 549 477 546 478 c 1
 544 517 515.8 611 384.8 611 c 0
 227 611 155 393 154.8 247 c 0
 154.654 141 200 47 311 47 c 0
 327.968 47 364.955 49.9815 397.221 58.7242 c 1
 424 188 l 2
 428.973 212.006 430 231 430 239 c 0
 430 261 364 267 359 267 c 0
 357 267 357 270 357 274 c 0
 357 283 360 298 364 301 c 1
 411 299 467 295 514 295 c 0
 553 295 607 299 645 301 c 1
 645 273 642 267 639 267 c 0
 632 267 593 257 581 251 c 0
 574 247 563 236 560 223 c 2
 536 112 l 2
 535 108 530 77 530 72 c 0
 530 62 510 44 490 34 c 0
EndSplineSet
EndChar

StartChar: H
Encoding: 72 72 40
Width: 714
Flags: W
HStem: -4 34<-12.96 45.8562 205.021 245.606 340.788 398.23 558.214 599.24> 311 58<255.491 460.304> 628 34<112.154 153.444 312.813 369.704 465.324 511.001 667.568 724.194>
LayerCount: 2
Fore
SplineSet
364.96 369 m 4
 408.96 369 475.96 369 476.96 375 c 6
 504.96 523 l 6
 507.96 541 513.96 574 513.96 600 c 4
 513.96 626 476.96 628 465.96 628 c 4
 464.96 628 463.96 630 463.96 634 c 4
 463.96 643 467.96 658 471.96 662 c 5
 513.96 660 560.96 656 603.96 656 c 4
 644.96 656 686.96 660 724.96 662 c 5
 724.96 660 724.96 658 724.96 656 c 7
 724.96 634 717.96 628 715.96 628 c 4
 708.96 628 664.96 615 658.96 604 c 4
 645.96 580 641.96 555 634.96 519 c 6
 560.96 139 l 6
 554.96 108 549.96 92 549.96 59 c 7
 549.96 43 591.96 30 598.96 30 c 4
 599.96 30 600.96 28 600.96 25 c 4
 600.96 17 596.96 2 592.96 -4 c 5
 555.96 -2 510.96 3 469.96 3 c 4
 426.96 3 383.96 -2 340.96 -4 c 5
 339.96 -3 339.96 -1 339.96 2 c 4
 339.96 12 342.96 30 344.96 30 c 4
 355.96 30 396.96 40 404.96 53 c 4
 414.96 70 424.96 117 428.96 135 c 6
 462.96 304 l 6
 462.96 305 l 7
 462.96 311 395.96 311 352.96 311 c 4
 305.96 311 240.96 311 238.96 303 c 6
 206.96 139 l 6
 200.96 108 196.96 92 196.96 59 c 7
 196.96 43 237.96 30 244.96 30 c 4
 245.96 30 246.96 28 246.96 25 c 4
 246.96 17 243.96 2 239.96 -4 c 5
 202.96 -2 153.96 3 112.96 3 c 4
 69.96 3 29.96 -2 -13.04 -4 c 5
 -14.04 -3 -14.04 -1 -14.04 2 c 4
 -14.04 12 -10.04 30 -8.04004 30 c 4
 2.95996 30 42.96 39 50.96 52 c 4
 60.96 69 72.96 117 75.96 135 c 6
 150.96 523 l 6
 153.96 539 159.96 579 159.96 596 c 4
 159.96 620 118.96 628 111.96 628 c 4
 110.96 628 110.96 629 110.96 632 c 4
 110.96 641 113.96 659 116.96 662 c 5
 158.96 660 195.96 656 238.96 656 c 4
 279.96 656 332.96 660 370.96 662 c 5
 370.96 661 370.96 659 370.96 657 c 7
 370.96 647 366.96 628 362.96 628 c 4
 355.96 628 309.96 615 303.96 604 c 4
 294.96 588 280.96 525 279.96 519 c 6
 252.96 378 l 6
 252.96 377 252.96 377 252.96 376 c 7
 252.96 371 262.96 369 364.96 369 c 4
EndSplineSet
EndChar

StartChar: I
Encoding: 73 73 41
Width: 360
Flags: W
HStem: -4 34<-12.96 45.8562 205.021 245.606> 628 34<112.154 153.444 312.813 369.704>
LayerCount: 2
Fore
SplineSet
279.96 519 m 2
 206.96 139 l 2
 200.96 108 196.96 92 196.96 59 c 3
 196.96 43 237.96 30 244.96 30 c 0
 245.96 30 246.96 28 246.96 25 c 0
 246.96 17 243.96 2 239.96 -4 c 1
 202.96 -2 160.96 3 119.96 3 c 0
 76.96 3 29.96 -2 -13.04 -4 c 1
 -14.04 -3 -14.04 -1 -14.04 2 c 0
 -14.04 12 -10.04 30 -8.04004 30 c 0
 2.95996 30 42.96 39 50.96 52 c 0
 60.96 69 72.96 117 75.96 135 c 2
 150.96 523 l 2
 153.96 539 159.96 579 159.96 596 c 0
 159.96 620 118.96 628 111.96 628 c 0
 110.96 628 110.96 629 110.96 632 c 0
 110.96 641 113.96 659 116.96 662 c 1
 158.96 660 195.96 656 238.96 656 c 4
 279.96 656 332.96 660 370.96 662 c 1
 370.96 661 370.96 659 370.96 657 c 3
 370.96 647 366.96 628 362.96 628 c 0
 355.96 628 309.96 615 303.96 604 c 0
 294.96 588 280.96 525 279.96 519 c 2
EndSplineSet
EndChar

StartChar: J
Encoding: 74 74 42
Width: 421
Flags: W
HStem: 628 34<172.994 214.284 373.653 430.544>
LayerCount: 2
Fore
SplineSet
136.8 135 m 2
 211.8 523 l 2
 214.8 539 220.8 579 220.8 596 c 0
 220.8 620 179.8 628 172.8 628 c 0
 171.8 628 171.8 629 171.8 632 c 0
 171.8 641 174.8 659 177.8 662 c 1
 219.8 660 256.8 656 299.8 656 c 0
 340.8 656 393.8 660 431.8 662 c 1
 431.8 661 431.8 659 431.8 657 c 3
 431.8 647 427.8 628 423.8 628 c 0
 416.8 628 370.8 615 364.8 604 c 0
 355.8 588 341.8 525 340.8 519 c 2
 267.8 143 l 2
 223.8 -85 107.8 -173 -2.2002 -218 c 1
 -9.2002 -215 -16.2002 -205 -16.2002 -194 c 0
 -16.2002 -187 -16.2002 -180 -14.2002 -176 c 1
 61.7998 -113 104.8 -31 136.8 135 c 2
EndSplineSet
EndChar

StartChar: K
Encoding: 75 75 43
Width: 711
Flags: W
HStem: -4 34<-12.96 45.8562 205.021 245.606 598.71 656.512> 628 34<112.154 153.444 312.813 369.704 476.084 530.833 641.559 717.858>
LayerCount: 2
Fore
SplineSet
279.96 519 m 2
 206.96 139 l 2
 200.96 108 196.96 92 196.96 59 c 3
 196.96 43 237.96 30 244.96 30 c 0
 245.96 30 246.96 28 246.96 25 c 0
 246.96 17 243.96 2 239.96 -4 c 1
 202.96 -2 153.96 3 112.96 3 c 0
 69.96 3 29.96 -2 -13.04 -4 c 1
 -14.04 -3 -14.04 -1 -14.04 2 c 0
 -14.04 12 -10.04 30 -8.04004 30 c 0
 2.95996 30 42.96 39 50.96 52 c 0
 60.96 69 72.96 117 75.96 135 c 2
 150.96 523 l 2
 153.96 539 159.96 579 159.96 596 c 0
 159.96 620 118.96 628 111.96 628 c 0
 110.96 628 110.96 629 110.96 632 c 0
 110.96 641 113.96 659 116.96 662 c 1
 158.96 660 195.96 656 238.96 656 c 0
 279.96 656 332.96 660 370.96 662 c 1
 370.96 661 370.96 659 370.96 657 c 3
 370.96 647 366.96 628 362.96 628 c 0
 355.96 628 309.96 615 303.96 604 c 0
 294.96 588 280.96 525 279.96 519 c 2
243.96 333 m 17
 304.96 372 368.96 436 518.96 586 c 0
 527.96 595 530.96 605 530.96 610 c 0
 530.96 624 486.96 630 478.96 630 c 0
 476.96 630 475.96 635 475.96 641 c 0
 475.96 648 476.96 657 479.96 662 c 1
 513.96 660 569.96 656 603.96 656 c 0
 644.96 656 683.96 660 721.96 662 c 1
 721.96 652 718.96 630 713.96 630 c 0
 704.96 629 640.96 624 602.96 585 c 2
 389.96 363 l 2
 382.96 356 379.96 349 379.96 343 c 0
 379.96 340 380.96 337 382.96 334 c 2
 537.96 112 l 2
 583.96 47 614.96 30 654.96 30 c 0
 657.96 30 657.96 25 657.96 22 c 27
 657.96 13 652.96 3 650.96 0 c 1
 642.96 -2 613.96 -4 590.96 -4 c 27
 512.96 -4 457.96 -2 407.96 76 c 2
 243.96 333 l 17
EndSplineSet
EndChar

StartChar: L
Encoding: 76 76 44
Width: 522
Flags: W
HStem: 2 52<200.058 386.148> 2 28<-12.8182 36.7688> 628 34<112.154 153.444 312.813 369.704>
LayerCount: 2
Fore
SplineSet
206.96 139 m 2x60
 203.96 121 199.96 101 199.96 82 c 0
 199.96 61 201.96 54 260.96 54 c 2
 284.96 54 l 2xa0
 319.96 54 364.96 65 394.96 80 c 0
 414.96 90 453.96 125 478.96 170 c 0
 480.96 174 485.96 176 492.96 176 c 0
 501.96 176 517.96 173 519.96 170 c 1
 491.96 116 450.96 42 435.96 -2 c 1
 334.96 -2 203.96 2 118.96 2 c 0
 65.96 2 -12.04 -4 -12.04 -4 c 1
 -13.04 -2 -14.04 2 -14.04 5 c 0
 -14.04 17 -9.04004 30 -7.04004 30 c 0
 3.95996 30 48.96 45 54.96 56 c 0
 65.96 79 72.96 118 75.96 135 c 2
 150.96 523 l 2
 153.96 539 159.96 579 159.96 596 c 0
 159.96 620 118.96 628 111.96 628 c 0
 110.96 628 110.96 629 110.96 632 c 0
 110.96 641 113.96 659 116.96 662 c 1
 158.96 660 195.96 656 238.96 656 c 0
 279.96 656 332.96 660 370.96 662 c 1
 370.96 661 370.96 659 370.96 657 c 3
 370.96 647 366.96 628 362.96 628 c 0
 355.96 628 309.96 615 303.96 604 c 0
 294.96 588 280.96 525 279.96 519 c 2
 206.96 139 l 2x60
EndSplineSet
EndChar

StartChar: M
Encoding: 77 77 45
Width: 861
Flags: W
HStem: -4 34<-13.3064 56.6367 189.867 245.689 541.448 596.33 756.985 801.425> 628 30<164.541 224.101 819.126 869.093> 642 20G<357.96 379.96 670.65 683.96>
LayerCount: 2
Fore
SplineSet
625.96 546 m 1xa0
 679.96 662 l 1xa0
 687.96 661 737.96 658 774.96 658 c 27xc0
 812.96 658 833.96 660 871.96 662 c 1xa0
 871.96 652 869.96 628 864.96 628 c 0
 855.96 628 831.96 628 816.96 611 c 0
 802.96 595 794.96 544 792.96 524 c 2
 792.96 524 758.96 215 751.96 116 c 2
 750.96 103 747.96 87 747.96 68 c 3
 747.96 36 793.96 30 800.96 30 c 0
 801.96 30 802.96 28 802.96 25 c 0
 802.96 17 798.96 0 795.96 -4 c 1
 758.96 -2 718.96 3 677.96 3 c 0
 634.96 3 585.96 -2 542.96 -4 c 1
 540.96 0 540.96 3 540.96 7 c 0
 540.96 19 546.96 30 547.96 30 c 0
 558.96 30 600.96 44 610.96 58 c 0
 619.96 72 622.96 75 629.96 145 c 2
 656.96 402 l 2
 657.96 411 658.96 437 658.96 450 c 0
 658.96 456 657.96 461 654.96 461 c 0
 652.96 461 651.96 459 648.96 454 c 2
 418.96 31 l 2
 413.96 22 392.96 -2 375.96 -2 c 0
 372.96 -2 370.96 -1 367.96 0 c 1
 274.96 480 l 26
 274.96 480 273.96 484 271.96 484 c 3
 270.96 484 268.96 482 267.96 479 c 2
 267.96 479 177.96 156 164.96 93 c 2
 162.96 83 161.96 75 161.96 70 c 0
 161.96 49 237.96 30 244.96 30 c 0
 245.96 30 246.96 27 246.96 24 c 0
 246.96 15 242.96 -1 240.96 -4 c 1
 203.96 -2 153.96 3 112.96 3 c 0
 69.96 3 30.96 -2 -12.04 -4 c 1
 -13.04 -2 -14.04 2 -14.04 5 c 0
 -14.04 16 -9.04004 30 -7.04004 30 c 0
 3.95996 30 87.96 47 96.96 80 c 0
 96.96 80 98.96 88 102.96 101 c 2
 124.96 183 223.96 566 223.96 566 c 2
 225.96 575 230.96 596 230.96 602 c 3
 230.96 622 175.96 628 164.96 628 c 0xc0
 163.96 628 163.96 631 163.96 635 c 0
 163.96 643 165.96 656 171.96 662 c 1xa0
 213.96 660 249.96 658 277.96 658 c 0xc0
 309.96 658 338.96 660 376.96 662 c 1
 382.96 598 422.96 405 454.96 230 c 8
 454.96 229 455.96 229 456.96 229 c 16
 457.96 229 458.96 230 458.96 231 c 0
 509.96 327 625.96 546 625.96 546 c 1xa0
EndSplineSet
EndChar

StartChar: N
Encoding: 78 78 46
Width: 675
Flags: W
HStem: -5 21G<544.96 550.46> -4 34<-13.3064 58.6931 191.784 245.487> 628 34<120.778 186.101 536.823 589.943 724.616 793.803>
VStem: -14.04 179<3.5 92.5>
LayerCount: 2
Fore
SplineSet
250.96 657 m 0x70
 283.96 657 312.96 658 343.96 662 c 1
 363.96 584 474.96 415 557.96 251 c 1
 560.96 258 564.96 278 567.96 292 c 2
 611.96 524 l 2
 613.96 535 617.96 560 617.96 578 c 3
 617.96 610 551.96 628 537.96 628 c 0
 535.96 628 535.96 631 535.96 635 c 0
 535.96 644 538.96 659 541.96 662 c 1
 583.96 660 628.96 657 671.96 657 c 0
 712.96 657 758.96 660 795.96 662 c 1
 795.96 658 796.96 628 787.96 628 c 0
 780.96 628 726.96 623 696.96 592 c 0
 684.96 580 676.96 555 669.96 519 c 2
 595.96 139 l 2
 584.96 81 580.96 51 572.96 -1 c 1
 569.96 -4 551.96 -5 548.96 -5 c 0xb0
 540.96 -5 531.96 5 523.96 18 c 2
 246.96 524 l 1
 172.96 141 l 2
 167.96 116 164.96 99 164.96 86 c 0
 164.96 40 237.96 30 244.96 30 c 0
 245.96 30 246.96 28 246.96 25 c 0
 246.96 17 242.96 0 240.96 -4 c 1
 203.96 -2 154.96 3 113.96 3 c 0
 70.96 3 30.96 -2 -12.04 -4 c 1
 -13.04 -2 -14.04 2 -14.04 5 c 0
 -14.04 16 -9.04004 30 -8.04004 30 c 0
 2.95996 30 64.96 37 90.96 71 c 0
 102.96 87 106.96 106 113.96 144 c 2
 189.96 537 l 2
 192.96 553 195.96 578 195.96 596 c 3
 195.96 620 133.96 628 122.96 628 c 0
 120.96 628 119.96 631 119.96 636 c 0
 119.96 645 122.96 659 126.96 662 c 1
 168.96 660 207.96 657 250.96 657 c 0x70
EndSplineSet
EndChar

StartChar: O
Encoding: 79 79 47
Width: 626
Flags: W
HStem: -10 56<212.429 346.493> 611 56<294.294 428.343>
VStem: 11.8799 145<138.043 381.061> 480.88 143<273.445 517.822>
LayerCount: 2
Fore
SplineSet
358.88 611 m 0
 254.88 611 156.88 456 156.88 238 c 0
 156.88 139 185.88 46 277.88 46 c 0
 424.88 46 480.88 310 480.88 435 c 0
 480.88 529 452.88 611 358.88 611 c 0
382.88 667 m 0
 524.88 667 623.88 553 623.88 400 c 0
 623.88 187 438.88 -10 251.88 -10 c 0
 109.88 -10 11.8799 104 11.8799 256 c 0
 11.8799 469 195.88 667 382.88 667 c 0
EndSplineSet
EndChar

StartChar: P
Encoding: 80 80 48
Width: 546
Flags: HW
HStem: -4 34<-13.4157 47.228 213.183 282.116> 281 47<263.761 360.447> 607 55<293.375 396.786> 628 34<111.114 150.124>
VStem: 416.374 141<414.154 586.033>
LayerCount: 2
Fore
SplineSet
376.374 662 m 0xe8
 445.374 662 557.374 640 557.374 510 c 0
 557.374 404 473.374 281 327.374 281 c 0
 295.374 281 271.374 294 263.374 302 c 1
 262.374 303 262.374 306 262.374 309 c 24
 262.374 318 267.374 331 271.374 331 c 1
 283.374 330 292.374 328 303.374 328 c 3
 383.374 328 416.374 416 416.374 520 c 0
 416.374 560 397.374 607 351.374 607 c 0xe8
 322.374 607 296.374 604 293.374 588 c 2
 207.374 141 l 2
 201.374 106 198.374 88 198.374 74 c 0
 198.374 31 274.374 30 281.374 30 c 0
 284.374 30 283.374 20 282.374 14 c 0
 281.374 9 279.374 -1 277.374 -4 c 1
 240.374 -2 169.374 3 128.374 3 c 0
 85.374 3 30.374 -2 -12.626 -4 c 1
 -13.626 -2 -14.626 6 -13.626 12 c 0
 -12.626 18 -9.62598 30 -7.62598 30 c 0
 3.37402 30 42.374 32 53.374 55 c 0
 63.374 76 71.374 116 75.374 135 c 2
 151.374 523 l 2
 155.374 542 159.374 572 159.374 595 c 0
 159.374 617 116.374 628 111.374 628 c 0
 110.374 628 109.374 630 109.374 633 c 0
 109.374 642 114.374 659 117.374 662 c 1xd8
 159.374 660 195.374 657 244.374 657 c 0
 299.374 657 321.374 662 376.374 662 c 0xe8
EndSplineSet
EndChar

StartChar: Q
Encoding: 81 81 49
Width: 624
VWidth: 0
Flags: HW
HStem: -200 86<476.548 632.824> -56 29<45.7957 82.972> 611 56<294.294 428.343>
VStem: 11.8799 145<138.043 381.061> 480.88 143<273.445 517.822>
LayerCount: 2
Fore
SplineSet
358.88 611 m 0
 254.88 611 156.88 456 156.88 238 c 0
 156.88 139 185.88 46 277.88 46 c 0
 424.88 46 480.88 310 480.88 435 c 0
 480.88 529 452.88 611 358.88 611 c 0
382.88 667 m 0
 524.88 667 623.88 553 623.88 400 c 0
 623.88 253.969 535 114 421.982 42.796 c 0
 381.16 17.0774 299.032 -18.454 262 -27 c 1
 345 -39 488 -114 606 -114 c 0
 662 -114 717 -82 737 -65 c 1
 742 -66 762 -75 762 -85 c 1
 747 -105 643 -200 544 -200 c 0
 394 -200 256 -111 32 -56 c 1
 32 -51 47 -30 54 -27 c 1
 77.338 -22.1379 161.194 -10.6567 214.536 -7.26846 c 1
 92.9838 10.8936 11.8799 117.723 11.8799 256 c 0
 11.8799 469 195.88 667 382.88 667 c 0
EndSplineSet
EndChar

StartChar: R
Encoding: 82 82 50
Width: 632
Flags: W
HStem: -4 34<-12.96 45.8562 205.021 245.606 564.077 605.788> 607 55<293.559 400.368> 628 34<111.7 152.613>
VStem: 417.96 144<436.202 591.821>
LayerCount: 2
Fore
SplineSet
375.96 662 m 0xd0
 445.96 662 561.96 627 561.96 523 c 0
 561.96 441 494.96 345 411.96 317 c 0
 406.96 315 407.96 312 409.96 307 c 0
 438.96 221 475.96 144 518.96 90 c 0
 544.96 57 577.96 29 612.96 29 c 1
 612.96 15 606.96 2 602.96 -4 c 1
 595.96 -5 573.96 -6 566.96 -6 c 0
 407.96 -6 380.96 83 344.96 160 c 0
 310.96 233 295.96 264 281.96 279 c 0
 270.96 291 258.96 293 249.96 293 c 0
 243.96 293 236.96 294 233.96 277 c 2
 206.96 139 l 2
 200.96 108 196.96 92 196.96 59 c 3
 196.96 43 237.96 30 244.96 30 c 0
 245.96 30 246.96 28 246.96 25 c 0
 246.96 17 243.96 2 239.96 -4 c 1
 202.96 -2 153.96 3 112.96 3 c 0
 69.96 3 29.96 -2 -13.04 -4 c 1
 -14.04 -3 -14.04 -1 -14.04 2 c 0
 -14.04 12 -10.04 30 -8.04004 30 c 0
 2.95996 30 42.96 39 50.96 52 c 0
 60.96 69 72.96 117 75.96 135 c 2
 151.96 523 l 2
 154.96 540 160.96 566 160.96 594 c 27
 160.96 617 122.96 628 111.96 628 c 0
 110.96 628 109.96 630 109.96 633 c 0
 109.96 642 114.96 659 117.96 662 c 1xb0
 159.96 660 195.96 657 244.96 657 c 0
 299.96 657 320.96 662 375.96 662 c 0xd0
354.96 607 m 0xd0
 305.96 607 296.96 603 292.96 582 c 2
 252.96 375 l 2
 251.96 372 251.96 370 251.96 368 c 3
 251.96 350 272.96 348 314.96 348 c 3
 384.96 348 417.96 449 417.96 525 c 0
 417.96 581 392.96 607 354.96 607 c 0xd0
EndSplineSet
EndChar

StartChar: S
Encoding: 83 83 51
Width: 449
Flags: W
HStem: -10 57<104.199 226.238> 614 56<236.728 347.618>
VStem: 7.16016 47<104.665 189.862> 68.1602 133<411.5 536.735> 274.16 137<127.484 272> 391.16 65<495.831 564.884>
LayerCount: 2
Fore
SplineSet
305.16 670 m 0xf8
 360.16 670 396.16 653 456.16 642 c 1
 456.16 642 431.16 465 427.16 465 c 0
 423.16 465 418.16 465 413.16 465 c 0
 401.16 465 391.16 466 391.16 482 c 0xf4
 391.16 520 367.16 614 295.16 614 c 0
 221.16 614 201.16 537 201.16 511 c 0
 201.16 457 260.16 416 309.16 377 c 0
 355.16 340 411.16 316 411.16 228 c 0
 411.16 67 268.16 -10 167.16 -10 c 0
 112.16 -10 55.1602 2 2.16016 16 c 1
 2.16016 16 7.16016 59 7.16016 104 c 3
 7.16016 131 6.16016 176 6.16016 182 c 0
 6.16016 192 26.1602 190 30.1602 190 c 0
 34.1602 190 51.1602 186 54.1602 182 c 1
 54.1602 128 93.1602 47 160.16 47 c 0
 259.16 47 274.16 154 274.16 169 c 0
 274.16 223 207.16 263 170.16 295 c 0
 120.16 337 68.1602 373 68.1602 450 c 0
 68.1602 583 207.16 670 305.16 670 c 0xf8
EndSplineSet
EndChar

StartChar: T
Encoding: 84 84 52
Width: 573
Flags: W
HStem: -4 34<54.9199 113.736 272.901 313.486> 607 50<86.3398 226.39 368.063 508.84>
VStem: 532.84 36<504.215 577.295>
LayerCount: 2
Fore
SplineSet
143.84 135 m 2
 213.84 497 l 2
 219.84 528 226.84 559 226.84 577 c 0
 226.84 604 215.84 607 151.84 607 c 0
 103.84 607 64.8398 583 32.8398 509 c 0
 30.8398 505 27.8398 504 22.8398 504 c 0
 14.8398 504 -0.160156 508 -2.16016 511 c 1
 46.8398 674 l 1
 60.8398 670 95.8398 663 108.84 663 c 0
 191.84 662 236.84 657 310.84 657 c 0
 384.84 657 433.84 662 516.84 663 c 0
 529.84 663 567.84 670 583.84 674 c 1
 568.84 510 l 1
 565.84 507 548.84 503 540.84 503 c 0
 535.84 503 532.84 504 532.84 508 c 0
 529.84 582 498.84 607 451.84 607 c 0
 378.84 607 372.84 597 369.84 589 c 0
 356.84 561 351.84 538 344.84 500 c 2
 274.84 139 l 2
 268.84 108 264.84 92 264.84 59 c 3
 264.84 43 305.84 30 312.84 30 c 0
 313.84 30 314.84 28 314.84 25 c 0
 314.84 17 311.84 2 307.84 -4 c 1
 270.84 -2 223.84 3 182.84 3 c 0
 139.84 3 97.8398 -2 54.8398 -4 c 1
 53.8398 -3 53.8398 -1 53.8398 2 c 0
 53.8398 12 57.8398 30 59.8398 30 c 0
 70.8398 30 110.84 39 118.84 52 c 0
 128.84 69 140.84 117 143.84 135 c 2
EndSplineSet
EndChar

StartChar: U
Encoding: 85 85 53
Width: 679
Flags: W
HStem: -5 80<206.976 340.887> 625 37<39.9319 87.2458 243.033 309.576 452.502 504.767 619.879 693.573> 625 29<627.941 691.897>
LayerCount: 2
Fore
SplineSet
84.6797 522 m 2xc0
 87.6797 540 96.6797 588 92.6797 600 c 0
 88.6797 612 50.6797 625 39.6797 625 c 0xa0
 37.6797 625 38.6797 636 39.6797 642 c 0
 40.6797 648 42.6797 660 44.6797 662 c 1
 86.6797 660 135.679 656 178.679 656 c 0
 219.679 656 271.679 660 309.679 662 c 1
 309.679 659 310.679 649 309.679 644 c 0
 308.679 638 304.679 625 301.679 625 c 0xc0
 294.679 625 241.679 612 236.679 601 c 0
 224.679 574 219.679 549 213.679 516 c 2
 167.679 279 l 2
 143.679 158 182.679 75 271.679 75 c 0
 351.679 75 437.679 122 469.679 286 c 2
 515.679 524 l 2
 518.679 541 528.679 579 517.679 596 c 0
 507.679 612 461.679 625 450.679 625 c 0xa0
 445.679 625 450.679 657 455.679 662 c 1xc0
 497.679 658 533.679 654 576.679 654 c 0xa0
 617.679 654 655.679 660 693.679 662 c 1
 694.679 658 694.679 649 693.679 644 c 0
 692.679 638 687.679 625 684.679 625 c 0
 677.679 625 631.679 623 601.679 592 c 0
 589.679 580 581.679 555 574.679 519 c 2
 529.679 291 l 2
 490.679 88 367.679 -5 233.679 -5 c 0
 93.6797 -5 -1.32031 80 43.6797 311 c 2
 84.6797 522 l 2xc0
EndSplineSet
EndChar

StartChar: V
Encoding: 86 86 54
Width: 548
Flags: W
HStem: 625 37<10.9211 64.4725 229.003 291.783 453.037 508.26 608.474 674.042>
LayerCount: 2
Fore
SplineSet
149.72 656 m 4
 192.72 656 257.72 660 291.72 662 c 5
 292.543 660.971 293.015 658.8 293.015 656 c 7
 293.015 645.188 288.691 625 284.72 625 c 4
 273.72 625 221.72 617 216.72 589 c 4
 214.72 580 219.877 549.03 224.72 523 c 4
 248.72 394 285.72 193 285.72 193 c 5
 285.72 193 463.72 494 480.72 522 c 4
 495.72 547 509.72 575 512.72 590 c 4
 516.72 610 490.72 625 453.72 625 c 4
 452.203 625 451.816 627.855 451.816 632 c 7
 451.816 641.513 455.63 657.821 457.72 662 c 5
 494.72 660 522.72 657 563.72 657 c 4
 606.72 657 630.72 660 673.72 662 c 5
 674.72 660 675.72 653 674.72 647 c 4
 673.72 641 670.72 626 668.72 626 c 4
 657.72 626 604.72 623 571.72 568 c 6
 246.72 27 l 6
 231.72 3 210.72 -10 199.72 -10 c 4
 191.72 -10 183.72 -4 180.72 3 c 5
 88.7197 510 l 6
 83.7197 539 76.7197 571 73.7197 592 c 4
 69.7197 618 19.7197 625 12.7197 625 c 4
 9.71973 625 9.71973 630 9.71973 634 c 31
 9.71973 645 15.7197 659 17.7197 662 c 5
 54.7197 660 108.72 656 149.72 656 c 4
EndSplineSet
EndChar

StartChar: W
Encoding: 87 87 55
Width: 1015
Flags: HW
HStem: 625 37<13.6335 63.2528 227.016 276.121 285.633 328.121 492.363 541.246 554.096 610.94 719.253 781.734 797.096 852.125 962.617 1024.76>
LayerCount: 2
Fore
SplineSet
149.034 656 m 0
 190.034 656 239.034 660 277.034 662 c 1
 277.205 660.973 277.206 659.212 277.206 657 c 3
 277.206 646.293 274.178 625 270.034 625 c 0
 263.034 625 226.034 624 220.034 591 c 0
 219.034 584 221.88 572 225.034 560 c 18
 225.034 560 327.588 191.881 328.88 191.656 c 1
 332.458 191.034 419.034 310 419.034 310 c 1
 359.034 527 l 2
 353.034 548 343.034 588 334.034 600 c 0
 324.034 614 305.034 625 285.034 625 c 0
 283.034 625 284.034 638 285.034 644 c 0
 286.034 650 288.034 660 290.034 662 c 1
 332.034 660 375.034 656 418.034 656 c 0
 459.034 656 504.034 660 542.034 662 c 1
 542.229 660.822 542.176 658.681 542.176 656 c 3
 542.176 645.024 539.052 625 535.034 625 c 0
 520.034 625 491.034 618 486.034 593 c 0
 485.034 586 487.88 574 491.034 562 c 2
 523.034 447 l 1
 585.034 542 l 2
 597.034 561 611.034 581 614.034 594 c 0
 619.034 622 561.034 626 552.034 626 c 0
 550.059 626 550.235 630.838 550.235 637 c 3
 550.235 646.436 554.404 658.975 558.034 662 c 1
 587.034 660 637.034 656 667.034 656 c 0
 714.034 656 747.034 660 785.034 662 c 1
 786.034 656 783.034 626 778.034 626 c 0
 759.034 626 719.034 610 704.034 596 c 0
 680.034 573 657.034 543 635.034 510 c 2
 543.034 372 l 1
 543.034 372 593.186 197.141 594.88 197.416 c 1
 597.784 197.886 792.034 488 829.034 544 c 0
 842.034 564 853.034 585 855.034 594 c 0
 860.034 621 804.034 626 795.034 626 c 0
 792.849 626 793.457 631.918 793.457 639 c 7
 793.457 648.126 797.656 659.185 801.034 662 c 1
 830.034 660 881.034 656 911.034 656 c 0
 958.034 656 990.034 660 1028.03 662 c 1
 1028.03 658 1026.88 626 1021.03 626 c 0
 1002.03 626 965.034 612 950.034 598 c 0
 927.034 577 903.034 546 879.034 510 c 0
 838.034 449 554.034 19 554.034 19 c 2
 540.034 -2 523.034 -13 516.034 -13 c 0
 512.034 -13 508.034 -11 507.034 -8 c 2
 439.034 233 l 1
 286.034 19 l 2
 272.034 -1 255.034 -13 248.034 -13 c 0
 244.034 -13 242.034 -11 241.034 -8 c 2
 93.0342 527 l 2
 83.0342 563 81.0342 575 65.0342 604 c 0
 57.0342 619 24.0342 625 13.0342 625 c 0
 11.0342 625 12.0342 638 13.0342 644 c 0
 14.0342 650 16.0342 660 18.0342 662 c 1
 60.0342 660 106.034 656 149.034 656 c 0
EndSplineSet
EndChar

StartChar: X
Encoding: 88 88 56
Width: 761
Flags: W
HStem: -4 37<-12.7598 59.4047 175.142 233.03 357.507 416.966 598.802 645.138> 625 37<145.53 191.715 357.352 416.84 524.556 583.53 700.326 770.46>
LayerCount: 2
Fore
SplineSet
283.24 656 m 0
 329.24 656 380.24 660 418.24 662 c 1
 418.483 660.542 417.992 657.607 417.992 654 c 3
 417.992 642.764 413.025 625 409.24 625 c 0
 396.24 625 360.24 619 356.24 604 c 0
 355.24 598 356.24 588 359.24 582 c 2
 430.24 414 l 1
 489.24 478 584.24 571 588.24 594 c 0
 591.24 611 557.24 625 525.24 625 c 0
 523.301 625 523.745 629.814 523.745 636 c 3
 523.745 645.762 528.567 658.939 532.24 662 c 1
 566.24 660 612.24 656 646.24 656 c 0
 694.24 656 733.24 660 771.24 662 c 1
 771.68 660.679 771.618 658.146 771.618 655 c 7
 771.618 643.854 767.139 625 763.24 625 c 0
 756.24 625 703.24 618 672.24 586 c 2
 454.24 356 l 1
 508.24 229 566.24 93 576.24 76 c 0
 596.24 41 640.24 33 647.24 33 c 0
 650.24 33 646.24 18 645.24 11 c 0
 644.24 6 640.24 -2 639.24 -4 c 1
 602.24 -2 543.24 2 505.24 2 c 0
 453.24 2 409.24 -2 357.24 -4 c 1
 356.142 -2.62793 356.348 0.779297 356.348 5 c 3
 356.348 16.1562 362.612 33 366.24 33 c 0
 376.24 33 420.24 43 423.24 61 c 0
 424.24 64 424.24 69 423.24 72 c 2
 340.24 269 l 1
 319.24 245 173.24 83 170.24 66 c 0
 166.24 44 205.24 33 233.24 33 c 0
 236.24 33 234.24 19 233.24 12 c 0
 232.24 5 229.24 -2 228.24 -4 c 1
 198.24 -2 141.24 2 107.24 2 c 0
 59.2402 2 25.2402 -2 -12.7598 -4 c 1
 -12.7598 -1 -14.7598 5 -13.7598 10 c 0
 -12.7598 16 -8.75977 33 -5.75977 33 c 0
 1.24023 33 62.2402 44 82.2402 67 c 2
 313.24 332 l 1
 228.24 537 l 2
 217.24 563 203.24 600 192.24 610 c 0
 181.24 620 157.24 625 146.24 625 c 0
 144.197 625 144.87 630.341 144.87 637 c 3
 144.87 646.64 149.691 659.043 153.24 662 c 1
 198.24 660 237.24 656 283.24 656 c 0
EndSplineSet
EndChar

StartChar: Y
Encoding: 89 89 57
Width: 590
Flags: HW
HStem: -4 37<39.0329 103.168 261.788 307.866> 625 37<12.3712 58.9558 223.65 283.929 377.513 433.528 534.621 601.427>
LayerCount: 2
Fore
SplineSet
150.527 656 m 0
 196.527 656 245.821 660 283.821 662 c 1
 284.821 660 284.821 655.212 284.821 653 c 3
 284.821 642.293 280.671 625 276.527 625 c 0
 263.527 625 226.527 619 222.527 604 c 0
 221.527 598 222.821 589 225.527 582 c 2
 288.821 403 l 1
 321.821 445 428.527 579 433.527 603 c 0
 436.527 616 417.527 625 378.527 625 c 0
 376.802 625 376.553 628.807 376.553 634 c 3
 376.553 643.863 380.597 658.725 384.527 662 c 1
 412.527 660 462.527 656 496.527 656 c 0
 544.527 656 575.527 660 602.527 662 c 1
 602.527 659 602.527 649 601.527 644 c 0
 600.527 638 597.527 626 594.527 626 c 0
 576.527 626 538.527 616 514.527 590 c 0
 485.527 557 300.527 323 296.527 304 c 2
 265.527 145 l 2
 258.527 110 255.527 85 256.527 58 c 0
 257.527 47 301.527 33 308.527 33 c 0
 311.527 33 309.527 20 308.527 14 c 0
 307.527 9 305.527 -1 303.527 -4 c 1
 266.527 -2 216.527 4 175.527 4 c 0
 132.527 4 82.5273 -2 39.5273 -4 c 1
 38.5273 -2 37.5273 6 38.5273 12 c 0
 39.5273 18 43.5273 33 45.5273 33 c 0
 56.5273 33 104.527 46 111.527 58 c 1
 121.527 81 130.527 120 134.527 139 c 2
 167.527 309 l 0
 170.527 324 95.5273 537 95.5273 537 c 0
 86.5273 566 71.5273 601 59.5273 610 c 0
 47.5273 619 23.5273 625 12.5273 625 c 0
 10.8027 625 11.1025 628.807 11.1025 634 c 3
 11.1025 643.863 16.5967 658.725 20.5273 662 c 1
 65.5273 660 104.527 656 150.527 656 c 0
EndSplineSet
EndChar

StartChar: Z
Encoding: 90 90 58
Width: 615
Flags: HW
HStem: 0 57<168.998 420.167> 599 57<201.366 443.851> 646 16G<144.54 161.04 582.54 624.04>
LayerCount: 2
Fore
SplineSet
303.04 656 m 2xc0
 405.04 656 l 2
 483.04 656 543.04 660 622.04 666 c 1
 626.04 665 627.04 643 625.04 633 c 1
 622.04 625 179.04 82 179.04 82 c 2
 174.04 76 170.04 71 169.04 67 c 0
 168.04 60 173.04 57 180.04 57 c 2
 328.04 57 l 2
 421.04 57 485.04 115 515.04 174 c 0
 516.04 176 518.04 180 528.04 180 c 0
 537.04 180 551.04 180 556.04 174 c 1
 523.04 108 488.04 47 472.04 0 c 1
 -8.95996 0 l 1
 -12.96 7 -13.96 18 -11.96 26 c 0
 -10.96 33 -8.95996 39 -4.95996 43 c 2
 446.04 599 l 1
 287.04 599 l 0xc0
 188.04 598 167.04 546 134.04 484 c 0
 132.04 481 130.04 478 121.04 478 c 0
 111.04 478 93.04 479 91.04 482 c 1
 113.04 540 135.04 599 154.04 662 c 1xa0
 168.04 658 290.04 656 303.04 656 c 2xc0
EndSplineSet
EndChar

StartChar: bracketleft
Encoding: 91 91 59
Width: 391
Flags: W
HStem: -110 50<120.312 202.216> 720 50<263.688 362.787>
LayerCount: 2
Fore
SplineSet
222 -92 m 0
 231 -97 229 -129 218 -133 c 1
 149 -120 103 -110 10 -110 c 0
 -7 -110 -4 -88 -4 -87 c 2
 159 747 l 2
 159 748 164 770 181 770 c 0
 277 770 363 786 398 793 c 0
 400 793 402 790 402 784 c 0
 402 775 396 757 386 752 c 0
 355 737 300 720 276 720 c 0
 270 720 267 716 266 711 c 2
 118 -52 l 2
 117 -56 118 -60 124 -60 c 0
 144 -60 192 -74 222 -92 c 0
EndSplineSet
Validated: 33
EndChar

StartChar: backslash
Encoding: 92 92 60
Width: 250
Flags: W
VStem: 155 61<-34.2012 4.43836>
LayerCount: 2
Fore
SplineSet
38 761 m 4
 66 761 85 754 89 739 c 5
 215 13 l 6
 215 12 216 10 216 7 c 4
 216 -30 188 -39 177 -39 c 4
 171 -39 155 -37 155 -37 c 5
 18 755 l 5
 18 755 25 761 38 761 c 4
EndSplineSet
Validated: 1
EndChar

StartChar: bracketright
Encoding: 93 93 61
Width: 385
Flags: W
HStem: -110 50<24.4479 122.328> 720 50<184.312 266.672>
LayerCount: 2
Fore
SplineSet
0 -92 m 0
 37 -74 91 -60 111 -60 c 0
 117 -60 119 -56 120 -52 c 2
 269 711 l 2
 270 716 268 720 262 720 c 0
 238 720 189 737 164 752 c 1
 151 765 164 793 168 793 c 0
 200 786 281 770 377 770 c 0
 389 770 390 760 390 753 c 0
 390 750 390 747 390 747 c 2
 228 -87 l 2
 228 -88 223 -110 206 -110 c 0
 113 -110 62 -120 -12 -133 c 0
 -14 -132 -15 -130 -15 -126 c 0
 -15 -116 -10 -97 0 -92 c 0
EndSplineSet
Validated: 33
EndChar

StartChar: asciicircum
Encoding: 94 94 62
Width: 352
Flags: W
HStem: 469 221
VStem: 44 283
LayerCount: 2
Fore
SplineSet
44 499 m 5
 52 513 137 567 206 677 c 4
 211 686 211 690 218 690 c 4
 241 690 228 668 268 588 c 4
 284 558 326 505 327 500 c 5
 326 496 316 469 309 469 c 4
 294 469 235 525 201 582 c 5
 149 525 65 469 50 469 c 4
 44 469 44 485 44 499 c 5
EndSplineSet
Validated: 1
EndChar

StartChar: underscore
Encoding: 95 95 63
Width: 519
Flags: W
HStem: -45 62<29.4207 449.857>
LayerCount: 2
Fore
SplineSet
22 -35 m 1
 22 -35 31 17 45 17 c 2
 463 17 l 2
 466 17 465 13 465 9 c 0
 465 3 462 -13 450 -39 c 0
 447 -45 441 -45 441 -45 c 1
 27 -45 l 1
 27 -45 20 -45 22 -35 c 1
EndSplineSet
Validated: 1
EndChar

StartChar: grave
Encoding: 96 96 64
Width: 210
Flags: W
HStem: 522 165
VStem: 48 138
LayerCount: 2
Fore
SplineSet
48 654 m 4
 48 667 66 687 97 687 c 4
 110 687 122 683 126 678 c 4
 152 636 186 547 186 540 c 4
 186 536 174 522 167 522 c 4
 158 522 48 613 48 654 c 4
EndSplineSet
Validated: 1
EndChar

StartChar: a
Encoding: 97 97 65
Width: 462
VWidth: 0
Flags: W
HStem: -8 76<92.4598 183.817> 385 64<218.456 346.56>
VStem: 7.55957 123<69.7916 238.401>
LayerCount: 2
Fore
SplineSet
322.56 449 m 0
 370.56 449 405.56 435 416.56 427 c 9
 358.56 128 l 2
 357.56 125 356.56 110 356.56 105 c 0
 356.56 96 355.56 81 366.56 81 c 0
 388.56 81 433.56 126 439.56 134 c 1
 442.56 134 458.56 116 458.56 110 c 1
 446.56 80 346.592 -8 284.56 -8 c 3
 256.56 -8 231.56 11 231.56 46 c 0
 231.56 50.0332 231.679 54.5889 231.944 59 c 4
 232.356 65.8496 233.12 72.3506 234.337 76 c 1
 215.56 43 179.56 -8 124.56 -8 c 3
 50.5596 -8 7.55957 53 7.55957 140 c 3
 7.55957 276 143.56 449 322.56 449 c 0
264.56 385 m 0
 179.56 385 130.56 195 130.56 124 c 0
 130.56 90 137.56 68 161.56 68 c 3
 208.56 68 255.472 195.051 273.807 288 c 2
 291.56 378 l 17
 286.56 383 274.56 385 264.56 385 c 0
EndSplineSet
EndChar

StartChar: b
Encoding: 98 98 66
Width: 410
Flags: W
HStem: -10 57<92.3076 199.71> 363 86<238.478 329.3> 625 31<48.9011 98.5146> 675 20G<206.3 224.8>
VStem: 99.7998 132<557.247 679> 278.8 122<190.514 361.241>
LayerCount: 2
Fore
SplineSet
298.8 449 m 0
 359.8 449 400.8 412 400.8 303 c 3
 400.8 118 237.8 -10 123.8 -10 c 3
 60.8154 -10 10.7998 38 10.7998 107 c 3
 10.7998 119.901 14.0557 147.593 16.7998 162 c 2
 90.7998 544 l 2
 96.7998 575 99.7998 597 99.7998 603 c 0
 99.7998 624 70.7998 625 50.7998 625 c 0
 48.7998 625 47.7998 629 47.7998 633 c 8
 47.7998 643 53.7998 653 56.7998 656 c 1
 91.7998 656 190.8 682 221.8 695 c 1
 227.8 692 231.8 685 231.8 673 c 0
 231.8 659 218.8 602 214.8 584 c 10
 168.8 346 l 17
 187.8 374 233.8 449 298.8 449 c 0
248.8 363 m 3
 203.8 363 150.8 255 133.8 167 c 0
 122.8 111 122.8 47 158.8 47 c 3
 222.8 47 278.8 200 278.8 296 c 3
 278.8 334 272.8 363 248.8 363 c 3
EndSplineSet
EndChar

StartChar: c
Encoding: 99 99 67
Width: 371
Flags: W
HStem: -6 74<102.072 224.524> 394 55<202.948 270.862>
VStem: 8.63965 126<85.7263 267.649>
LayerCount: 2
Fore
SplineSet
251.64 449 m 0
 304.64 449 341.64 429 363.64 404 c 1
 366.64 395 370.639 384 370.639 371 c 0
 370.639 340 353.64 310 323.64 310 c 0
 272.64 310 286.64 394 240.64 394 c 0
 185.64 394 134.64 267.153 134.64 169 c 0
 134.64 112 147.64 68 198.64 68 c 0
 246.64 68 293.64 118 299.64 126 c 1
 302.64 126 318.64 108 318.64 102 c 1
 306.64 72 223.64 -6 153.64 -6 c 0
 51.6396 -6 8.63965 60 8.63965 156 c 0
 8.63965 308 125.64 449 251.64 449 c 0
EndSplineSet
EndChar

StartChar: d
Encoding: 100 100 68
Width: 465
VWidth: 0
Flags: W
HStem: -8 89<268.406 375.406> -8 76<85.4062 181.604> 385 63<262.406 302.406> 625 31<279.508 329.121> 675 20G<436.906 455.406>
VStem: 5.40625 123<70.3059 242.229> 330.406 132<561.592 679>
LayerCount: 2
Fore
SplineSet
297.4 447.71 m 1x7e
 299.064 447.822 300.733 447.918 302.406 448 c 1
 321.406 541 l 2
 326.406 571 330.406 597 330.406 603 c 0
 330.406 624 301.406 625 281.406 625 c 0
 279.406 625 278.406 629 278.406 633 c 0
 278.406 643 284.406 653 287.406 656 c 1
 322.406 656 421.406 682 452.406 695 c 1
 458.406 692 462.406 685 462.406 673 c 0
 462.406 659 448.406 604 445.312 586 c 10
 356.406 128 l 2
 355.406 125 354.406 110 354.406 105 c 0
 354.406 96 353.406 81 364.406 81 c 0
 386.406 81 431.406 126 437.406 134 c 1
 440.406 134 456.406 116 456.406 110 c 1
 444.406 80 344.438 -8 282.406 -8 c 3xbe
 254.406 -8 229.406 11 229.406 46 c 0
 229.406 50.6465 229.564 55.9863 229.922 61 c 4
 230.356 67.0957 231.086 72.708 232.183 76 c 1
 213.406 43 177.406 -8 122.406 -8 c 3
 48.4062 -8 5.40625 53 5.40625 140 c 0
 4.41602 272.134 127.924 436.37 297.4 447.71 c 1x7e
285.908 360 m 18
 289.667 378.987 272.406 385 262.406 385 c 0
 177.406 385 128.406 195 128.406 124 c 0
 128.406 90 135.406 68 159.406 68 c 3x7e
 206.406 68 251.4 188 271.653 288 c 2
 285.908 360 l 18
EndSplineSet
EndChar

StartChar: e
Encoding: 101 101 69
Width: 393
Flags: W
HStem: -6 74<104.539 224.524> 179 50<145.641 208.016> 395 54<207.331 261.481>
VStem: 8.63965 126<84.2138 222.73> 264.64 114<295.188 394.101>
LayerCount: 2
Fore
SplineSet
250.64 449 m 0
 317.64 449 378.64 415 378.64 356 c 0
 378.64 249 191.64 179 138.64 179 c 0
 134.64 179 134.64 172 134.64 169 c 0
 134.64 83 166.64 68 198.64 68 c 0
 246.64 68 293.64 118 299.64 126 c 1
 302.64 126 318.64 108 318.64 102 c 1
 306.64 72 223.64 -6 153.64 -6 c 0
 56.6396 -6 8.63965 55 8.63965 157 c 0
 8.63965 304 124.64 449 250.64 449 c 0
240.64 395 m 0
 209.64 395 145.64 308 145.64 233 c 0
 145.64 231 147.64 229 149.64 229 c 0
 217.64 229 264.64 308 264.64 356 c 0
 264.64 379 256.64 395 240.64 395 c 0
EndSplineSet
EndChar

StartChar: f
Encoding: 102 102 70
Width: 417
Flags: W
HStem: -218 55<-104 2.86553> 370 59<74.3259 124.75 259 379.376> 640 55<328.714 432>
LayerCount: 2
Fore
SplineSet
406 695 m 0
 458 695 486 677 499 662 c 1
 499 622 490 562 440 562 c 0
 397 562 404 640 365 640 c 0
 322 640 280 555 256 434 c 0
 256 433 l 3
 256 431 256 429 259 429 c 2
 374 429 l 2
 382 429 384 420 384 414 c 0
 384 404 377 382 370 370 c 1
 250 370 l 2
 247 370 244 367 243 364 c 2
 184 60 l 2
 141 -160 7 -218 -78 -218 c 0
 -130 -218 -163 -196 -168 -179 c 1
 -168 -129 -155 -92 -112 -92 c 0
 -71 -92 -76 -163 -37 -163 c 0
 17 -163 40 -75 55 2 c 2
 127 363 l 2
 127 364 127 364 127 365 c 3
 127 368 125 370 123 370 c 2
 64 370 l 2
 59 370 59 379 59 380 c 0
 59 391 86 430 116 430 c 2
 133 430 l 2
 138 430 140 435 142 446 c 0
 172 599 275 695 406 695 c 0
EndSplineSet
EndChar

StartChar: g
Encoding: 103 103 71
Width: 465
VWidth: 0
Flags: W
HStem: -218 49<104.144 261.603> 371 51<411.699 474.935> 388 61<224.686 291.443>
VStem: -16.2002 100<-148.586 -68.9415> 42.0566 132.944<23.1543 80> 72.7998 114<170.023 333.41> 285 109.16<-118.948 0> 297.8 116<221.865 370.326>
LayerCount: 2
Fore
SplineSet
285 -97 m 0x92
 285 -71 181 -49 142.057 -45 c 1
 118 -52 83.7998 -65 83.7998 -99 c 0
 83.7998 -135 106 -169 182 -169 c 3
 264 -169 285 -131 285 -97 c 0x92
259.8 388 m 3xa5
 209.8 388 186.8 286 186.8 217 c 0
 186.8 182 201.8 166 224.8 166 c 0
 282.8 166 297.8 277 297.8 331 c 0
 297.8 365 284.8 388 259.8 388 c 3xa5
281.8 449 m 3
 335.8 449 347.8 422 414.8 422 c 2
 467.8 422 l 2
 473.8 422 476.8 417 476.8 409 c 8
 477 394 470.8 378 466.8 371 c 1
 415.8 371 l 26
 412 371 409.8 368 409.8 365 c 0
 409.8 358 413.8 339 413.8 312 c 0
 413.8 221 360 170 319.8 144 c 0
 269.218 111.285 175.001 94 175.001 66 c 0xc9
 175.001 47 394.16 48 394.16 -48 c 0
 394.16 -110 335.8 -218 149.8 -218 c 3
 56.7998 -218 -16.2002 -173 -16.2002 -115 c 0xd2
 -16.2002 -61 58 -36 99.0566 -27 c 1
 91.4336 -24.6348 74 -16 67 -11 c 0
 50.2246 0.982422 42.0566 14.3086 42.0566 32 c 0xc8
 42.0566 58 106.8 94 158.8 116 c 1
 86.7998 135 72.7998 200 72.7998 247 c 0
 72.7998 353 168.8 449 281.8 449 c 3
EndSplineSet
EndChar

StartChar: h
Encoding: 104 104 72
Width: 469
VWidth: 0
Flags: W
HStem: -8 89<278.76 385.76> 341 108<235.76 348.26> 625 31<60.8611 110.475> 675 20G<218.26 236.76>
VStem: 111.76 132<557.127 679> 239.76 125<27.4375 186.641> 282.76 120<199.711 368.749>
LayerCount: 2
Fore
SplineSet
316.76 449 m 3xfa
 379.76 449 402.76 397 402.76 340 c 0xfa
 402.76 308 391.76 259 386.76 233 c 2
 366.76 128 l 2
 365.76 125 364.76 110 364.76 105 c 0
 364.76 96 363.76 81 374.76 81 c 0
 396.76 81 441.76 126 447.76 134 c 1
 450.76 134 466.76 116 466.76 110 c 1
 454.76 80 354.76 -8 292.76 -8 c 3
 264.76 -8 239.76 10 239.76 49 c 3xf4
 239.76 65 247.76 114 249.76 123 c 2
 272.76 242 l 2
 274.76 254 282.76 288 282.76 300 c 0
 282.76 327 275.76 341 253.76 341 c 0
 217.76 341 150.76 184 134.76 105 c 10
 113.76 0 l 17
 103.76 -3 68.7598 -6 57.7598 -6 c 0
 46.7598 -6 9.75977 -3 -3.24023 0 c 1
 2.75977 31 111.76 597 111.76 603 c 0
 111.76 624 82.7598 625 62.7598 625 c 0
 60.7598 625 59.7598 629 59.7598 633 c 8
 59.7598 643 65.7598 653 68.7598 656 c 1
 103.76 656 202.76 682 233.76 695 c 1
 239.76 692 243.76 685 243.76 673 c 0
 243.76 659 229.76 602 226.76 584 c 2
 226.76 584 172.76 307 172.76 304 c 0
 202.76 366 268.76 449 316.76 449 c 3xfa
EndSplineSet
EndChar

StartChar: i
Encoding: 105 105 73
Width: 286
VWidth: 0
Flags: W
HStem: -8 89<93.0801 200.08> 360 89<82.0801 189.08> 540 147<156.473 237.687>
VStem: 54.0801 125<27.4375 184.875> 103.08 125<256.125 413.562> 129.08 136<567.686 659.998>
LayerCount: 2
Fore
SplineSet
175.08 449 m 3xe8
 203.08 449 228.08 431 228.08 392 c 3xe8
 228.08 376 220.08 326 218.08 318 c 2
 181.08 128 l 2
 180.08 125 179.08 110 179.08 105 c 0
 179.08 96 178.08 81 189.08 81 c 0
 211.08 81 256.08 126 262.08 134 c 1
 265.08 134 281.08 116 281.08 110 c 1
 269.08 80 169.112 -8 107.08 -8 c 3
 79.0801 -8 54.0801 10 54.0801 49 c 3xf0
 54.0801 65 62.0801 115 64.0801 123 c 2
 101.08 313 l 2
 102.055 318.005 103.08 331 103.08 336 c 0
 103.08 345 104.08 360 93.0801 360 c 0
 71.0801 360 26.0801 315 20.0801 307 c 1
 17.0801 307 1.08008 325 1.08008 331 c 1
 13.0801 361 113.048 449 175.08 449 c 3xe8
207.08 687 m 0
 241.08 687 265.08 660 265.08 625 c 0
 265.08 581 229.08 540 187.08 540 c 0
 153.08 540 129.08 568 129.08 603 c 0xe4
 129.08 647 165.08 687 207.08 687 c 0
EndSplineSet
EndChar

StartChar: j
Encoding: 106 106 74
Width: 341
VWidth: 0
Flags: W
HStem: -218 37<-0.870361 10.344> 360 89<156.36 263.36> 541 148<243.754 324.967>
VStem: 177.36 125<253.062 413.562> 216.36 136<568.686 661.314>
LayerCount: 2
Fore
SplineSet
249.36 449 m 3xf0
 277.36 449 302.36 431 302.36 392 c 3
 302.36 376 294.36 326 292.36 318 c 2
 292.36 318 269.36 195 254.36 120 c 0
 238.36 36 209.36 -47 168.36 -102 c 0
 125.36 -159 32.3604 -210 4.36035 -218 c 1
 -0.639648 -218 -8.63965 -190 -8.63965 -181 c 1
 82.3604 -101 105.36 -49 134.36 100 c 0
 175.36 313 l 2
 176.36 318 177.36 331 177.36 336 c 0
 177.36 345 178.36 360 167.36 360 c 0
 145.36 360 100.36 315 94.3604 307 c 1
 91.3604 307 75.3604 325 75.3604 331 c 1
 87.3604 361 187.328 449 249.36 449 c 3xf0
294.36 689 m 0
 328.36 689 352.36 661 352.36 626 c 0
 352.36 582 316.36 541 274.36 541 c 0
 240.36 541 216.36 569 216.36 604 c 0xe8
 216.36 648 252.36 689 294.36 689 c 0
EndSplineSet
EndChar

StartChar: k
Encoding: 107 107 75
Width: 462
VWidth: 0
Flags: W
HStem: -4 71<284.26 395.648> 376 73<246.783 347.76> 625 31<59.8611 109.475> 675 20G<217.26 235.76>
VStem: 110.76 132<556.579 679> 313.76 125<288.56 371.32>
LayerCount: 2
Fore
SplineSet
318.76 449 m 3
 376.76 449 438.76 416 438.76 357 c 27
 438.76 268 334.76 207 274.76 200 c 1
 292.76 154 339.76 67 370.76 67 c 0
 396.76 67 438.76 108 446.76 119 c 1
 449.76 119 471.76 101 471.76 96 c 1
 461.76 69 397.76 -4 322.76 -4 c 0
 245.76 -4 179.76 139 150.76 196 c 1
 135.76 121 112.76 0 112.76 0 c 17
 99.7598 -6 68.7598 -8 57.7598 -8 c 0
 46.7598 -8 8.75977 -3 -3.24023 0 c 1
 101.76 544 l 18
 107.76 575 110.76 597 110.76 603 c 0
 110.76 624 81.7598 625 61.7598 625 c 0
 59.7598 625 58.7598 629 58.7598 633 c 8
 58.7598 643 64.7598 653 67.7598 656 c 1
 102.76 656 201.76 682 232.76 695 c 1
 238.76 692 242.76 685 242.76 673 c 0
 242.76 659 228.76 602 225.76 584 c 2
 180.76 346 l 17
 192.76 372 234.76 449 318.76 449 c 3
276.76 376 m 3
 217.76 376 163.76 277 163.76 253 c 3
 163.76 245 177.76 241 196.76 241 c 0
 204.76 241 246.76 242 276.76 262 c 0
 300.76 278 313.76 307 313.76 333 c 3
 313.76 351 299.76 376 276.76 376 c 3
EndSplineSet
EndChar

StartChar: l
Encoding: 108 108 76
Width: 241
VWidth: 0
Flags: W
HStem: -8 89<44.4004 151.4> 625 31<55.5017 105.115> 675 20G<212.9 231.4>
VStem: 5.40039 125<27.4375 183.602> 106.4 132<559.575 679>
LayerCount: 2
Fore
SplineSet
15.4004 123 m 2xf0
 97.4004 544 l 2
 103.4 575 106.4 597 106.4 603 c 0
 106.4 624 77.4004 625 57.4004 625 c 0
 55.4004 625 54.4004 629 54.4004 633 c 8
 54.4004 643 60.4004 653 63.4004 656 c 1
 98.4004 656 197.4 682 228.4 695 c 1
 234.4 692 238.4 685 238.4 673 c 0xe8
 238.4 659 224.968 602.28 221.4 584 c 2
 132.4 128 l 2
 131.836 125.11 130.4 110 130.4 105 c 0
 130.4 96 129.4 81 140.4 81 c 0
 162.4 81 207.4 126 213.4 134 c 1
 216.4 134 232.4 116 232.4 110 c 1
 220.4 80 120.432 -8 58.4004 -8 c 3
 30.4004 -8 5.40039 10 5.40039 49 c 3
 5.40039 65 13.4004 115 15.4004 123 c 2xf0
EndSplineSet
EndChar

StartChar: m
Encoding: 109 109 77
Width: 748
VWidth: 0
Flags: W
HStem: 341 108<286.463 374.257 515.515 604.059>
VStem: 104.16 125<256.352 413.562> 327.16 119<238.859 368.673> 513.16 125<27.4375 185.82> 556.16 120<200.188 340.499>
LayerCount: 2
Fore
SplineSet
360.16 449 m 0xe8
 423.16 449 446.16 397 446.16 340 c 0
 446.16 330.452 445.173 319.392 443.657 307.881 c 1
 475.951 369.059 544.411 449 590.16 449 c 0
 653.16 449 676.16 397 676.16 340 c 0xe8
 676.16 308 665.16 259 660.16 233 c 2
 640.16 128 l 2
 639.16 125 638.16 110 638.16 105 c 0
 638.16 96 637.16 81 648.16 81 c 0
 670.16 81 715.16 126 721.16 134 c 1
 724.16 134 740.16 116 740.16 110 c 1
 728.16 80 628.192 -8 566.16 -8 c 3
 538.16 -8 513.16 10 513.16 49 c 3xf0
 513.16 65 521.16 114 523.16 123 c 2
 546.468 242 l 2
 548.816 253.997 556.16 290 556.16 300 c 0
 557.16 327 549.16 341 527.16 341 c 0
 491.16 341 424.16 184 408.16 105 c 2
 387.16 0 l 1
 377.16 -3 351.16 -6 328.16 -6 c 0
 305.16 -6 290.16 -6 269.162 0 c 1
 317.468 242 l 2
 320.16 254 327.16 288 327.16 300 c 0
 327.16 327 319.16 341 297.16 341 c 0
 261.16 341 194.16 184 178.16 105 c 2
 157.16 0 l 1
 147.16 -3 112.16 -6 101.16 -6 c 0
 90.1602 -6 54.1602 -3 42.1602 0 c 1
 102.16 313 l 2
 103.12 318.008 104.16 331 104.16 336 c 0
 104.16 345 105.16 360 94.1602 360 c 0
 72.1602 360 27.1602 315 21.1602 307 c 1
 18.1602 307 2.16016 325 2.16016 331 c 1
 14.1602 361 114.128 449 176.16 449 c 0
 204.16 449 229.16 431 229.16 392 c 0
 229.16 376 223.981 346.335 221.16 328 c 2
 217.16 302 l 1
 247.16 364 312.16 449 360.16 449 c 0xe8
EndSplineSet
EndChar

StartChar: n
Encoding: 110 110 78
Width: 513
VWidth: 0
Flags: W
HStem: -8 89<322.16 429.16> 341 108<286.463 373.844> 360 89<83.1602 190.16>
VStem: 104.16 125<256.135 413.562> 283.16 125<27.4375 185.82> 326.16 120<199.711 368.749>
LayerCount: 2
Fore
SplineSet
176.16 449 m 3xb4
 204.16 449 229.16 431 229.16 392 c 3
 229.16 376 223.981 346.335 221.16 328 c 2
 221.16 328 217.16 301 217.16 302 c 1
 247.16 364 312.16 449 360.16 449 c 3
 423.16 449 446.16 397 446.16 340 c 0xd4
 446.16 308 435.16 259 430.16 233 c 2
 410.16 128 l 2
 409.16 125 408.16 110 408.16 105 c 0
 408.16 96 407.16 81 418.16 81 c 0
 440.16 81 485.16 126 491.16 134 c 1
 494.16 134 510.16 116 510.16 110 c 1
 498.16 80 398.192 -8 336.16 -8 c 3
 308.16 -8 283.16 10 283.16 49 c 3xd8
 283.16 65 291.16 114 293.16 123 c 2
 316.468 242 l 2
 318.816 253.997 326.16 290 326.16 300 c 0
 326.16 327 319.16 341 297.16 341 c 0xd4
 261.16 341 194.16 184 178.16 105 c 10
 157.16 0 l 17
 147.16 -3 112.16 -6 101.16 -6 c 0
 90.1602 -6 54.1602 -3 42.1602 0 c 1
 102.16 313 l 2
 103.16 318 104.16 331 104.16 336 c 0
 104.16 345 105.16 360 94.1602 360 c 0
 72.1602 360 27.1602 315 21.1602 307 c 1
 18.1602 307 2.16016 325 2.16016 331 c 1
 14.1602 361 114.128 449 176.16 449 c 3xb4
EndSplineSet
EndChar

StartChar: o
Encoding: 111 111 79
Width: 407
Flags: W
HStem: -6 53<139.898 204.034> 396 53<204.504 265.337>
VStem: 8.63965 124<56.5381 265.054> 272.64 124<173.213 386.795>
LayerCount: 2
Fore
SplineSet
239.64 396 m 0
 179.64 395 130.64 232 132.64 110 c 0
 133.64 77 141.64 47 165.64 47 c 0
 233.64 48 274.64 228 272.64 332 c 0
 271.64 364 264.64 396 239.64 396 c 0
249.64 449 m 3
 359.64 449 396.64 376 396.64 287 c 3
 396.64 137 289.64 -6 155.64 -6 c 3
 45.6396 -6 8.63965 67 8.63965 156 c 3
 8.63965 291 115.64 449 249.64 449 c 3
EndSplineSet
EndChar

StartChar: p
Encoding: 112 112 80
Width: 473
Flags: W
HStem: -221 34<-42.8457 7.72299> -211 34<143.463 201.582> -6 60<180.843 249.828> 372 77<280.239 385.8>
VStem: 335.8 123<189.167 367.725>
LayerCount: 2
Fore
SplineSet
300.8 372 m 3x38
 266.8 372 234.8 324 221.106 299 c 9
 182.8 102 l 2
 176.211 68.1143 182.8 54 209.8 54 c 3
 265.8 54 335.8 192 335.8 316 c 3
 335.8 341 322.8 372 300.8 372 c 3x38
347.8 449 m 0
 423.8 449 458.8 368 458.8 299 c 3
 458.8 135 311.8 -6 200.8 -6 c 3
 186.8 -6 170.8 0 164.327 6 c 9
 139.8 -116 l 18
 138.8 -123 137.8 -130 137.8 -137 c 0
 137.8 -148 141.139 -168.335 159.8 -173 c 0
 175.8 -177 190.8 -177 194.8 -177 c 3
 199.8 -177 201.8 -184 201.8 -189 c 27
 201.8 -198 199.8 -208 197.8 -211 c 1x78
 183.8 -211 100.821 -211.447 84.7998 -212 c 0
 55.7998 -213 25.7998 -214 -40.2002 -221 c 1
 -42.2002 -220 -43.2002 -215 -43.2002 -212 c 3
 -43.2002 -205 -42.2002 -190 -38.2002 -187 c 1xb8
 -21.2002 -186 1.7998 -180 10.7998 -169 c 0
 15.7998 -162 18.7998 -142 22.7998 -122 c 2
 86.915 204 l 17
 82.915 202 48.915 173 48.915 173 c 17
 44.7998 178 37.7998 190 37.7998 202 c 3
 37.7998 206 39.127 212.653 44.7998 218 c 2
 44.7998 218 78.7998 251 98.9141 269 c 9
 132.8 443 l 17
 152.8 447 171.8 449 190.8 449 c 0
 209.8 449 229.8 447 248.8 443 c 9
 234.855 379 l 17
 248.855 394 279.8 449 347.8 449 c 0
EndSplineSet
EndChar

StartChar: q
Encoding: 113 113 81
Width: 416
VWidth: 0
Flags: W
HStem: -221 21G<117.56 137.06> -210 34<312.533 366.523> -8 77<89.0596 182.557> 385 64<219.123 335.56>
VStem: 7.55957 123<70.0866 239.799>
LayerCount: 2
Fore
SplineSet
261.56 385 m 3x38
 192.56 385 130.56 222 130.56 128 c 0
 130.56 84 142.56 69 158.56 69 c 0
 204.56 69 252.429 187.137 264.56 246 c 2
 291.558 377 l 17
 287.56 384 269.56 385 261.56 385 c 3x38
319.56 449 m 3
 351.56 449 380.56 446 414.56 427 c 1
 413.56 423 311.56 -111 311.56 -111 c 2
 309.56 -120 308.56 -128 308.56 -134 c 0
 308.56 -165 316.56 -176 360.56 -176 c 0
 364.56 -176 366.56 -190 366.56 -194 c 3
 366.56 -202 364.56 -208 362.56 -211 c 1
 348.56 -211 326.56 -210 313.56 -210 c 0x78
 255.56 -210 155.56 -217 118.56 -221 c 1xb8
 116.56 -218 114.56 -210 114.56 -207 c 3
 114.56 -200 115.56 -187 119.56 -187 c 0
 135.56 -187 180.56 -182 193.56 -116 c 2
 229.56 66 l 17
 214.56 36 168.56 -8 126.56 -8 c 3
 51.5596 -8 7.55957 51 7.55957 134 c 0
 7.55957 284 149.56 449 319.56 449 c 3
EndSplineSet
EndChar

StartChar: r
Encoding: 114 114 82
Width: 437
VWidth: 0
Flags: W
HStem: 354 95<294.156 375.973>
VStem: 104.16 125<252.244 413.562>
LayerCount: 2
Fore
SplineSet
176.16 449 m 3
 204.16 449 229.16 431 229.16 392 c 1
 229.16 379.671 228.16 357 224.496 338 c 2
 224.496 338 216.513 297.517 215.634 294 c 1
 250.16 374 304.16 449 376.16 449 c 3
 406.16 449 431.16 424 442.16 410 c 1
 442.16 366 427.16 310 381.16 310 c 27
 349.16 310 342.16 354 311.16 354 c 3
 277.16 354 198.16 201 175.16 89 c 2
 157.16 0 l 1
 138.16 -4 119.16 -6 100.16 -6 c 0
 80.1602 -6 61.1602 -4 42.1602 0 c 1
 102.16 313 l 2
 103.16 318 104.16 331 104.16 336 c 0
 104.16 345 105.16 360 94.1602 360 c 0
 72.1602 360 27.1602 315 21.1602 307 c 1
 18.1602 307 2.16016 325 2.16016 331 c 1
 14.1602 361 114.128 449 176.16 449 c 3
EndSplineSet
EndChar

StartChar: s
Encoding: 115 115 83
Width: 325
Flags: W
HStem: -8 49<102.57 167.099> 400 49<157.061 223.323>
VStem: 46.0801 108<303.66 386.41> 170.08 108<55.1853 137.34>
LayerCount: 2
Fore
SplineSet
214.08 449 m 3
 262.08 449 292.08 437 312.08 420 c 1
 320.08 410 323.08 391 323.08 383 c 3
 323.08 346 307.08 323 283.08 323 c 3
 232.08 323 236.08 400 189.08 400 c 3
 164.08 400 154.08 388 154.08 357 c 0
 154.08 300 278.08 195 278.08 118 c 0
 278.08 44 199.08 -8 110.08 -8 c 3
 67.0801 -8 30.0801 7 10.0801 24 c 1
 5.08008 30 1.08008 50 1.08008 58 c 3
 1.08008 95 17.0801 118 41.0801 118 c 3
 92.0801 118 94.0801 41 135.08 41 c 3
 160.08 41 170.08 53 170.08 84 c 0
 170.08 141 46.0801 246 46.0801 323 c 0
 46.0801 398 125.08 449 214.08 449 c 3
EndSplineSet
EndChar

StartChar: t
Encoding: 116 116 84
Width: 289
VWidth: 0
Flags: W
HStem: -8 89<61.5195 168.52> 370 59<24.763 80.5195 207.52 301.577>
VStem: 22.5195 125<27.4375 184.734>
LayerCount: 2
Fore
SplineSet
111.52 527 m 6
 113.52 536 171.52 540 199.52 540 c 0
 216.52 540 224.52 538 230.52 536 c 9
 207.52 429 l 1
 240.52 429 294.52 429 294.52 429 c 2
 301.52 429 304.52 420 304.52 412 c 0
 304.52 398 298.52 379 292.52 370 c 1
 196.52 370 l 1
 149.52 128 l 2
 148.52 125 147.52 110 147.52 105 c 0
 147.52 96 146.52 81 157.52 81 c 0
 179.52 81 224.52 126 230.52 134 c 1
 233.52 134 249.52 116 249.52 110 c 1
 237.52 80 137.552 -8 75.5195 -8 c 3
 47.5195 -8 22.5195 10 22.5195 49 c 3
 22.5195 65 30.5195 115 32.5195 123 c 2
 80.5195 370 l 1
 24.5195 370 l 2
 22.5195 370 20.5195 377 20.5195 382 c 0
 20.5195 397 28.5195 423 34.5195 429 c 9
 92.5195 429 l 17
 111.52 527 l 6
EndSplineSet
EndChar

StartChar: u
Encoding: 117 117 85
Width: 513
VWidth: 0
Flags: W
HStem: -8 108<137.396 224.777> -8 89<321.08 428.08> 360 89<82.0801 189.08>
VStem: 65.0801 120<72.2506 241.289> 103.08 125<254.359 413.562> 282.08 125<27.4375 184.865>
LayerCount: 2
Fore
SplineSet
175.08 449 m 3xac
 203.08 449 228.08 431 228.08 392 c 3xac
 228.08 376 220.08 327 218.08 318 c 2
 195.08 199 l 2
 193.08 187 185.08 153 185.08 141 c 0
 185.08 114 192.08 100 214.08 100 c 0xb4
 250.08 100 317.08 257 333.08 336 c 10
 354.08 441 l 17
 364.08 444 399.08 447 410.08 447 c 0
 421.08 447 457.08 444 469.08 441 c 1
 409.08 128 l 2
 408.08 123 407.08 110 407.08 105 c 0
 407.08 96 406.08 81 417.08 81 c 0
 439.08 81 484.08 126 490.08 134 c 1
 493.08 134 509.08 116 509.08 110 c 1
 497.08 80 397.08 -8 335.08 -8 c 3x74
 307.08 -8 282.08 10 282.08 49 c 3
 282.08 65 287.08 95 290.08 113 c 2
 290.08 113 294.08 140 294.08 139 c 1
 264.08 77 199.08 -8 151.08 -8 c 3
 88.0801 -8 65.0801 44 65.0801 101 c 0xb4
 65.0801 133 76.0801 182 81.0801 208 c 2
 101.08 313 l 2
 102.08 316 103.08 331 103.08 336 c 0
 103.08 345 104.08 360 93.0801 360 c 0
 71.0801 360 26.0801 315 20.0801 307 c 1
 17.0801 307 1.08008 325 1.08008 331 c 1
 13.0801 361 113.08 449 175.08 449 c 3xac
EndSplineSet
EndChar

StartChar: v
Encoding: 118 118 86
Width: 443
VWidth: 0
Flags: W
HStem: -4 92<134.58 225.375> 360 89<82.0801 189.08>
VStem: 62.0801 123<57.6575 227.836> 103.08 125<255.352 413.562> 355.08 83<265.448 388.15>
LayerCount: 2
Fore
SplineSet
175.08 449 m 0xd8
 203.08 449 228.08 431 228.08 392 c 0xd8
 228.08 376 224.08 346 220.08 328 c 2
 220.08 328 200.326 228 188.08 165 c 0
 186.137 155 185.08 137.168 185.08 128 c 3
 185.08 115.775 188.08 88 211.08 88 c 0
 266.08 88 355.08 202 355.08 288 c 0
 355.08 340 319.08 340 319.08 390 c 0
 319.08 428 352.08 449 390.08 449 c 0
 405.08 449 419.08 445 428.08 438 c 1
 434.08 428 438.08 396.3 438.08 380 c 0
 438.08 196 260.08 -4 161.08 -4 c 0
 108.08 -4 62.0801 27 62.0801 89 c 3xe8
 62.0801 99 63.5977 123.087 67.0801 141 c 0
 80.1035 208 101.08 313 101.08 313 c 2
 102.08 318 103.08 331 103.08 336 c 0
 103.08 345 104.08 360 93.0801 360 c 0
 71.0801 360 26.0801 315 20.0801 307 c 1
 17.0801 307 1.08008 325 1.08008 331 c 1
 13.0801 361 113.048 449 175.08 449 c 0xd8
EndSplineSet
EndChar

StartChar: w
Encoding: 119 119 87
Width: 686
VWidth: 0
Flags: W
HStem: -4 92<134.58 226.656 377.953 468.375> 429 20G<144.064 189.08 380.58 433.08 615.08 639.58>
VStem: 62.0801 123<57.6575 227.836> 103.08 125<255.352 413.562> 598.08 83<265.448 388.15>
LayerCount: 2
Fore
SplineSet
175.08 449 m 4xd8
 203.08 449 228.08 431 228.08 392 c 0xd8
 228.08 376 224.08 346 220.08 328 c 2
 220.08 328 200.326 228 188.08 165 c 0
 186.137 155 185.08 137.168 185.08 128 c 3
 185.08 115.775 188.08 88 211.08 88 c 3
 243.798 88 280.854 109.991 312.08 165 c 1
 329.08 328 350.08 449 411.08 449 c 0
 455.08 449 466.08 419 466.08 379 c 0
 466.08 336 443.08 239 428.08 182 c 1
 427.08 175 426.08 159 426.08 148 c 0
 426.08 101 431.08 88 454.08 88 c 0
 509.08 88 598.08 202 598.08 288 c 0
 598.08 335 561.08 345 561.08 395 c 0
 561.08 433 600.08 449 630.08 449 c 0
 649.08 449 662.08 446 671.08 438 c 1
 677.08 428 681.08 396.3 681.08 380 c 0
 681.08 196 503.08 -4 404.08 -4 c 0
 351.826 -4 305.24 22.7334 304.08 83 c 1
 253.532 28.123 201.803 -4 161.08 -4 c 3
 108.08 -4 62.0801 27 62.0801 89 c 3xe8
 62.0801 99 63.5977 123.087 67.0801 141 c 0
 80.1035 208 101.08 313 101.08 313 c 2
 102.08 318 103.08 331 103.08 336 c 0
 103.08 345 104.08 360 93.0801 360 c 0
 71.0801 360 26.0801 315 20.0801 307 c 1
 17.0801 307 1.08008 325 1.08008 331 c 1
 13.0801 361 113.048 449 175.08 449 c 4xd8
EndSplineSet
EndChar

StartChar: x
Encoding: 120 120 88
Width: 483
VWidth: 0
Flags: W
HStem: -6 86<-7.16359 98.4753 245.72 352.72> 363 86<95.7197 202.72 333.75 439.603>
LayerCount: 2
Fore
SplineSet
205 449 m 0
 233 449 250 411 261 371 c 2
 276 318 l 1
 314 385 l 2
 337 421 368 449 409 449 c 0
 444 449 465 440 480 431 c 1
 484 424 487 412 487 402 c 0
 487 375 472 345 434 345 c 0
 401 345 397 363 375 363 c 0
 363 363 351 358 344 346 c 2
 295 251 l 1
 334 112 l 2
 337 103 347 84 358 84 c 0
 380 84 425 129 431 137 c 1
 434 137 450 119 450 113 c 1
 438 83 338.032 -5 276 -5 c 0
 248 -5 231 34 220 74 c 2
 201 142 l 1
 151 58 l 2
 128 23 97 -6 56 -6 c 0
 21 -6 0 3 -15 12 c 1
 -19 19 -22 31 -22 41 c 0
 -22 68 -7 98 31 98 c 0
 64 98 68 80 90 80 c 0
 102 80 114 85 121 97 c 2
 183 207 l 1
 147 332 l 2
 144 341 134 360 123 360 c 0
 101 360 56 315 50 307 c 1
 47 307 31 325 31 331 c 1
 43 361 142.968 449 205 449 c 0
EndSplineSet
EndChar

StartChar: y
Encoding: 121 121 89
Width: 509
VWidth: 0
Flags: W
HStem: -218 86<-2.27577 127.63> 360 89<125.8 260.3>
VStem: 415.8 85<251.062 416.128>
LayerCount: 2
Fore
SplineSet
218.8 449 m 0
 301.8 449 328.8 84 330.8 66 c 1
 339.8 77 415.8 201 415.8 273 c 3
 415.8 313 393.8 367 379.8 389 c 1
 379.8 419 410.8 449 444.8 449 c 27
 475.8 449 500.8 425 500.8 394 c 27
 500.8 96 205.8 -218 43.7998 -218 c 3
 13.7998 -218 -16.2002 -205 -16.2002 -165 c 3
 -16.2002 -150 -9.2002 -132 1.7998 -120 c 1
 27.7998 -127 53.7998 -132 77.7998 -132 c 3
 147.8 -132 174.8 -104 192.8 -81 c 0
 208.244 -61.2656 213.8 -31 213.8 8 c 0
 213.8 80 195.8 208 160.8 332 c 0
 157.8 342.63 150.8 360 136.8 360 c 0
 114.8 360 69.7998 315 63.7998 307 c 1
 60.7998 307 44.7998 325 44.7998 331 c 1
 56.7998 361 156.768 449 218.8 449 c 0
EndSplineSet
EndChar

StartChar: z
Encoding: 122 122 90
Width: 431
VWidth: 0
Flags: W
HStem: -4 101<163.702 329.025> 20 99<77.1602 241.451> 328 99<161.225 362.999> 350 99<121.684 270.861>
LayerCount: 2
Back
SplineSet
112 80 m 22x20
 104 72 138 97 157 97 c 31x60
 213 97 259 61 295 61 c 7
 326 61 357 120 364 129 c 5
 371 136 378 118 379 110 c 5
 372 90 321 0 270 0 c 7x80
 239 0 169 26 104 26 c 31x40
 74 26 61 0 31 0 c 31x80
 20 0 18 15 18 26 c 4
 18 39 345 356 345 356 c 22
 353 364 320 338 301 338 c 31x60
 245 338 199 374 163 374 c 7
 132 374 101 315 94 306 c 5
 86 298 80 317 79 326 c 5
 86 346 137 435 188 435 c 7x10
 219 435 289 410 354 410 c 31x20
 384 410 397 435 427 435 c 31x10
 438 435 440 421 440 410 c 4
 440 397 112 80 112 80 c 22x20
EndSplineSet
Fore
SplineSet
169.96 449 m 3x10
 239.96 449 277.96 427 347.96 427 c 27x20
 377.96 427 392.96 449 422.96 449 c 27
 437.96 449 441.96 433 441.96 415 c 9
 137.96 108 l 25
 155.96 112 165.96 119 184.96 119 c 27x50
 233.96 119 258.96 97 307.96 97 c 27x80
 341.96 97 367.96 147 378.96 147 c 3
 388.96 147 395.96 131 399.96 119 c 1x40
 383.96 86 340.96 -4 271.96 -4 c 27x80
 202.96 -4 164.96 20 95.96 20 c 27x40
 59.96 20 30.96 -4 7.95996 -4 c 3
 -6.04004 -4 -13.04 17 -14.04 23 c 9
 290.96 337 l 17
 277.96 331 268.96 328 253.96 328 c 27xa0
 210.96 328 195.96 350 146.96 350 c 3
 112.96 350 87.96 299 73.96 299 c 3
 65.96 299 53.96 314 48.96 324 c 1
 66.96 368 120.96 449 169.96 449 c 3x10
EndSplineSet
EndChar

StartChar: braceleft
Encoding: 123 123 91
Width: 354
Flags: W
HStem: -125 33<167.937 196.977> 717 33<314.522 361.95>
VStem: 32 105<-43.0911 86.4889> 82 109<149.086 273.663>
LayerCount: 2
Fore
SplineSet
32 31 m 0xe0
 32 92 82 189 82 235 c 0xd0
 82 274 48 279 15 291 c 5
 14 294 15 317 23 328 c 5
 158 362 104 428 132 572 c 4
 154 686 283 750 362 750 c 4
 364 750 364 748 364 746 c 0
 364 738 359 718 353 717 c 4
 324 715 268 678 255 613 c 4
 241 540 252 518 236 434 c 4
 223 369 170 308 137 308 c 5xe0
 165 308 191 268 191 217 c 0xd0
 191 143 137 58 137 -6 c 0
 137 -57 172 -90 196 -92 c 4
 204 -94 198 -125 192 -125 c 4
 120 -125 32 -59 32 31 c 0xe0
EndSplineSet
Validated: 33
EndChar

StartChar: bar
Encoding: 124 124 92
Width: 242
Flags: W
VStem: -5 253
LayerCount: 2
Fore
SplineSet
165 757 m 5
 183 773 211 776 224 776 c 4
 232 776 249 773 248 766 c 6
 78 -106 l 21
 67 -115 29 -126 6 -126 c 4
 -1 -126 -6 -119 -5 -115 c 6
 -5 -115 95 418 165 757 c 5
EndSplineSet
Validated: 1
EndChar

StartChar: braceright
Encoding: 125 125 93
Width: 346
Flags: W
HStem: -125 33<-12.2484 33.4367> 717 33<154.023 186.719>
VStem: 158 110<346.57 474.162> 214 109<542.575 675.413>
LayerCount: 2
Fore
SplineSet
214 637 m 0xd0
 214 687 179 715 155 717 c 0
 147 719 153 750 159 750 c 0
 231 750 323 697 323 602 c 0xd0
 323 538 268 437 268 389 c 0
 268 350 300 338 334 328 c 1
 335 326 335 324 335 321 c 0
 335 318 334 300 327 291 c 1
 285 278 244 272 234 219 c 0
 224 167 229 117 218 58 c 0
 198 -46 68 -125 -11 -125 c 0
 -13 -125 -14 -122 -14 -119 c 0
 -14 -112 -9 -93 -3 -92 c 0
 26 -90 84 -47 97 18 c 0
 111 91 98 103 114 187 c 0
 127 252 179 308 212 308 c 1
 184 308 158 351 158 403 c 0xe0
 158 476 214 576 214 637 c 0xd0
EndSplineSet
Validated: 33
EndChar

StartChar: asciitilde
Encoding: 126 126 94
Width: 500
Flags: W
HStem: 245 61<282.229 416.173> 298 61<90.4009 219.942>
LayerCount: 2
Fore
SplineSet
166 359 m 0x40
 253 359 288 306 375 306 c 0
 411 306 437 327 468 350 c 1
 470 349 472 343 472 335 c 0
 472 289 395 245 337 245 c 0x80
 249 245 214 298 126 298 c 0
 90 298 64 277 33 254 c 1
 31 255 29 261 29 269 c 0
 29 318 125 359 166 359 c 0x40
EndSplineSet
Validated: 1
EndChar

StartChar: exclamdown
Encoding: 161 161 96
Width: 241
Flags: W
HStem: 293 150<126.002 199.453>
VStem: -4 121<-214.285 -95.7977> 91 140<324.997 408.063>
LayerCount: 2
Fore
SplineSet
-4 -187 m 4xc0
 -4 -149 100 184 112 220 c 0
 116 232 123 242 128 242 c 0
 141 242 152 231 152 213 c 0
 152 181 122 -141 117 -170 c 0
 109 -213 75 -238 46 -238 c 0
 17 -238 -4 -219 -4 -187 c 4xc0
91 351 m 0xa0
 91 401 138 443 178 443 c 0
 210 443 231 417 231 383 c 0
 231 334 188 293 145 293 c 0
 114 293 91 317 91 351 c 0xa0
EndSplineSet
Validated: 1
EndChar

StartChar: cent
Encoding: 162 162 97
Width: 371
Flags: HW
HStem: -6 74<142.433 264.884> 394 55<243.309 311.222>
VStem: 49 126<85.7263 267.649>
LayerCount: 2
Back
SplineSet
197 -92 m 1
 466 642 l 1
140 -92 m 1
 409 642 l 1
EndSplineSet
Fore
SplineSet
292 449 m 0
 345 449 382 429 404 404 c 1
 407 395 410.999 384 410.999 371 c 0
 410.999 340 394 310 364 310 c 0
 313 310 327 394 281 394 c 0
 226 394 175 267.153 175 169 c 0
 175 112 188 68 239 68 c 0
 287 68 334 118 340 126 c 1
 343 126 359 108 359 102 c 1
 347 72 264 -6 194 -6 c 0
 92 -6 49 60 49 156 c 0
 49 308 166 449 292 449 c 0
EndSplineSet
EndChar

StartChar: sterling
Encoding: 163 163 98
Width: 489
Flags: W
HStem: -5 87<267.325 362.535> 24 87<101.562 247.279> 301 57<49.5729 125.997 234.001 393.466> 585 57<289.638 404.095>
VStem: 126 108<199.844 300.999 358.001 489.03>
LayerCount: 2
Fore
SplineSet
381 642 m 27x78
 427 642 484 631 494 607 c 1
 484 556 459 524 427 524 c 3
 383 524 388 585 350 585 c 27
 281 585 251 523 237 449 c 0
 233 427 233 385 234 361 c 0
 234 360 234 358 237 358 c 0
 296 358 388 358 388 358 c 2
 394 358 396 350 396 343 c 27
 396 326 391 311 381 301 c 1
 381 301 289 301 238 301 c 0
 236 301 234 300 234 298 c 16
 234 286 230 262 227 248 c 8
 213 182 180 139 144 96 c 1
 164 108 203 111 225 111 c 3x78
 275 111 309 82 338 82 c 0
 381 82 400 106 431 139 c 1
 436 139 446 134 446 124 c 0
 446 122 446 119 445 118 c 0
 425 79 370 -5 304 -5 c 3xb8
 244 -5 180 24 134 24 c 3
 77 24 53 4 29 -7 c 1
 8 -2 0 12 0 20 c 3
 0 24 2 24 5 26 c 0
 71 78 108 128 119 230 c 0
 121 251 125 280 126 297 c 8
 126 299 124 301 122 301 c 0
 94 301 79 301 50 301 c 1
 48 306 47 312 47 319 c 0
 47 331 54 358 65 358 c 2
 65 358 103 358 124 358 c 0
 126 358 127 360 127 362 c 16
 126 387 132 428 136 447 c 0
 160 569 259 642 381 642 c 27x78
EndSplineSet
Validated: 33
EndChar

StartChar: currency
Encoding: 164 164 99
Width: 475
Flags: W
HStem: 119 45<178.976 264.169> 452 45<215.987 301.951>
VStem: 56 109<190.595 360.608> 316 110<253.559 427.361>
LayerCount: 2
Fore
SplineSet
259 452 m 11
 187 452 165 308 165 248 c 0
 165 202 178 164 221 164 c 11
 293 164 316 304 316 367 c 0
 316 414 303 452 259 452 c 11
278 497 m 0
 318 497 352 484 377 462 c 1
 434 510 l 2
 435 511 437 512 438 512 c 0
 449 512 464 483 465 462 c 1
 411 416 l 1
 420 395 426 372 426 346 c 0
 426 277 388 219 361 190 c 1
 394 142 l 2
 395 141 395 140 395 139 c 0
 395 128 362 103 341 98 c 1
 308 148 l 1
 277 130 240 119 204 119 c 0
 162 119 128 133 102 157 c 1
 44 108 l 2
 43 107 41 106 40 106 c 0
 29 106 13 135 12 156 c 1
 69 204 l 1
 61 224 56 245 56 269 c 0
 56 337 94 395 120 424 c 1
 85 476 l 2
 84 477 84 478 84 479 c 0
 84 490 117 515 138 520 c 1
 173 467 l 1
 205 486 242 497 278 497 c 0
EndSplineSet
Validated: 1
EndChar

StartChar: yen
Encoding: 165 165 100
Width: 627
Flags: W
HStem: -4 34<52.08 107.672 269.868 309.716> 114 53<40.2851 136 277 379.574> 217 53<58.585 156 296 399.574> 628 34<13.8602 60.3394 254.678 305.341 387.364 452.149 568.625 629.988>
LayerCount: 2
Fore
SplineSet
50 167 m 13
 146 167 l 1
 156 217 l 1
 65 217 l 6
 58 217 56 226 56 232 c 4
 56 243 62 260 68 270 c 13
 166 270 l 1
 166 270 172 288 172 300 c 0
 172 303 171 308 170 314 c 2
 102 546 l 2
 91 583 77 604 61 616 c 0
 47 626 27 628 16 628 c 0
 14 628 13 635 13 638 c 0
 13 645 17 659 21 662 c 1
 66 660 107 656 153 656 c 0
 199 656 269 660 307 662 c 1
 307 661 307 659 307 657 c 0
 307 649 302 628 298 628 c 0
 289 628 249 621 249 598 c 0
 249 595 252 585 255 576 c 2
 307 422 l 2
 308 420 309 419 310 419 c 0
 312 419 316 422 317 424 c 2
 317 424 455 579 455 604 c 0
 455 622 413 628 388 628 c 0
 386 628 386 630 386 634 c 0
 386 643 390 659 394 662 c 1
 428 660 487 656 521 656 c 0
 569 656 595 660 633 662 c 1
 633 652 631 629 626 629 c 0
 619 629 559 613 540 594 c 0
 527 581 308 336 300 292 c 2
 296 270 l 1
 394 270 l 6
 399 270 402 262 402 256 c 4
 402 240 396 226 386 217 c 5
 286 217 l 1
 277 167 l 1
 374 167 l 6
 379 167 382 159 382 153 c 4
 382 137 376 123 366 114 c 5
 267 114 l 1
 264 96 262 83 262 59 c 0
 262 43 302 30 309 30 c 0
 310 30 311 28 311 25 c 0
 311 17 308 1 305 -4 c 1
 268 -2 234 2 193 2 c 0
 150 2 95 -2 52 -4 c 1
 51 -3 51 -1 51 2 c 0
 51 12 55 30 57 30 c 0
 68 30 109 42 117 55 c 0
 124 67 131 93 136 114 c 1
 47 114 l 6
 40 114 38 123 38 129 c 4
 38 140 43 158 50 167 c 13
EndSplineSet
Validated: 1
EndChar

StartChar: brokenbar
Encoding: 166 166 101
Width: 240
Flags: W
VStem: -6 83<-116.283 -69.3523> 92 83<387.4 434.547>
LayerCount: 2
Back
SplineSet
262 399 m 6
 261 393 187 384 185 384 c 4
 178 384 179 386 180 390 c 6
 250 753 l 5
 250 753 250 759 256 761 c 4
 273 766 323 768 326 768 c 4
 334 768 333 762 333 762 c 5
 262 399 l 6
164 -106 m 6
 163 -112 89 -121 87 -121 c 4
 80 -121 80 -119 81 -115 c 6
 152 248 l 5
 152 248 152 254 158 256 c 4
 175 261 225 263 228 263 c 4
 236 263 235 257 235 257 c 5
 164 -106 l 6
EndSplineSet
Fore
SplineSet
163 752 m 1
 181 768 209 771 222 771 c 0
 230 771 247 767 246 760 c 2
 175 398 l 17
 164 389 126 377 103 377 c 0
 96 377 91 384 92 388 c 2
 92 388 93 413 163 752 c 1
65 248 m 1
 83 264 112 268 125 268 c 0
 133 268 149 264 148 257 c 2
 77 -106 l 17
 66 -115 28 -126 5 -126 c 0
 -2 -126 -7 -119 -6 -115 c 2
 -6 -115 -5 -91 65 248 c 1
EndSplineSet
Validated: 1
EndChar

StartChar: section
Encoding: 167 167 102
Width: 396
Flags: W
HStem: -41 58<84 196.036> 593 58<204.521 294.014>
VStem: 35 76<237.5 387.212> 122 62<478 570.377> 215 62<37.2146 130> 290 77<235.01 380>
LayerCount: 2
Fore
SplineSet
292 651 m 0
 338 651 367 628 373 613 c 1
 372 610 376 543 329 543 c 0
 301 543 296 593 254 593 c 0
 218 593 184 583 184 537 c 0
 184 450 367 442 367 318 c 0
 367 250 312 173 275 148 c 1
 276 143 277 135 277 125 c 0
 277 7 185 -41 107 -41 c 0
 61 -41 30 -19 24 -4 c 1
 24 7 35 65 68 65 c 0
 103 65 106 17 148 17 c 0
 173 17 215 28 215 73 c 0
 215 163 35 174 35 301 c 0
 35 321 42 408 124 463 c 1
 122 468 122 474 122 482 c 0
 122 593 208 651 292 651 c 0
111 359 m 0
 111 273 232 275 264 185 c 1
 281 201 290 216 290 244 c 0
 290 328 166 342 135 424 c 1
 116 410 111 378 111 359 c 0
EndSplineSet
Validated: 1
EndChar

StartChar: dieresis
Encoding: 168 168 103
Width: 386
VWidth: 0
Flags: W
HStem: 443 147<145.982 227.167 367.393 448.607>
VStem: 120 136<472.002 564.314> 340 136<470.686 562.998>
LayerCount: 2
Fore
SplineSet
418 590 m 4
 452 590 476 563 476 528 c 4
 476 484 440 443 398 443 c 4
 364 443 340 471 340 506 c 4
 340 550 376 590 418 590 c 4
198 592 m 4
 232 592 256 564 256 529 c 4
 256 485 220 445 178 445 c 4
 144 445 120 472 120 507 c 4
 120 551 156 592 198 592 c 4
EndSplineSet
Validated: 1
EndChar

StartChar: copyright
Encoding: 169 169 104
Width: 574
Flags: W
HStem: 69 44<163.953 340.087> 199 30<248.2 338.968> 451 30<279.834 386.733> 569 46<244.974 421.108>
VStem: 34 42<205.712 390.095> 162 66<240.974 390.816> 384 20<397.062 426.795> 509 43<289.388 479.584>
LayerCount: 2
Fore
SplineSet
321 481 m 0
 347 481 383 476 408 469 c 0
 409 469 409 466 409 462 c 0
 409 445 405 404 404 401 c 0
 403 397 399 397 396 397 c 27
 391 397 387 398 384 399 c 1
 383 415 372 451 317 451 c 0
 261 451 228 368 228 305 c 0
 228 263 244 229 286 229 c 0
 312 229 327 234 339 244 c 0
 353 256 364 271 365 272 c 0
 366 272 368 273 369 273 c 3
 373 273 379 272 381 268 c 1
 380 263 365 225 354 219 c 0
 328 205 298 199 262 199 c 0
 202 199 162 248 162 309 c 0
 162 388 230 481 321 481 c 0
337 569 m 0
 204 569 76 438 76 295 c 0
 76 191 146 113 248 113 c 0
 381 113 509 244 509 388 c 0
 509 492 439 569 337 569 c 0
346 615 m 0
 468 615 552 522 552 398 c 0
 552 225 398 69 239 69 c 0
 117 69 34 162 34 286 c 0
 34 459 187 615 346 615 c 0
EndSplineSet
Validated: 1
EndChar

StartChar: ordfeminine
Encoding: 170 170 105
Width: 369
VWidth: 0
Flags: W
HStem: 247 60<238.5 306.457> 247 51<81.5 163.724> 512 42<185.423 255>
VStem: 36 87<298.337 396.885>
LayerCount: 2
Fore
SplineSet
239 554 m 0x70
 271 554 313 544 320 539 c 9
 282 339 l 2
 281 335 280 328 280 325 c 0
 280 312 287 307 294 307 c 0
 305 307 326 346 328 346 c 0
 333 346 346 336 349 326 c 1
 341 306 306 247 251 247 c 3xb0
 226 247 213 259 204 285 c 0
 203 290 201 298 201 301 c 0
 201 302 201 302 200 302 c 0
 199 302 200 302 199 301 c 0
 180 280 143 247 106 247 c 3
 57 247 36 274 36 318 c 3
 36 404 149 554 239 554 c 0x70
213 512 m 0
 182 512 123 398 123 338 c 0
 123 320 126 298 139 298 c 3x70
 168 298 208 362 219 428 c 2
 229 485 l 2
 230 492 231 498 231 501 c 0
 231 505 230 512 213 512 c 0
EndSplineSet
Validated: 1
EndChar

StartChar: guillemotleft
Encoding: 171 171 106
Width: 475
Flags: W
LayerCount: 2
Fore
SplineSet
443 423 m 5
 448 422 471 411 471 399 c 4
 471 395 471 392 387 319 c 6
 305 248 l 5
 358 177 l 6
 396 128 412 108 412 99 c 4
 412 85 378 74 374 73 c 5
 373 75 320 132 202 227 c 4
 199 228 198 235 198 238 c 4
 198 247 202 259 211 268 c 5
 348 347 438 419 443 423 c 5
258 423 m 1
 263 422 286 411 286 399 c 0
 286 395 286 392 202 319 c 2
 120 248 l 1
 173 177 l 2
 211 128 227 108 227 99 c 0
 227 85 193 74 189 73 c 1
 188 75 135 131 17 227 c 0
 15 229 13 235 13 238 c 0
 13 247 18 260 26 268 c 1
 163 347 253 419 258 423 c 1
EndSplineSet
Validated: 1
EndChar

StartChar: logicalnot
Encoding: 172 172 107
Width: 510
Flags: W
HStem: 356 71<40.1075 398.75>
VStem: 365 68<155.69 199.437>
LayerCount: 2
Fore
SplineSet
53 427 m 2
 471 427 l 2
 477 427 482 426 480 416 c 2
 433 163 l 17
 420 156 401 153 381 153 c 27
 374 153 364 156 365 163 c 2
 401 346 l 2
 401 347 401 347 401 348 c 3
 401 352 399 356 393 356 c 2
 31 356 l 1
 31 356 26 356 28 366 c 1
 28 366 44 427 53 427 c 2
EndSplineSet
Validated: 1
EndChar

StartChar: registered
Encoding: 174 174 108
Width: 568
Flags: W
HStem: 136 44<168.953 345.087> 273 15<151.018 174.779 253.707 270.019 398.85 413.859> 399 26<274.009 282.62> 532 22<296.142 328.329> 540 15<202.587 221.711> 636 46<249.974 426.108>
VStem: 39 42<272.712 457.095> 334 65<437.963 531.605> 514 43<356.388 546.584>
LayerCount: 2
Back
SplineSet
360 425 m 6
 383.336 425 399.338 464.515 399.338 495.519 c 4
 399.338 515.533 392.67 532 377 532 c 4xec
 370 532 364 532 361 529 c 4
 360 528 356 523 356 521 c 4
 354 516 353 506 349 487 c 6
 340 441 l 6
 337 426 341 425 357 425 c 6
 360 425 l 6
EndSplineSet
Fore
SplineSet
308 532 m 3xf780
 304 532 299 531 296 529 c 0
 293 527 291 523 290 518 c 26
 275 439 l 2
 274 437 274 434 274 433 c 3
 274 424 286 425 290 425 c 3
 322 425 334 466 334 495 c 3
 334 523 325 532 308 532 c 3xf780
321 554 m 0
 351 554 399 542 399 497 c 0
 399 459 368 418 338 405 c 0
 337 404 336 404 336 403 c 3
 336 402 337 402 337 401 c 0
 346 377 355 358 363 342 c 0
 384 303 401 288 417 288 c 1
 417 282 415 276 414 274 c 1
 411 272 407 272 402 272 c 0
 334 272 318 308 302 341 c 0
 287 372 283 387 279 394 c 0
 277 398 275 399 271 399 c 0
 269 399 267 398 266 393 c 8
 260 364 251 318 251 318 c 2
 250 314 250 309 250 305 c 3
 250 304 250 299 252 297 c 0
 259 289 270 288 270 288 c 0
 271 288 271 288 271 286 c 3
 271 283 269 276 267 273 c 1
 252 274 229 277 211 277 c 0
 192 277 170 274 151 273 c 1
 150 274 151 278 151 280 c 0
 151 282 152 288 153 288 c 0
 158 288 176 294 179 299 c 0
 183 308 188 325 189 332 c 2
 220 496 l 2
 221 503 224 519 224 529 c 0
 224 534 208 540 203 540 c 0
 202 540 202 542 202 544 c 0
 202 546 204 554 205 555 c 1xef80
 223 554 246 553 266 553 c 0
 289 553 298 554 321 554 c 0
342 636 m 0
 209 636 81 505 81 362 c 0
 81 258 151 180 253 180 c 0
 386 180 514 311 514 455 c 0
 514 559 444 636 342 636 c 0
351 682 m 0
 473 682 557 589 557 465 c 0
 557 292 403 136 244 136 c 0
 122 136 39 229 39 353 c 0
 39 526 192 682 351 682 c 0
EndSplineSet
Validated: 1
EndChar

StartChar: macron
Encoding: 175 175 109
Width: 354
Flags: W
HStem: 530 69<160.267 403.137>
VStem: 153 260<533.328 598.519>
LayerCount: 2
Fore
SplineSet
175 599 m 9
 408 599 l 2
 412 599 413 590 413 585 c 0
 413 584 405 542 387 530 c 1
 304 530 160 530 160 530 c 2
 154 530 153 541 153 549 c 0
 153 562 163 589 175 599 c 9
EndSplineSet
Validated: 1
EndChar

StartChar: degree
Encoding: 176 176 110
Width: 215
Flags: W
HStem: 437 45<165.97 246.165> 590 44<179.057 259.03>
VStem: 119 43<486.095 572.466> 263 43<499.699 586.303>
LayerCount: 2
Fore
SplineSet
223 590 m 0
 186 590 162 554 162 523 c 0
 162 501 174 482 202 482 c 0
 239 482 263 518 263 549 c 0
 263 571 251 590 223 590 c 0
232 634 m 0
 276 634 306 600 306 555 c 0
 306 493 248 437 193 437 c 0
 149 437 119 471 119 516 c 0
 119 581 178 634 232 634 c 0
EndSplineSet
Validated: 1
EndChar

StartChar: plusminus
Encoding: 177 177 111
Width: 488
Flags: W
HStem: 39 72<45.1 479.9> 348 72<104.1 273.001 371.734 538.9>
LayerCount: 2
Fore
SplineSet
61 111 m 5
 114 111 486 111 486 111 c 6
 489 111 490 99 490 93 c 7
 490 79 478 53 464 39 c 5
 39 39 l 6
 36 39 35 51 35 57 c 7
 35 71 47 97 61 111 c 5
120 420 m 1
 173 420 221 420 285 420 c 16
 288 420 289 422 289 424 c 0
 301 484 308 534 322 604 c 0
 325 618 390 622 394 622 c 0
 403 622 405 617 404 613 c 2
 404 613 381 487 369 425 c 0
 368 422 369 420 372 420 c 8
 439 420 545 420 545 420 c 2
 548 420 549 408 549 402 c 3
 549 388 537 362 523 348 c 1
 523 348 422 348 357 348 c 16
 354 348 353 346 353 344 c 0
 340 272 318 164 318 164 c 2
 316 153 270 146 252 146 c 0
 241 146 236 151 237 155 c 2
 237 155 262 287 273 343 c 0
 273 345 274 348 269 348 c 8
 202 348 98 348 98 348 c 2
 95 348 94 360 94 366 c 3
 94 380 106 406 120 420 c 1
EndSplineSet
Validated: 1
EndChar

StartChar: uni00B2
Encoding: 178 178 112
Width: 312
Flags: W
HStem: 253 63<97 242> 586 58<133.691 233.5>
VStem: 207 84<484.087 582.028>
LayerCount: 2
Fore
SplineSet
208 644 m 0
 259 644 291 612 291 561 c 0
 291 448 134 344 99 322 c 0
 98 321 97 319 97 318 c 7
 97 317 97 316 99 316 c 2
 205 316 l 2
 255 316 256 368 272 368 c 0
 275 368 288 366 290 363 c 1
 242 253 l 1
 147 254 l 1
 147 254 33 253 28 253 c 1
 25 257 20 265 20 275 c 0
 20 279 21 283 23 288 c 1
 147 398 207 489 207 539 c 0
 207 561 197 586 169 586 c 0
 127 586 92 540 87 540 c 0
 83 540 76 556 76 562 c 0
 76 567 77 571 79 574 c 0
 90 593 146 644 208 644 c 0
EndSplineSet
Validated: 1
EndChar

StartChar: uni00B3
Encoding: 179 179 113
Width: 290
Flags: W
HStem: 246 36<80.5114 153.28> 440 30<105.18 146.199> 596 49<140.321 225>
VStem: 188 82<331.049 432.438> 196 80<530.216 595.636>
LayerCount: 2
Fore
SplineSet
109 282 m 0xf0
 172 282 188 360 188 390 c 0xf0
 188 427 165 440 127 440 c 2
 106 440 l 1
 105 443 103 451 104 456 c 0
 104 458 106 467 108 470 c 1
 189 488 196 548 196 564 c 0
 196 585 183 596 170 596 c 0
 139 596 111 559 102 559 c 0
 94 559 83 574 88 580 c 0
 113 612 168 645 213 645 c 0
 237 645 276 630 276 588 c 0xe8
 276 542 227 492 188 472 c 1
 208 472 270 456 270 399 c 0
 270 325 191 246 82 246 c 0
 67 246 17 251 17 273 c 0
 17 290 33 315 57 315 c 0
 81 315 80 282 109 282 c 0xf0
EndSplineSet
Validated: 1
EndChar

StartChar: acute
Encoding: 180 180 114
Width: 216
Flags: W
HStem: 522 165
VStem: 146 159
LayerCount: 2
Back
SplineSet
304.021 653.988 m 4
 304.021 667.193 285.916 687 254.632 687 c 4
 241.632 687 229.632 683 225.632 678 c 4
 199.996 635.602 165.611 547.513 165.611 540.26 c 4
 165.611 535.76 177.581 522 184.632 522 c 4
 193.337 522 304.021 612.751 304.021 653.988 c 4
EndSplineSet
Fore
SplineSet
260 687 m 4
 289 687 305 661 305 652 c 4
 305 616 169 522 158 522 c 4
 154 522 146 533 146 539 c 4
 146 548 201 648 228 681 c 4
 233 687 247 687 260 687 c 4
EndSplineSet
Validated: 1
EndChar

StartChar: paragraph
Encoding: 182 182 116
Width: 434
Flags: W
HStem: -4 34<151.108 204.727 371.006 413.728> 274 53<323.955 344.086> 622 26<475.265 530.361>
LayerCount: 2
Fore
SplineSet
310 261 m 2
 272 57 l 2
 270 48 277 44 286 44 c 0
 295 44 301 52 302 58 c 0
 311 92 326 164 347 270 c 0
 348 273 346 274 344 274 c 0
 339 274 327 272 319 270 c 0
 313 269 311 266 310 261 c 2
318 652 m 0
 373 652 365 648 420 648 c 0
 482 648 534 654 534 654 c 1
 538 649 530 622 525 622 c 0
 514 622 477 616 470 604 c 0
 467 597 457 551 447 500 c 0
 435 439 422 367 418 348 c 0
 417 344 420 343 422 343 c 0
 439 346 463 352 463 352 c 1
 464 348 463 337 462 333 c 0
 460 323 455 313 439 304 c 0
 431 300 423 297 413 294 c 0
 411 293 407 292 407 290 c 0
 401 261 367 78 368 52 c 1
 370 40 403 30 414 30 c 0
 416 30 416 24 415 18 c 0
 414 12 409 -2 407 -4 c 1
 349 -2 318 2 259 2 c 0
 216 2 185 -2 147 -4 c 1
 146 2 150 28 155 28 c 0
 162 28 202 39 207 50 c 0
 214 67 225 122 237 183 c 2
 251 256 l 2
 252 263 243 263 234 263 c 0
 127 263 83 350 104 460 c 0
 132 604 242 652 318 652 c 0
377 594 m 2
 377 594 344 434 324 332 c 0
 323 329 325 327 330 327 c 0
 339 327 347 329 353 332 c 0
 357 334 359 336 360 340 c 0
 384 466 406 583 408 596 c 0
 409 600 404 606 395 606 c 0
 386 606 379 605 377 594 c 2
EndSplineSet
Validated: 33
EndChar

StartChar: periodcentered
Encoding: 183 183 117
Width: 189
Flags: W
HStem: 188 150<109.384 184.619>
VStem: 78 140<222.562 306.831>
LayerCount: 2
Fore
SplineSet
78 250 m 0
 78 297 121 338 163 338 c 19
 195 338 218 313 218 280 c 0
 218 236 177 188 135 188 c 19
 101 188 78 216 78 250 c 0
EndSplineSet
Validated: 1
EndChar

StartChar: cedilla
Encoding: 184 184 118
Width: 30821
Flags: W
HStem: -183 38<132.528 215.891> -78 77<186.248 214.618>
VStem: 225 60<-137.942 -78.2449>
LayerCount: 2
Fore
SplineSet
201 -1 m 5
 237 -1 l 1
 215 -32 l 1
 215 -32 228 -31 237 -31 c 19
 265 -31 285 -54 285 -81 c 0
 285 -108 260 -183 159 -183 c 0
 135 -183 113 -180 105 -175 c 1
 101 -166 100 -160 100 -150 c 3
 100 -135 114 -124 122 -124 c 0
 141 -124 150 -145 174 -145 c 0
 209 -145 225 -122 225 -103 c 0
 225 -90 218 -78 204 -78 c 0
 197 -78 182 -80 170 -85 c 0
 168 -85 154 -72 158 -67 c 0
 171 -49 189 -17 201 -1 c 5
EndSplineSet
Validated: 1
EndChar

StartChar: uni00B9
Encoding: 185 185 119
Width: 267
Flags: W
HStem: 252 29<21.2713 75.1858 182.301 226.649>
VStem: 21 229
LayerCount: 2
Fore
SplineSet
60 567 m 0
 136 603 233 648 237 648 c 0
 243 648 250 631 250 628 c 1
 245 617 229 582 221 543 c 2
 180 331 l 2
 178 323 178 316 178 311 c 0
 178 304 179 300 182 295 c 0
 188 285 221 281 226 281 c 0
 227 281 228 280 228 277 c 3
 228 270 225 256 221 252 c 1
 197 253 151 257 127 257 c 0
 103 257 45 253 21 252 c 0
 21 253 20 254 20 256 c 0
 20 264 24 281 26 281 c 0
 33 281 69 288 77 297 c 0
 83 304 91 318 93 330 c 2
 132 529 l 2
 133 537 134 543 134 547 c 0
 134 558 130 560 126 560 c 0
 118 560 80 543 69 538 c 1
 65 539 59 548 59 557 c 0
 59 560 59 566 60 567 c 0
EndSplineSet
Validated: 1
EndChar

StartChar: ordmasculine
Encoding: 186 186 120
Width: 342
Flags: W
HStem: 247 37<134.29 204.944> 517 37<160.462 229.029>
VStem: 39 86<293.572 451.063> 240 87<349.49 506.815>
LayerCount: 2
Fore
SplineSet
166 284 m 11
 237 284 240 402 240 450 c 0
 240 487 230 517 198 517 c 11
 126 517 125 382 125 348 c 0
 125 312 135 284 166 284 c 11
39 367 m 0
 39 465 126 554 213 554 c 0
 280 554 327 502 327 433 c 0
 327 343 248 247 153 247 c 0
 86 247 39 298 39 367 c 0
EndSplineSet
Validated: 1
EndChar

StartChar: guillemotright
Encoding: 187 187 121
Width: 489
Flags: W
LayerCount: 2
Back
SplineSet
103.963 73 m 1
 99.1543 73.9619 75.8486 85.0967 75.8486 96.6211 c 0
 75.8486 101.076 76.2441 104.443 159.963 177 c 2
 241.963 248 l 1
 188.963 319 l 2
 151.165 368.137 134.797 387.808 134.797 396.575 c 0
 134.797 410.568 169.242 422.38 172.963 423 c 1
 173.963 421 226.963 364 344.963 269 c 0
 347.684 267.639 349.113 263.631 349.113 258.398 c 0
 349.113 249.477 344.959 236.996 335.963 228 c 1
 198.963 149 108.963 77 103.963 73 c 1
288.963 73 m 1
 284.154 73.9619 260.849 85.0967 260.849 96.6211 c 0
 260.849 101.076 261.244 104.443 344.963 177 c 2
 426.963 248 l 1
 373.963 319 l 2
 336.165 368.137 319.797 387.808 319.797 396.575 c 0
 319.797 410.568 354.242 422.38 357.963 423 c 1
 358.963 421 411.963 364 529.963 269 c 0
 532.684 267.639 534.114 263.631 534.114 258.398 c 0
 534.114 249.477 529.959 236.996 520.963 228 c 1
 383.963 149 293.963 77 288.963 73 c 1
EndSplineSet
Fore
SplineSet
99 423 m 1
 103 419 171 348 272 269 c 1
 274 265 275 262 275 256 c 0
 275 245 269 231 262 228 c 1
 107 133 33 75 32 73 c 1
 27 74 4 85 4 97 c 0
 4 103 2 102 88 177 c 1
 169 248 l 1
 115 319 l 2
 77 368 62 387 62 396 c 0
 62 410 95 422 99 423 c 1
284 423 m 1
 288 419 356 348 457 269 c 1
 459 265 461 262 461 256 c 0
 461 245 454 231 447 228 c 1
 292 133 218 75 217 73 c 1
 212 74 189 85 189 97 c 0
 189 103 187 102 273 177 c 1
 354 248 l 1
 300 319 l 2
 262 368 247 387 247 396 c 0
 247 410 280 422 284 423 c 1
EndSplineSet
Validated: 33
EndChar

StartChar: onequarter
Encoding: 188 188 122
Width: 632
Flags: W
HStem: -3 21G<474 495> 100 56<393.001 460.438 562.516 585.153> 252 29<10.2713 64.1858 171.301 215.649>
VStem: 445 83<-1.62345 37.0855>
LayerCount: 2
Back
SplineSet
161 543 m 5
 157 544 149 555 151 563 c 4
 151 564 152 571 153 572 c 4
 229 608 314 648 316 648 c 6
 317 648 l 6
 321 648 329 631 329 628 c 5
 324 617 308 582 300 543 c 6
 259 331 l 6
 255 311 256 303 261 295 c 4
 267 285 300 281 305 281 c 4
 307 281 307 270 306 266 c 4
 305 263 301 253 300 252 c 5
 276 253 229 257 205 257 c 4
 181 257 123 253 99 252 c 5
 97 255 102 281 105 281 c 4
 112 281 147 288 155 297 c 4
 161 304 170 318 172 330 c 6
 211 529 l 6
 216 556 211 560 205 560 c 4
 197 560 172 548 161 543 c 5
678 617 m 1
 232 -14 l 1
 232 -14 232 -16 228 -16 c 0
 225 -16 206 -12 197 4 c 0
 194 8 198 12 198 12 c 1
 641 644 l 1
 641 644 642 647 646 647 c 0
 652 647 668 641 677 628 c 0
 681 623 678 617 678 617 c 1
EndSplineSet
Fore
SplineSet
49 567 m 0
 125 603 222 648 226 648 c 0
 232 648 239 631 239 628 c 1
 234 617 218 582 210 543 c 2
 169 331 l 2
 167 323 167 316 167 311 c 0
 167 304 168 300 171 295 c 0
 177 285 210 281 215 281 c 0
 216 281 217 280 217 277 c 3
 217 270 214 256 210 252 c 1
 186 253 140 257 116 257 c 0
 92 257 34 253 10 252 c 0
 10 253 9 254 9 256 c 0
 9 264 13 281 15 281 c 0
 22 281 58 288 66 297 c 0
 72 304 80 318 82 330 c 2
 121 529 l 2
 122 537 123 543 123 547 c 0
 123 558 119 560 115 560 c 0
 107 560 69 543 58 538 c 1
 54 539 48 548 48 557 c 0
 48 560 48 566 49 567 c 0
587 616 m 2
 587 616 208 81 142 -13 c 1
 133 -14 106 -5 106 6 c 0
 106 8 106 10 108 12 c 26
 551 644 l 17
 559 646 588 633 588 622 c 0
 588 620 588 617 587 616 c 2
569 388 m 0
 574 393 580 397 588 397 c 0
 596 397 605 396 604 391 c 2
 559 160 l 2
 559 159 l 3
 559 157 561 156 563 156 c 2
 582 156 l 2
 589 156 588 149 588 140 c 0
 588 124 579 105 575 100 c 1
 566 100 551 100 551 100 c 2
 549 100 548 98 547 95 c 2
 528 2 l 1
 528 2 506 -3 484 -3 c 0
 464 -3 444 0 445 3 c 2
 464 96 l 2
 464 97 l 3
 464 100 461 100 459 100 c 2
 314 100 l 1
 308 104 309 113 311 123 c 1
 398 213 495 313 569 388 c 0
396 156 m 2
 470 156 l 2
 472 156 475 156 476 160 c 2
 496 261 l 2
 496 263 497 267 495 267 c 0
 494 267 493 266 493 266 c 2
 394 164 l 2
 393 163 393 163 393 162 c 0
 393 160 394 156 396 156 c 2
EndSplineSet
Validated: 33
EndChar

StartChar: onehalf
Encoding: 189 189 123
Width: 667
Flags: W
HStem: -1 63<435.907 579> 252 29<10.7188 62.197 170.301 212.117> 332 58<471.014 575>
LayerCount: 2
Fore
SplineSet
569 616 m 2
 569 616 190 81 124 -13 c 1
 115 -14 88 -5 88 6 c 0
 88 8 88 10 90 12 c 26
 533 644 l 17
 541 646 570 633 570 622 c 0
 570 620 570 617 569 616 c 2
506 332 m 0
 464 332 429 286 424 286 c 1
 417 286 412 305 413 310 c 0
 414 315 416 319 416 320 c 0
 429 339 483 390 545 390 c 0
 605 390 638 346 625 280 c 1
 608 195 503 110 436 68 c 1
 434 66 433 62 436 62 c 2
 542 62 l 2
 578 62 586 86 602 110 c 0
 604 113 605 114 609 114 c 0
 612 114 625 112 627 109 c 1
 614 78 591 27 579 -1 c 1
 484 0 l 1
 484 0 370 -1 365 -1 c 1
 361 4 353 17 360 34 c 1
 441 106 529 200 543 274 c 0
 547 297 539 332 506 332 c 0
70 543 m 1
 66 544 58 555 60 563 c 0
 60 564 61 571 62 572 c 0
 138 608 223 648 225 648 c 2
 226 648 l 2
 230 648 238 631 238 628 c 1
 233 617 217 582 209 543 c 2
 168 331 l 2
 164 311 165 303 170 295 c 0
 176 285 209 281 214 281 c 0
 216 281 216 270 215 266 c 0
 214 263 210 253 209 252 c 1
 185 253 138 257 114 257 c 0
 90 257 32 253 8 252 c 1
 6 255 11 281 14 281 c 0
 21 281 56 288 64 297 c 0
 70 304 79 318 81 330 c 2
 120 529 l 2
 125 556 120 560 114 560 c 0
 106 560 81 548 70 543 c 1
EndSplineSet
Validated: 33
EndChar

StartChar: threequarters
Encoding: 190 190 124
Width: 628
Flags: W
HStem: -3 21G<471 492> 100 56<390.001 456.344 558.516 576.95> 246 36<71.972 143.031> 440 30<96.657 139.336> 596 49<131.856 217>
LayerCount: 2
Fore
SplineSet
584 616 m 2
 584 616 205 81 139 -13 c 1
 130 -14 103 -5 103 6 c 0
 103 8 103 10 105 12 c 26
 548 644 l 17
 556 646 585 633 585 622 c 0
 585 620 585 617 584 616 c 2
204 645 m 0
 230 645 277 627 267 574 c 0
 257 525 206 485 180 472 c 1
 202 472 273 453 259 382 c 0
 241 288 147 246 74 246 c 0
 40 246 18 257 10 266 c 1
 9 269 9 278 10 284 c 0
 13 302 34 315 48 315 c 0
 72 315 71 282 100 282 c 0
 136 282 166 309 177 365 c 0
 188 422 164 440 118 440 c 0
 114 440 110 440 97 440 c 1
 96 443 94 451 95 456 c 0
 95 458 98 467 100 470 c 1
 144 480 177 501 187 554 c 0
 192 582 176 596 161 596 c 0
 130 596 104 559 95 559 c 0
 87 559 75 574 80 580 c 0
 105 612 159 645 204 645 c 0
481 -3 m 0
 461 -3 441 0 442 3 c 2
 460 97 l 1
 460 100 457 100 455 100 c 2
 310 100 l 1
 304 104 305 113 307 123 c 1
 394 213 491 313 565 388 c 0
 570 393 578 398 586 398 c 0
 594 398 601 396 600 391 c 2
 555 158 l 2
 554 155 556 155 560 154 c 1
 578 154 l 2
 585 154 582 131 577 104 c 0
 576 100 570 98 570 98 c 1
 547 98 l 2
 545 98 543 96 542 93 c 2
 525 2 l 1
 525 2 503 -3 481 -3 c 0
493 267 m 8
 492 267 490 266 490 266 c 2
 391 164 l 2
 390 163 390 163 390 162 c 0
 390 160 391 156 393 156 c 2
 466 156 l 1
 468 157 471 156 473 160 c 1
 492 261 l 2
 492 263 494 267 493 267 c 8
EndSplineSet
Validated: 33
EndChar

StartChar: questiondown
Encoding: 191 191 125
Width: 346
Flags: W
HStem: -207 79<73.4923 153.343> 300 150<224.46 301.35>
VStem: -10 77<-121.38 -29.1191> 192 140<330.729 416.658> 208 80<135.831 188.415>
LayerCount: 2
Fore
SplineSet
332 388 m 0xf0
 332 340 290 300 249 300 c 0
 215 300 192 324 192 358 c 0
 192 405 233 450 274 450 c 0
 304 450 332 425 332 388 c 0xf0
159 224 m 3
 159 230 167 241 172 244 c 1
 196 244 288 195 288 139 c 3
 288 78 247 47 220 35 c 0
 158 7 164 10 119 -10 c 0
 88 -24 67 -43 67 -76 c 3
 67 -108 84 -128 116 -128 c 0
 146 -128 161 -83 191 -83 c 0
 237 -83 249 -132 234 -170 c 1
 222 -185 198 -207 151 -207 c 0
 68 -207 -10 -149 -10 -61 c 0
 -10 -6 24 53 66 76 c 0
 107 99 133 111 169 127 c 0
 188 135 208 148 208 168 c 3xe8
 208 197 159 214 159 224 c 3
EndSplineSet
Validated: 33
EndChar

StartChar: AE
Encoding: 198 198 132
Width: 931
Flags: W
HStem: -4 36<-10.2658 55.6094 158.389 220.849 392.159 446.534> 2 52<599.028 790.701> 213 60<337.808 469.043> 304 55<624.25 755.519> 610 47<649.534 832.052> 624 36<494.821 527.51>
VStem: 776 34<230.113 293.918> 877 34<511.298 558.951>
LayerCount: 2
Back
SplineSet
420 497 m 29
 130 100 l 29
480 471 m 25
 190 74 l 25
EndSplineSet
Fore
SplineSet
591 657 m 0x3b
 677 657 814 664 915 664 c 1
 913 620 911 560 911 516 c 1
 908 513 896 511 889 511 c 0
 882 511 878 513 877 518 c 0
 868 576 814 610 765 610 c 2
 714 610 l 2
 676 610 655 609 652 597 c 0
 646 578 641 542 639 519 c 2
 623 368 l 2
 623 367 l 3
 623 360 644 359 663 359 c 2
 712 359 l 2
 767 359 772 355 794 421 c 0
 796 426 803 428 810 428 c 0
 817 428 827 426 829 423 c 1
 810 234 l 1
 808 232 797 230 790 230 c 0
 783 230 777 233 776 238 c 0
 768 295 764 290 756 296 c 0
 746 303 719 304 684 304 c 0
 658 304 617 304 616 295 c 2
 600 141 l 2
 598 122 596 90 600 70 c 0
 602 58 623 54 662 54 c 2
 687 54 l 2
 735 54 773 67 802 82 c 0
 821 92 854 125 875 170 c 0
 877 174 882 176 889 176 c 0
 898 176 914 173 916 170 c 1
 892 116 857 43 842 -2 c 1
 741 -2 610 2 525 2 c 0x7b
 472 2 394 -4 394 -4 c 1
 393 -2 391 5 392 13 c 0
 393 21 396 32 398 32 c 0
 409 32 446 44 451 55 c 0
 459 78 459 99 463 134 c 0
 467 170 467 178 469 207 c 0
 470 210 466 211 463 211 c 0
 429 213 401 213 378 213 c 0
 340 213 317 213 284 212 c 0
 281 212 277 209 275 207 c 1
 275 207 233 161 207 131 c 0
 185 105 156 76 156 60 c 0
 156 47 164 44 169 42 c 0
 182 37 214 30 221 30 c 0
 222 30 223 28 223 26 c 3
 223 18 217 1 215 -4 c 1xb3
 178 -2 156 2 115 2 c 0x73
 72 2 33 -2 -10 -4 c 1
 -11 -2 -11 2 -11 8 c 0
 -11 14 -7 29 -5 29 c 0
 6 29 52 39 78 67 c 0
 99 91 115 109 137 134 c 0
 451 494 l 2
 498 547 525 589 527 598 c 0
 532 625 507 624 501 624 c 0
 496 624 494 628 494 634 c 0
 494 641 498 660 500 660 c 0xb7
 504 660 529 657 591 657 c 0x3b
503 469 m 1
 338 280 l 1
 338 280 335 276 337 276 c 0
 354 274 386 273 407 273 c 0
 436 273 446 273 476 275 c 0
 478 275 480 277 481 280 c 0
 489 342 503 469 503 469 c 1
EndSplineSet
Validated: 33
EndChar

StartChar: Eth
Encoding: 208 208 142
Width: 689
Flags: W
HStem: -3 56<165.31 386.972> 2 30<-6.81181 51.0727> 279 72<67.1421 109 253 368.858> 603 56<306.359 478.534> 628 36<117.586 156.773>
LayerCount: 2
Fore
SplineSet
384 351 m 2xb0
 388 351 391 351 390 344 c 0
 388 335 379 307 369 285 c 0
 366 279 361 279 361 279 c 1
 239 279 l 1
 212 136 l 2
 206 106 198 72 206 66 c 0
 222 54 294 53 309 53 c 0
 411 53 492 145 530 340 c 0
 557 478 521 603 409 603 c 2
 405 603 l 2
 383 603 324 602 311 587 c 0
 298 572 290 542 287 524 c 2
 253 351 l 1
 384 351 l 2xb0
123 351 m 1
 156 521 l 2
 159 538 167 576 166 599 c 1
 164 611 128 628 117 628 c 0
 115 628 116 636 117 643 c 0
 118 650 122 662 124 664 c 1x68
 124 664 189 659 251 659 c 0
 314 659 372 659 413 659 c 0
 628 659 702 496 671 336 c 0
 635 152 491 -3 283 -3 c 0xb0
 242 -3 187 2 125 2 c 0
 63 2 -7 -4 -7 -4 c 1
 -8 -2 -10 5 -8 13 c 0
 -6 21 -2 32 -0 32 c 0x60
 11 32 53 42 60 54 c 1
 70 77 78 118 81 135 c 2
 109 279 l 1
 52 279 l 1
 52 279 47 279 49 289 c 0
 50 293 56 322 67 346 c 0
 70 352 75 351 75 351 c 1
 123 351 l 1
EndSplineSet
Validated: 33
EndChar

StartChar: multiply
Encoding: 215 215 149
Width: 421
Flags: W
VStem: 170 98<226.297 266.5>
LayerCount: 2
Fore
SplineSet
44 54 m 0
 35 54 17 93 17 109 c 1
 168 243 l 2
 169 244 170 245 170 246 c 0
 170 248 170 250 169 251 c 2
 73 380 l 1
 73 394 113 438 120 438 c 0
 126 438 127 436 129 434 c 2
 226 302 l 2
 227 301 229 300 230 300 c 0
 230 300 231 300 232 301 c 24
 291 353 383 435 383 435 c 2
 385 437 387 438 389 438 c 0
 396 438 417 400 417 382 c 1
 270 250 l 2
 269 249 268 248 268 247 c 3
 268 246 268 246 269 245 c 2
 364 112 l 1
 364 98 323 57 316 57 c 0
 312 57 310 58 309 60 c 2
 212 192 l 2
 211 193 210 194 209 194 c 0
 208 194 206 193 205 192 c 2
 52 57 l 2
 50 55 48 54 44 54 c 0
EndSplineSet
Validated: 1
EndChar

StartChar: Oslash
Encoding: 216 216 150
Width: 650
Flags: W
HStem: -10 56<227.43 361.613> 611 56<309.414 443.96>
VStem: 27 145<150.932 381.061> 496 143<273.445 507.933>
LayerCount: 2
Fore
SplineSet
374 611 m 0
 270 611 172 456 172 238 c 0
 172 207 175 176 182 149 c 1
 469 560 l 1
 450 591 420 611 374 611 c 0
398 667 m 0
 444 667 486 655 521 634 c 1
 545 669 l 1
 553 671 582 657 582 646 c 0
 582 644 582 642 581 640 c 2
 557 606 l 1
 609 558 639 485 639 400 c 0
 639 187 454 -10 267 -10 c 0
 221 -10 180 2 145 23 c 1
 129 0 l 1
 120 -1 93 8 93 19 c 0
 93 21 93 24 95 26 c 2
 111 49 l 1
 58 97 27 170 27 256 c 0
 27 469 211 667 398 667 c 0
293 46 m 0
 440 46 496 310 496 435 c 0
 496 461 494 487 489 510 c 1
 200 101 l 1
 219 68 249 46 293 46 c 0
EndSplineSet
Validated: 33
EndChar

StartChar: Thorn
Encoding: 222 222 156
Width: 537
Flags: W
HStem: -4 34<-10.4212 49.3129 206.567 245.059> 141 51<219.95 328.126> 469 45<283.564 367.995> 628 34<116.842 155.065 314.575 370.433>
VStem: 163 120<518.906 602.716> 383 142<264.161 442.743>
LayerCount: 2
Fore
SplineSet
280 141 m 0
 248 141 228 145 214 145 c 3
 213 145 211 144 211 143 c 0
 210 141 209 140 209 138 c 0
 204 113 200 87 200 62 c 0
 200 60 200 57 200 55 c 0
 201 44 240 30 247 30 c 0
 253 30 244 -2 243 -4 c 1
 206 -2 162 4 121 4 c 0
 78 4 33 -2 -10 -4 c 1
 -11 -3 -11 1 -11 6 c 0
 -11 13 -8 30 -5 30 c 0
 6 30 45 32 56 55 c 0
 65 74 75 117 78 135 c 2
 154 525 l 2
 156 540 163 575 163 594 c 0
 163 598 163 601 162 603 c 0
 158 615 125 628 114 628 c 0
 107 628 119 662 119 662 c 0
 161 660 204 656 247 656 c 0
 288 656 335 660 373 662 c 1
 373 655 372 628 366 628 c 0
 359 628 311 615 306 604 c 0
 294 577 283 524 283 519 c 0
 283 516 283 514 285 514 c 0
 289 514 314 520 354 520 c 0
 455 520 525 452 525 363 c 0
 525 210 394 141 280 141 c 0
283 192 m 0
 341 192 383 290 383 371 c 0
 383 404 382 469 332 469 c 0
 313 469 273 469 265 430 c 2
 226 228 l 2
 226 225 225 223 225 217 c 3
 225 195 262 192 283 192 c 0
EndSplineSet
Validated: 33
EndChar

StartChar: germandbls
Encoding: 223 223 157
Width: 537
Flags: W
HStem: -218 55<-169 -69.9158> -7 60<247.103 310.518> 372 58<-8.22089 44.9985> 642 54<231.867 333.571>
VStem: 200 98<282.073 381.812> 320 111<76.2506 166.683>
LayerCount: 2
Fore
SplineSet
428 696 m 0
 505 696 580 649 564 565 c 0
 549 487 503 464 465 442 c 0
 434 424 408 407 408 361 c 0
 408 322 436 293 467 271 c 0
 499 250 541 202 541 149 c 0
 541 82 476 -7 388 -7 c 0
 312 -7 254 19 248 36 c 1
 248 49 249 130 298 130 c 0
 357 130 341 53 391 53 c 3
 427 53 430 107 430 118 c 0
 430 160 392 180 361 210 c 0
 336 234 310 260 310 305 c 0
 310 382 355 406 395 445 c 0
 420 469 443 498 453 549 c 0
 465 613 441 642 387 642 c 0
 327 642 308 557 292 475 c 2
 204 21 l 2
 176 -125 97 -218 -33 -218 c 0
 -85 -218 -118 -196 -123 -179 c 1
 -124 -144 -114 -82 -64 -82 c 0
 -21 -82 -31 -163 8 -163 c 0
 51 -163 69 -75 84 1 c 2
 154 362 l 2
 154 363 155 367 155 369 c 3
 155 371 153 372 151 372 c 2
 92 372 l 2
 87 372 86 381 86 382 c 0
 86 393 114 430 144 430 c 2
 161 430 l 2
 166 430 169 440 170 446 c 0
 197 583 323 696 428 696 c 0
EndSplineSet
EndChar

StartChar: ae
Encoding: 230 230 164
Width: 621
Flags: W
HStem: -8 75<142.223 222.517> -7 65<371.5 478.722> 200 53<379.001 450.538> 389 60<203.835 293 419.762 525.756>
VStem: 20 119<70.4178 156.687> 73 99<285.787 357.218> 271 108<253.054 342.81> 496 114<296.141 393.845>
LayerCount: 2
Fore
SplineSet
495 449 m 0xb7
 556 449 610 413 610 354 c 0
 610 247 431 200 378 200 c 0
 374 200 374 193 374 190 c 0
 374 86 421 58 453 58 c 0
 494 58 537 127 545 127 c 1
 550 125 561 102 561 98 c 1
 555 82 490 -7 405 -7 c 0x77
 338 -7 300 25 278 61 c 1
 256 26 223 -8 146 -8 c 0
 67 -8 20 40 20 101 c 0xbb
 20 218 176 220 249 245 c 0
 255 247 258 252 259 259 c 2
 268 307 l 2
 270 319 271 331 271 342 c 3
 271 368 264 389 245 389 c 0
 218 389 181 356 172 306 c 0
 169 292 141 278 116 278 c 3
 94 278 73 288 73 317 c 0
 73 377 184 449 274 449 c 3
 312 449 346 437 366 406 c 1
 406 434 452 449 495 449 c 0xb7
232 110 m 2
 246 187 l 1
 199 176 139 171 139 108 c 0
 139 79 157 67 177 67 c 3xbb
 201 67 227 84 232 110 c 2
472 394 m 0
 450 394 415 373 397 334 c 0
 382 302 379 270 379 257 c 0
 379 255 381 253 383 253 c 0
 451 253 496 308 496 356 c 0
 496 379 491 394 472 394 c 0
EndSplineSet
Validated: 1
EndChar

StartChar: eth
Encoding: 240 240 174
Width: 431
Flags: W
HStem: -6 56<144.705 223.038> 342 57<209.527 290.155> 675 20G<153.5 175>
VStem: 20 118<71.0044 240.784> 291 123<176.634 439.737>
LayerCount: 2
Fore
SplineSet
257 342 m 0
 197 342 138 244 138 106 c 3
 138 63 153 50 177 50 c 0
 226 50 257 109 276 207 c 0
 286 261 291 289 291 312 c 0
 291 334 272 342 257 342 c 0
235 399 m 3
 254 399 272 396 289 387 c 0
 291 386 l 3
 293 386 296 394 296 409 c 3
 296 442 284 506 238 569 c 1
 146 466 l 17
 134 466 112 487 112 495 c 0
 112 497 112 499 114 501 c 2
 207 605 l 1
 186 626 165 643 137 658 c 1
 137 671 146 692 161 695 c 1
 189 680 214 665 241 644 c 1
 334 750 l 17
 336 751 367 733 367 722 c 3
 367 718 366 716 364 713 c 2
 277 613 l 1
 354 541 414 439 414 309 c 0
 414 95 272 -6 166 -6 c 0
 80 -6 20 70 20 161 c 0
 20 286 134 399 235 399 c 3
EndSplineSet
Validated: 33
EndChar

StartChar: divide
Encoding: 247 247 181
Width: 464
VWidth: 0
Flags: W
HStem: 0 126<153.625 230.225> 213 72<14.1 448.9> 372 126<225.625 302.225>
VStem: 134 117<20.1256 106.03> 206 117<392.126 478.03>
CounterMasks: 1 e0
LayerCount: 2
Fore
SplineSet
273 498 m 0xe8
 302 498 323 475 323 445 c 0
 323 408 293 372 256 372 c 0
 227 372 206 396 206 426 c 0
 206 463 236 498 273 498 c 0xe8
201 126 m 0
 230 126 251 103 251 73 c 0
 251 36 221 0 184 0 c 0
 155 0 134 24 134 54 c 0xf0
 134 91 164 126 201 126 c 0
30 285 m 1
 83 285 455 285 455 285 c 2
 458 285 459 273 459 267 c 3
 459 253 447 227 433 213 c 1
 8 213 l 2
 5 213 4 225 4 231 c 3
 4 245 16 271 30 285 c 1
EndSplineSet
Validated: 1
EndChar

StartChar: oslash
Encoding: 248 248 182
Width: 439
Flags: W
HStem: -7 60<162.996 233.243> 389 60<216.889 286.009>
VStem: 27 119<152 280.016> 302 120<165.544 297>
LayerCount: 2
Fore
SplineSet
194 53 m 0
 251 53 302 171 302 287 c 0
 302 290 302 294 302 297 c 1
 156 90 l 1
 165 66 178 53 194 53 c 0
255 389 m 0
 203 389 146 271 146 155 c 0
 146 154 146 153 146 152 c 2
 290 358 l 1
 282 378 270 389 255 389 c 0
276 449 m 0
 300 449 323 442 342 431 c 1
 354 449 l 1
 362 451 391 437 391 426 c 0
 391 424 391 422 390 421 c 2
 377 402 l 1
 405 370 422 326 422 280 c 0
 422 130 318 -7 173 -7 c 0
 146 -7 122 0 102 14 c 1
 86 -8 l 1
 77 -9 50 0 50 11 c 0
 50 13 50 16 52 18 c 2
 70 43 l 1
 43 76 27 121 27 167 c 0
 27 316 132 449 276 449 c 0
EndSplineSet
Validated: 33
EndChar

StartChar: thorn
Encoding: 254 254 188
Width: 450
Flags: W
HStem: -219 34<-46.1902 1.44634 144.158 179.263> -3 55<187.737 279.412> 355 72<276.101 389.5> 621 31<109.281 157.574> 675 20G<293.5 299.5>
LayerCount: 2
Fore
SplineSet
31 -85 m 10
 151 532 l 2
 154 549 160 583 160 603 c 1
 160 618 134 621 119 621 c 2
 111 621 l 2
 108 621 108 628 109 635 c 0
 109 637 113 652 117 652 c 0
 217 663 292 695 295 695 c 2
 297 695 l 2
 302 695 304 682 304 676 c 1
 304 676 285 628 274 568 c 2
 274 568 240 395 238 386 c 0
 237 383 240 379 244 383 c 0
 257 395 306 427 339 427 c 0
 440 427 496 334 475 229 c 0
 447 84 336 -3 217 -3 c 0
 193 -3 171 7 168 7 c 1
 165 7 164 3 162 -9 c 2
 150 -69 l 2
 143 -103 138 -132 139 -160 c 0
 139 -171 175 -185 182 -185 c 0
 186 -185 180 -213 177 -219 c 1
 142 -217 99 -211 65 -211 c 0
 28 -211 -14 -217 -51 -219 c 1
 -50 -214 -45 -185 -45 -185 c 0
 -35 -185 6 -171 11 -160 c 0
 21 -134 30 -92 31 -85 c 10
218 282 m 2
 185 113 l 2
 181 94 182 83 188 72 c 0
 194 59 206 52 233 52 c 0
 256 52 319 77 343 200 c 0
 359 281 355 355 292 355 c 0
 253 355 229 339 218 282 c 2
EndSplineSet
Validated: 33
EndChar

StartChar: gravecomb
Encoding: 768 768 190
Width: 228
Flags: W
HStem: 494 150
VStem: 152 173
LayerCount: 2
Fore
SplineSet
311 494 m 0
 298 494 152 561 152 600 c 0
 152 617 175 644 208 644 c 0
 214 644 218 643 221 641 c 0
 248 616 325 525 325 516 c 0
 325 510 317 494 311 494 c 0
EndSplineSet
Validated: 1
EndChar

StartChar: acutecomb
Encoding: 769 769 191
Width: 228
Flags: W
HStem: 494 150
VStem: 184 173
LayerCount: 2
Fore
SplineSet
198 494 m 0
 192 494 184 510 184 516 c 0
 184 525 261 616 288 641 c 0
 291 643 295 644 301 644 c 0
 334 644 357 617 357 600 c 0
 357 561 211 494 198 494 c 0
EndSplineSet
Validated: 1
EndChar

StartChar: uni2010
Encoding: 8208 8208 197
Width: 288
Flags: W
VStem: 64 257<206.461 266.565>
LayerCount: 2
Fore
SplineSet
88 267 m 2
 315 279 l 2
 320 279 321 272 321 267 c 0
 321 254 305 205 295 204 c 10
 69 193 l 2
 66 193 64 200 64 208 c 0
 64 219 77 266 88 267 c 2
EndSplineSet
Validated: 1
EndChar

StartChar: uni2011
Encoding: 8209 8209 198
Width: 288
Flags: W
VStem: 64 257<206.461 266.565>
LayerCount: 2
Fore
SplineSet
88 267 m 2
 315 279 l 2
 320 279 321 272 321 267 c 0
 321 254 305 205 295 204 c 10
 69 193 l 2
 66 193 64 200 64 208 c 0
 64 219 77 266 88 267 c 2
EndSplineSet
Validated: 1
EndChar

StartChar: figuredash
Encoding: 8210 8210 199
Width: 462
Flags: W
HStem: 194 74<71.5838 467.416>
LayerCount: 2
Fore
SplineSet
470 268 m 2
 477 268 477 258 477 252 c 0
 477 230 460 199 455 194 c 9
 69 194 l 2
 62 194 62 204 62 210 c 0
 62 232 79 263 84 268 c 9
 470 268 l 2
EndSplineSet
Validated: 1
EndChar

StartChar: endash
Encoding: 8211 8211 200
Width: 462
Flags: W
HStem: 194 74<71.5838 467.416>
LayerCount: 2
Fore
SplineSet
470 268 m 2
 477 268 477 258 477 252 c 0
 477 230 460 199 455 194 c 9
 69 194 l 2
 62 194 62 204 62 210 c 0
 62 232 79 263 84 268 c 9
 470 268 l 2
EndSplineSet
Validated: 1
EndChar

StartChar: emdash
Encoding: 8212 8212 201
Width: 824
Flags: W
HStem: 194 74<71.5838 820.416>
LayerCount: 2
Fore
SplineSet
823 268 m 2
 830 268 830 258 830 252 c 0
 830 230 813 199 808 194 c 9
 69 194 l 2
 62 194 62 204 62 210 c 0
 62 232 79 263 84 268 c 9
 823 268 l 2
EndSplineSet
Validated: 1
EndChar

StartChar: afii00208
Encoding: 8213 8213 202
Width: 1005
Flags: W
HStem: 194 74<71.5838 1004.42>
LayerCount: 2
Fore
SplineSet
1007 268 m 2
 1014 268 1014 258 1014 252 c 0
 1014 230 997 199 992 194 c 9
 69 194 l 2
 62 194 62 204 62 210 c 0
 62 232 79 263 84 268 c 9
 1007 268 l 2
EndSplineSet
Validated: 1
EndChar

StartChar: quoteleft
Encoding: 8216 8216 203
Width: 148
Flags: W
HStem: 474 232
VStem: 123 102<489.327 567.973>
LayerCount: 2
Fore
SplineSet
122 555 m 0
 140 649 246 706 254 706 c 0
 261 706 281 691 283 680 c 1
 220 644 202 599 200 590 c 0
 195 564 230 546 225 518 c 0
 220 494 185 474 155 474 c 0
 148 474 130 478 123 485 c 1
 117 498 116 525 122 555 c 0
EndSplineSet
Validated: 33
EndChar

StartChar: quoteright
Encoding: 8217 8217 204
Width: 153
Flags: W
HStem: 474 232
VStem: 163 102<612.027 690.673>
LayerCount: 2
Fore
SplineSet
265 625 m 0
 247 531 142 474 134 474 c 0
 127 474 107 489 105 500 c 1
 168 536 186 581 188 590 c 0
 193 616 158 634 163 662 c 0
 168 686 203 706 233 706 c 0
 240 706 258 702 265 695 c 1
 271 682 271 655 265 625 c 0
EndSplineSet
Validated: 33
EndChar

StartChar: quotesinglbase
Encoding: 8218 8218 205
Width: 148
Flags: W
HStem: -108 232
VStem: 45 102<30.0272 108.673>
LayerCount: 2
Fore
SplineSet
148 43 m 0
 130 -51 24 -108 16 -108 c 0
 9 -108 -10 -93 -12 -82 c 1
 51 -46 68 -1 70 8 c 0
 75 34 40 52 45 80 c 0
 50 104 85 124 115 124 c 0
 122 124 140 120 147 113 c 1
 153 100 154 73 148 43 c 0
EndSplineSet
Validated: 33
EndChar

StartChar: quotedblleft
Encoding: 8220 8220 206
Width: 307
Flags: W
HStem: 474 232
VStem: 123 102<489.327 567.973> 260 103<489.327 567.973>
LayerCount: 2
Fore
SplineSet
260 555 m 0
 278 649 384 706 392 706 c 0
 399 706 418 691 420 680 c 1
 357 644 340 599 338 590 c 0
 333 564 368 546 363 518 c 0
 358 494 323 474 293 474 c 0
 286 474 267 478 260 485 c 1
 254 498 254 525 260 555 c 0
122 555 m 0
 140 649 246 706 254 706 c 0
 261 706 281 691 283 680 c 1
 220 644 202 599 200 590 c 0
 195 564 230 546 225 518 c 0
 220 494 185 474 155 474 c 0
 148 474 130 478 123 485 c 1
 117 498 116 525 122 555 c 0
EndSplineSet
Validated: 33
EndChar

StartChar: quotedblright
Encoding: 8221 8221 207
Width: 307
Flags: W
HStem: 474 232
VStem: 169 102<612.027 690.673> 307 102<612.027 690.673>
LayerCount: 2
Fore
SplineSet
272 625 m 0
 254 531 148 474 140 474 c 0
 133 474 114 489 112 500 c 1
 175 536 192 581 194 590 c 0
 199 616 164 634 169 662 c 0
 174 686 209 706 239 706 c 0
 246 706 264 702 271 695 c 1
 277 682 278 655 272 625 c 0
409 625 m 0
 391 531 286 474 278 474 c 0
 271 474 251 489 249 500 c 1
 312 536 330 581 332 590 c 0
 337 616 302 634 307 662 c 0
 312 686 347 706 377 706 c 0
 384 706 402 702 409 695 c 1
 415 682 415 655 409 625 c 0
EndSplineSet
Validated: 33
EndChar

StartChar: quotedblbase
Encoding: 8222 8222 208
Width: 297
Flags: W
HStem: -108 232
VStem: 53 102<30.0272 108.673> 190 102<30.0272 108.673>
LayerCount: 2
Fore
SplineSet
155 43 m 0
 137 -51 31 -108 23 -108 c 0
 16 -108 -3 -93 -5 -82 c 1
 58 -46 76 -1 78 8 c 0
 83 34 48 52 53 80 c 0
 58 104 92 124 122 124 c 0
 129 124 148 120 155 113 c 1
 161 100 161 73 155 43 c 0
293 43 m 0
 275 -51 169 -108 161 -108 c 0
 154 -108 135 -93 133 -82 c 1
 196 -46 213 -1 215 8 c 0
 220 34 185 52 190 80 c 0
 195 104 230 124 260 124 c 0
 267 124 285 120 292 113 c 1
 298 100 299 73 293 43 c 0
EndSplineSet
Validated: 33
EndChar

StartChar: dagger
Encoding: 8224 8224 209
Width: 341
Flags: W
HStem: 360 72<108.961 204.695 292.769 386.156>
VStem: 252 83<542.314 629>
LayerCount: 2
Fore
SplineSet
210 -10 m 1
 201 -6 180 -5 170 -5 c 0
 160 -5 140 -6 128 -10 c 1
 160 135 178 205 206 350 c 0
 207 355 205 360 200 360 c 2
 196 360 l 2
 161 360 136 357 97 355 c 1
 100 364 104 384 106 393 c 0
 108 404 112 426 113 437 c 1
 151 435 175 432 210 432 c 2
 214 432 l 2
 218 432 222 436 223 440 c 0
 238 518 241 551 252 629 c 1
 263 627 282 625 292 625 c 0
 302 625 323 627 335 629 c 1
 316 551 305 518 290 440 c 0
 289 436 291 432 295 432 c 2
 299 432 l 2
 334 432 360 435 399 437 c 1
 396 426 390 404 388 393 c 0
 386 384 384 364 383 355 c 1
 345 357 320 360 285 360 c 2
 281 360 l 2
 276 360 273 355 272 350 c 0
 244 205 234 135 210 -10 c 1
EndSplineSet
Validated: 1
EndChar

StartChar: daggerdbl
Encoding: 8225 8225 210
Width: 341
Flags: W
HStem: 188 72<76.0764 173.044 258.5 353.039> 360 72<108.961 203.5 292.769 386.156>
VStem: 128 83<-9 77.686> 252 83<542.314 629>
LayerCount: 2
Back
SplineSet
151 248 m 6
 158 248 159 253 159 275 c 6
 159 370 l 6
 159 375 156 379 151 379 c 4
 146 379 141 379 136 379 c 4
 98 379 73 376 31 374 c 5
 32 383 33 392 33 401 c 4
 33 412 32 424 31 435 c 5
 73 433 98 430 136 430 c 4
 141 430 146 430 151 430 c 4
 155 430 159 434 159 438 c 4
 159 513 154 554 150 629 c 5
 162 627 173 625 184 625 c 4
 195 625 207 627 219 629 c 5
 215 554 210 513 210 438 c 4
 210 434 214 430 218 430 c 6
 232 430 l 6
 270 430 296 433 338 435 c 5
 337 424 336 412 336 401 c 4
 336 392 337 383 338 374 c 5
 296 376 270 379 232 379 c 6
 218 379 l 6
 213 379 210 375 210 370 c 4
 210 332 210 294 210 256 c 4
 210 251 213 248 218 248 c 6
 338 253 l 5
 337 242 336 230 336 219 c 4
 336 210 337 200 338 191 c 5
 218 197 l 5
 213 196 211 192 210 186 c 5
 212 130 217 63 219 -10 c 5
 208 -6 195 -5 184 -5 c 4
 173 -5 162 -6 150 -10 c 5
 152 63 157 130 159 186 c 4
 159 191 156 197 151 197 c 6
 31 191 l 5
 32 200 33 210 33 219 c 4
 33 230 32 242 31 253 c 5
 151 248 l 6
EndSplineSet
Fore
SplineSet
256 270 m 0
 255 265 257 260 262 260 c 2
 266 260 l 2
 301 260 326 263 365 265 c 1
 362 256 358 236 356 227 c 0
 354 216 350 194 349 183 c 1
 311 185 287 188 252 188 c 2
 248 188 l 2
 244 188 240 184 239 180 c 0
 224 102 222 69 211 -9 c 1
 200 -7 180 -5 170 -5 c 0
 160 -5 140 -7 128 -9 c 1
 147 69 158 102 173 180 c 0
 174 184 171 188 167 188 c 2
 162 188 l 2
 127 188 103 185 64 183 c 1
 67 194 72 216 74 227 c 0
 76 236 79 256 80 265 c 1
 118 263 141 260 176 260 c 2
 181 260 l 2
 186 260 189 265 190 270 c 0
 218 415 178 205 206 350 c 0
 207 355 205 360 200 360 c 2
 196 360 l 2
 161 360 136 357 97 355 c 1
 100 364 104 384 106 393 c 0
 108 404 112 426 113 437 c 1
 151 435 175 432 210 432 c 2
 214 432 l 2
 218 432 222 436 223 440 c 0
 238 518 241 551 252 629 c 1
 263 627 282 625 292 625 c 0
 302 625 323 627 335 629 c 1
 316 551 305 518 290 440 c 0
 289 436 291 432 295 432 c 2
 299 432 l 2
 334 432 360 435 399 437 c 1
 396 426 390 404 388 393 c 0
 386 384 384 364 383 355 c 1
 345 357 320 360 285 360 c 2
 281 360 l 2
 276 360 273 355 272 350 c 0
 244 205 284 415 256 270 c 0
EndSplineSet
Validated: 1
EndChar

StartChar: bullet
Encoding: 8226 8226 211
Width: 377
Flags: W
HStem: 123 281<191.464 285.39>
VStem: 108 260
LayerCount: 2
Fore
SplineSet
108 263 m 0
 123 340 194 404 266 404 c 0
 338 404 383 340 368 263 c 0
 353 186 283 123 211 123 c 0
 139 123 93 186 108 263 c 0
EndSplineSet
Validated: 33
EndChar

StartChar: onedotenleader
Encoding: 8228 8228 212
Width: 644
Flags: W
HStem: -11 150<297.269 372.216>
VStem: 267 136<21.015 109.541>
LayerCount: 2
Fore
SplineSet
403 66 m 0
 395 26 360 -11 322 -11 c 27
 283 -11 259 26 267 66 c 0
 275 106 312 139 350 139 c 27
 387 139 411 106 403 66 c 0
EndSplineSet
Validated: 33
EndChar

StartChar: ellipsis
Encoding: 8230 8230 213
Width: 728
Flags: W
HStem: -11 150<80.25 155.339 339.269 414.216 597.25 672.339>
VStem: 50 137<21.015 109.541> 309 136<21.015 109.541> 567 137<21.015 109.541>
CounterMasks: 1 70
LayerCount: 2
Back
SplineSet
548 45 m 4
 548 77 573 102 605 102 c 4
 637 102 663 77 663 45 c 4
 663 13 637 -14 605 -14 c 4
 573 -14 548 13 548 45 c 4
296 45 m 4
 296 77 320 102 352 102 c 4
 384 102 410 77 410 45 c 4
 410 13 384 -14 352 -14 c 4
 320 -14 296 13 296 45 c 4
41 45 m 4
 41 77 65 102 97 102 c 4
 129 102 155 77 155 45 c 4
 155 13 129 -14 97 -14 c 4
 65 -14 41 13 41 45 c 4
EndSplineSet
Fore
SplineSet
704 66 m 0
 696 26 661 -11 623 -11 c 27
 584 -11 559 26 567 66 c 0
 575 106 612 139 650 139 c 27
 687 139 712 106 704 66 c 0
445 66 m 0
 437 26 402 -11 364 -11 c 27
 325 -11 301 26 309 66 c 0
 317 106 354 139 392 139 c 27
 429 139 453 106 445 66 c 0
187 66 m 0
 179 26 144 -11 106 -11 c 27
 67 -11 42 26 50 66 c 0
 58 106 95 139 133 139 c 27
 170 139 195 106 187 66 c 0
EndSplineSet
Validated: 33
Ligature2: "'liga' Standard Ligatures in Latin lookup 0-1" period period period
EndChar

StartChar: perthousand
Encoding: 8240 8240 214
Width: 951
Flags: W
HStem: -4 21G<77 94.5> 1 37<429.523 498.547 750.129 819.047> 268 38<457.392 527.117 778.392 848.011> 337 38<218.523 287.547> 605 37<247.001 316.117>
LayerCount: 2
Fore
SplineSet
813 268 m 24x78
 774 268 754 216 746 174 c 24
 735 115 728 38 783 38 c 24
 821 38 843 89 851 130 c 24
 863 191 870 268 813 268 c 24x78
653 153 m 0
 669 237 747 306 829 306 c 0
 911 306 962 237 946 153 c 0
 930 69 852 1 770 1 c 0
 688 1 637 69 653 153 c 0
281 605 m 24
 242 605 222 552 214 510 c 24
 203 451 197 375 252 375 c 24
 290 375 312 425 320 466 c 24
 332 527 338 605 281 605 c 24
121 489 m 0
 137 573 215 642 297 642 c 0
 379 642 430 573 414 489 c 0
 398 405 320 337 238 337 c 0
 156 337 105 405 121 489 c 0
492 268 m 24
 453 268 433 216 425 174 c 24
 414 115 408 38 463 38 c 24
 501 38 523 89 531 130 c 24
 543 191 549 268 492 268 c 24
332 153 m 0
 348 237 426 306 508 306 c 0
 590 306 641 237 625 153 c 0
 609 69 531 1 449 1 c 0
 367 1 316 69 332 153 c 0
690 629 m 1
 122 7 l 2
 116 1 100 -4 89 -4 c 0xb8
 65 -4 55 5 55 10 c 1
 624 632 l 2
 630 638 638 646 644 646 c 0
 665 646 682 637 690 629 c 1
EndSplineSet
Validated: 33
EndChar

StartChar: minute
Encoding: 8242 8242 215
Width: 141
Flags: W
HStem: 484 215
VStem: 173 82<613.648 689.454>
LayerCount: 2
Fore
SplineSet
220 699 m 0
 239 699 259 687 255 667 c 0
 246 620 180 528 149 494 c 0
 144 489 138 484 134 484 c 0
 128 484 125 489 126 496 c 0
 127 499 155 612 173 666 c 0
 177 678 202 699 220 699 c 0
EndSplineSet
Validated: 33
EndChar

StartChar: second
Encoding: 8243 8243 216
Width: 276
Flags: W
HStem: 484 215
VStem: 173 82<613.648 689.454> 298 82<613.648 689.454>
LayerCount: 2
Fore
SplineSet
345 699 m 0
 364 699 384 687 380 667 c 0
 371 620 306 528 275 494 c 0
 270 489 264 484 260 484 c 0
 254 484 250 489 251 496 c 0
 252 499 280 612 298 666 c 0
 302 678 327 699 345 699 c 0
220 699 m 0
 239 699 259 687 255 667 c 0
 246 620 180 528 149 494 c 0
 144 489 138 484 134 484 c 0
 128 484 125 489 126 496 c 0
 127 499 155 612 173 666 c 0
 177 678 202 699 220 699 c 0
EndSplineSet
Validated: 33
EndChar

StartChar: uni2038
Encoding: 8248 8248 217
Width: 356
Flags: W
HStem: -61 174
VStem: 65 232
LayerCount: 2
Fore
SplineSet
281 -61 m 0
 269 -61 221 -17 193 28 c 1
 151 -17 81 -61 69 -61 c 0
 62 -61 65 -37 65 -37 c 1
 72 -26 140 16 196 103 c 0
 200 110 198 113 205 113 c 0
 225 113 215 96 248 33 c 0
 261 9 296 -32 297 -36 c 1
 296 -39 288 -61 281 -61 c 0
EndSplineSet
Validated: 1
EndChar

StartChar: guilsinglleft
Encoding: 8249 8249 218
Width: 299
Flags: W
VStem: 87 262
LayerCount: 2
Fore
SplineSet
183 248 m 1
 196 231 214 206 236 177 c 0
 276 125 292 106 290 98 c 0
 288 86 258 74 252 73 c 1
 251 75 209 132 91 227 c 1
 87 229 86 235 87 241 c 0
 89 251 92 260 100 268 c 1
 237 347 316 419 321 423 c 1
 326 422 351 410 349 398 c 0
 347 390 325 371 265 319 c 0
 231 290 203 265 183 248 c 1
EndSplineSet
Validated: 33
EndChar

StartChar: guilsinglright
Encoding: 8250 8250 219
Width: 299
Flags: W
VStem: 60 258
LayerCount: 2
Fore
SplineSet
225 248 m 5
 212 265 193 290 171 319 c 4
 131 371 115 390 117 398 c 4
 119 410 149 422 155 423 c 5
 159 419 210 347 316 268 c 5
 321 260 320 251 318 241 c 4
 317 235 314 229 309 227 c 5
 154 132 89 75 88 73 c 5
 83 74 58 86 60 98 c 4
 62 106 84 125 144 177 c 4
 178 206 205 231 225 248 c 5
EndSplineSet
Validated: 33
EndChar

StartChar: uni203E
Encoding: 8254 8254 220
Width: 667
Flags: W
HStem: 733 74<85.5838 588.416>
LayerCount: 2
Fore
SplineSet
591 807 m 2
 598 807 598 797 598 791 c 0
 598 769 581 738 576 733 c 9
 83 733 l 2
 76 733 76 743 76 749 c 0
 76 771 93 802 98 807 c 9
 591 807 l 2
EndSplineSet
Validated: 1
EndChar

StartChar: Euro
Encoding: 8364 8364 221
Width: 633
Flags: W
HStem: -6 52<279.243 440.639> 243 53<22.2851 69 213 383.574> 346 53<40.585 84 235 403.574> 588 54<349.421 519.402>
VStem: 69 140<135.846 243> 583 40<457.527 520.521>
LayerCount: 2
Fore
SplineSet
29 243 m 2
 22 243 20 252 20 258 c 0
 20 269 25 287 32 296 c 1
 73 296 l 1
 76 314 79 330 84 346 c 1
 47 346 l 2
 40 346 38 355 38 361 c 0
 38 372 44 389 50 399 c 1
 103 399 l 1
 163 537 294 642 435 642 c 0
 494 642 577 629 633 614 c 1
 633 600 625 482 623 472 c 0
 621 462 608 457 597 457 c 0
 592 457 587 459 583 460 c 1
 581 497 555 588 429 588 c 0
 325 588 267 504 235 399 c 1
 398 399 l 2
 403 399 406 391 406 385 c 0
 406 369 400 355 390 346 c 1
 222 346 l 1
 218 326 215 311 213 296 c 1
 378 296 l 2
 383 296 386 288 386 282 c 0
 386 266 380 252 370 243 c 1
 209 243 l 1
 208 132 252 46 352 46 c 0
 406 46 449 66 477 90 c 0
 511 118 546 174 550 174 c 0
 559 174 579 157 582 144 c 1
 580 133 553 89 497 46 c 0
 453 12 383 -6 300 -6 c 0
 163 -6 70 104 69 243 c 1
 29 243 l 2
EndSplineSet
Validated: 33
EndChar

StartChar: arrowleft
Encoding: 8592 8592 222
Width: 717
Flags: W
HStem: 210 74<165 674.024>
LayerCount: 2
Fore
SplineSet
202 319 m 2
 165 284 l 1
 679 284 l 2
 685 284 686 281 686 271 c 0
 686 261 672 219 660 210 c 1
 150 210 l 1
 173 177 l 2
 208 126 227 108 227 99 c 0
 227 85 193 74 189 73 c 1
 188 75 135 132 17 227 c 0
 14 228 13 235 13 238 c 0
 13 247 17 259 26 268 c 1
 163 347 253 419 258 423 c 1
 263 422 286 411 286 399 c 0
 286 395 283 395 202 319 c 2
EndSplineSet
Validated: 1
EndChar

StartChar: arrowup
Encoding: 8593 8593 223
Width: 334
Flags: W
VStem: 15 325
LayerCount: 2
Fore
SplineSet
157 577 m 1
 119 540 l 1
 60 486 37 466 30 466 c 0
 19 466 15 496 15 502 c 1
 17 503 81 561 198 708 c 0
 201 713 206 714 212 714 c 0
 221 714 229 713 235 706 c 1
 283 575 337 505 340 500 c 1
 338 494 320 466 309 466 c 0
 302 466 289 486 251 540 c 2
 225 576 l 1
 105 -30 l 2
 104 -33 103 -36 92 -36 c 0
 75 -36 37 -22 37 -22 c 1
 157 577 l 1
EndSplineSet
Validated: 1
EndChar

StartChar: arrowright
Encoding: 8594 8594 224
Width: 704
Flags: W
HStem: 209 76<27.9756 537>
LayerCount: 2
Fore
SplineSet
537 209 m 1
 23 209 l 2
 17 209 16 212 16 222 c 0
 16 232 30 276 42 285 c 1
 552 285 l 1
 527 319 l 0
 487 371 471 390 473 398 c 0
 475 410 505 422 511 423 c 1
 515 419 566 347 672 268 c 1
 677 260 676 251 674 241 c 0
 673 235 670 229 665 227 c 1
 510 132 445 75 444 73 c 1
 439 74 414 86 416 98 c 0
 418 106 440 125 500 177 c 0
 537 209 l 1
EndSplineSet
Validated: 33
EndChar

StartChar: arrowdown
Encoding: 8595 8595 225
Width: 341
Flags: W
VStem: 0 325
LayerCount: 2
Fore
SplineSet
115 129 m 1
 235 735 l 2
 236 738 237 741 248 741 c 0
 265 741 303 727 303 727 c 1
 183 128 l 1
 221 165 l 1
 280 219 303 239 310 239 c 0
 321 239 325 209 325 203 c 1
 323 202 259 144 142 -3 c 0
 139 -8 134 -9 128 -9 c 0
 119 -9 111 -8 105 -1 c 1
 57 130 3 200 0 205 c 1
 2 211 20 239 31 239 c 0
 38 239 51 219 89 165 c 2
 115 129 l 1
EndSplineSet
Validated: 1
EndChar

StartChar: universal
Encoding: 8704 8704 226
Width: 652
Flags: W
HStem: -4 21G<187 200> 390 60<228.001 367.963> 631 36<7.4834 49.0558 204.528 261.43 428.625 480.466 597.391 656.462> 631 28<432.724 480.466>
LayerCount: 2
Fore
SplineSet
178 4 m 1xe0
 73 522 l 2
 67 559 63 577 59 597 c 0
 54 622 15 631 8 631 c 0
 5 631 6 641 7 647 c 0
 8 652 11 664 13 667 c 1xe0
 50 665 93 659 134 659 c 0xd0
 177 659 230 665 264 667 c 1
 268 662 262 631 257 631 c 0
 246 631 208 619 198 608 c 0
 196 605 194 603 193 597 c 0
 191 588 198 555 202 529 c 24
 207 500 214 455 214 455 c 1
 214 455 217 451 220 451 c 0
 255 449 288 450 311 450 c 0
 349 450 372 450 405 451 c 0
 408 451 412 454 413 456 c 1
 458 532 l 1
 474 556 487 577 490 594 c 0
 493 609 485 613 481 617 c 0
 470 628 433 633 426 633 c 0
 421 633 428 661 431 667 c 1
 468 665 491 661 532 661 c 0
 575 661 614 665 657 667 c 1
 658 665 658 658 657 652 c 0
 656 646 654 634 652 634 c 0
 641 634 581 610 568 592 c 0
 548 563 528 529 528 529 c 2
 256 77 l 0
 241 53 210 -4 190 -4 c 0
 184 -4 179 1 178 4 c 1xe0
367 387 m 0
 349 389 321 390 300 390 c 0
 271 390 261 390 232 388 c 0
 230 388 228 383 228 383 c 1
 261 205 l 1
 368 383 l 1
 368 383 369 387 367 387 c 0
EndSplineSet
Validated: 33
EndChar

StartChar: partialdiff
Encoding: 8706 8706 227
Width: 460
Flags: W
HStem: 0 55<103.298 226.484> 317 53<180.32 272.749> 580 62<198.138 298.507>
VStem: 327 106<368.94 550.27>
LayerCount: 2
Back
SplineSet
278 317 m 4
 242 317 213 270 201 209 c 4
 178 91 206 55 245 55 c 4
 298 55 325 145 339 219 c 5
 355 303 313 317 278 317 c 4
346 642 m 7
 460.579 642 490.888 531.848 490.888 422 c 7
 490.888 188 378 0 208 0 c 4
 117 0 56 60 82 194 c 4
 101 294 204 370 303 370 c 4
 341 370 359 361 362 361 c 4
 366.472 361 370 364 372 369 c 4
 377.687 386.061 384.849 426.733 384.849 466 c 7
 384.849 495.778 381.214 524.748 370 542 c 4
 349 575 310 580 282 580 c 7
 243 580 208 552 180 534 c 5
 176 538 173 564 186 576 c 4
 220 606 288 642 346 642 c 7
EndSplineSet
Fore
SplineSet
220 317 m 0
 184 317 155 270 143 209 c 0
 120 91 148 55 187 55 c 0
 240 55 267 145 281 219 c 1
 297 303 255 317 220 317 c 0
288 642 m 3
 403 642 433 532 433 422 c 3
 433 188 320 0 150 0 c 0
 59 0 -2 60 24 194 c 0
 43 294 146 370 245 370 c 0
 283 370 301 361 304 361 c 0
 308 361 312 364 314 369 c 0
 320 386 327 427 327 466 c 3
 327 496 323 525 312 542 c 0
 291 575 252 580 224 580 c 3
 185 580 150 552 122 534 c 1
 118 538 115 564 128 576 c 0
 162 606 230 642 288 642 c 3
EndSplineSet
Validated: 33
EndChar

StartChar: uni2206
Encoding: 8710 8710 228
Width: 603
Flags: W
HStem: 0 76<95.8638 440.969>
LayerCount: 2
Fore
SplineSet
444 83 m 6
 347 443 l 5
 344 446 339 447 335 441 c 6
 96 87 l 5
 93 80 96 76 101 76 c 6
 440 76 l 6
 444 76 445 79 444 83 c 6
411 613 m 5
 576 14 l 5
 576 14 569 8 566 0 c 5
 -3 0 l 5
 -6 6 -6 9 -8 16 c 5
 395 613 l 5
 411 613 l 5
EndSplineSet
Validated: 1
EndChar

StartChar: gradient
Encoding: 8711 8711 229
Width: 601
Flags: W
HStem: 566 76<153.955 502.136>
LayerCount: 2
Fore
SplineSet
154 559 m 2
 252 199 l 1
 255 196 259 195 263 201 c 2
 502 555 l 1
 505 562 502 566 497 566 c 2
 159 566 l 2
 155 566 153 563 154 559 c 2
187 29 m 1
 23 628 l 1
 23 628 30 634 33 642 c 1
 601 642 l 1
 604 636 604 633 606 626 c 1
 203 29 l 1
 187 29 l 1
EndSplineSet
Validated: 1
EndChar

StartChar: element
Encoding: 8712 8712 230
Width: 438
Flags: W
HStem: 11 60<122.933 361.902> 189 61<102.955 360.004> 370 60<169.75 430.022>
LayerCount: 2
Fore
SplineSet
362 220 m 0
 357 193 349 189 348 189 c 2
 95 189 l 2
 94 189 90 188 90 185 c 0
 89 122 119 71 181 71 c 2
 356 71 l 2
 356 71 369 64 362 29 c 0
 360 20 352 11 352 11 c 1
 171 11 l 2
 67 11 6 109 28 221 c 0
 49 330 142 430 243 430 c 2
 433 430 l 1
 433 430 437 421 435 409 c 0
 429 378 414 370 414 370 c 1
 232 370 l 2
 173 370 125 317 103 255 c 0
 102 252 104 250 107 250 c 2
 361 250 l 1
 361 249 365 237 362 220 c 0
EndSplineSet
Validated: 33
EndChar

StartChar: notelement
Encoding: 8713 8713 231
Width: 440
Flags: W
HStem: 11 60<139.564 362.902> 189 61<103.955 158 260 361.004> 370 60<170.75 288 389 431.022>
LayerCount: 2
Fore
SplineSet
75 -8 m 5
 72 -10 70 -10 66 -10 c 4
 63 -10 48 -6 39 10 c 4
 36 14 36 17 36 17 c 5
 65 58 l 1
 31 97 17 157 29 221 c 0
 50 330 143 430 244 430 c 2
 332 430 l 1
 370 484 l 5
 370 484 375 487 379 487 c 4
 390 487 399 479 405 470 c 4
 409 465 410 459 410 459 c 5
 389 430 l 1
 434 430 l 1
 434 430 438 421 436 409 c 0
 430 378 415 370 415 370 c 1
 346 370 l 1
 260 250 l 1
 362 250 l 1
 362 249 366 237 363 220 c 0
 358 193 350 189 349 189 c 2
 216 189 l 1
 139 81 l 1
 151 75 165 71 182 71 c 2
 357 71 l 1
 357 71 370 64 363 29 c 0
 361 20 353 11 353 11 c 1
 172 11 l 2
 145 11 121 18 101 29 c 1
 75 -8 l 5
203 250 m 1
 288 370 l 1
 233 370 l 2
 174 370 126 317 104 255 c 0
 103 252 105 250 108 250 c 2
 203 250 l 1
106 115 m 1
 158 189 l 1
 96 189 l 2
 95 189 91 188 91 185 c 0
 91 159 96 134 106 115 c 1
EndSplineSet
Validated: 33
EndChar

StartChar: summation
Encoding: 8721 8721 232
Width: 571
Flags: W
HStem: 2 58<160.956 424.897> 2 29<-7.53125 27.7578> 608 48<302.159 484.365> 627 29<113.102 139.47>
VStem: 530 34<506.298 551.036>
LayerCount: 2
Fore
SplineSet
464 0 m 1xa8
 363 0 188 2 103 2 c 0
 41 2 -8 -3 -8 -3 c 1
 -9 -1 -10 7 -8 15 c 0
 -6 23 -4 31 -2 31 c 0
 8 31 43 53 54 65 c 2
 271 306 l 2
 276 311 277 318 275 322 c 0
 267 342 208 490 156 592 c 0
 147 609 125 627 114 627 c 0
 112 627 112 634 113 641 c 0
 114 648 118 656 120 658 c 1
 120 658 166 656 228 656 c 0x58
 314 656 464 662 565 662 c 1
 562 612 564 556 564 511 c 1
 561 508 549 506 542 506 c 0
 535 506 531 508 530 513 c 0
 516 563 479 608 418 608 c 27
 398 608 392 608 366 608 c 0
 333 608 305 603 302 595 c 1
 409 360 l 1
 410 354 410 347 409 341 c 0
 408 336 405 332 402 329 c 0
 303 227 164 84 161 71 c 0
 160 64 162 60 225 60 c 0
 257 60 259 60 284 60 c 0
 332 60 391 65 421 80 c 0
 441 90 474 125 499 170 c 0
 501 174 506 176 513 176 c 0
 522 176 538 173 540 170 c 1
 512 116 479 44 464 0 c 1xa8
EndSplineSet
Validated: 33
EndChar

StartChar: minus
Encoding: 8722 8722 233
Width: 530
Flags: W
HStem: 209 74<43.2811 465.858>
LayerCount: 2
Fore
SplineSet
30 219 m 1
 30 219 47 283 56 283 c 2
 481 283 l 2
 484 283 487 283 486 276 c 0
 484 268 474 232 466 215 c 0
 463 209 458 209 458 209 c 1
 34 209 l 1
 34 209 28 209 30 219 c 1
EndSplineSet
Validated: 1
EndChar

StartChar: uni2213
Encoding: 8723 8723 234
Width: 513
Flags: W
HStem: 213 72<27.1421 192.109 280 450.789> 518 72<88.1413 501.217>
LayerCount: 2
Fore
SplineSet
262 210 m 2
 226 26 l 1
 226 26 210 16 167 10 c 0
 164 10 164 10 162 10 c 0
 156 10 157 13 158 17 c 2
 195 208 l 2
 195 210 195 213 190 213 c 2
 13 213 l 1
 13 213 7 213 9 223 c 0
 10 227 16 256 27 280 c 0
 30 286 35 285 35 285 c 1
 205 285 l 2
 208 285 211 289 211 291 c 2
 246 473 l 1
 246 473 246 478 252 480 c 0
 276 487 303 488 307 488 c 0
 316 488 315 482 315 482 c 1
 278 290 l 2
 277 287 277 285 280 285 c 2
 459 285 l 2
 463 285 466 285 465 278 c 0
 463 269 454 241 444 219 c 0
 441 213 437 213 437 213 c 1
 266 213 l 2
 263 213 262 212 262 210 c 2
511 590 m 1
 511 590 520 591 516 579 c 0
 500 531 492 521 489 518 c 1
 73 518 l 1
 73 518 65 517 70 531 c 0
 75 545 79 565 88 585 c 0
 91 591 95 590 95 590 c 1
 511 590 l 1
EndSplineSet
Validated: 1
EndChar

StartChar: radical
Encoding: 8730 8730 235
Width: 584
Flags: W
LayerCount: 2
Fore
SplineSet
14 150 m 1
 3 157 -6 174 -4 185 c 0
 -1 198 12 205 23 212 c 0
 58 235 168 312 183 324 c 0
 192 331 208 332 209 324 c 1
 212 292 212 280 217 254 c 2
 259 47 l 1
 275 90 542 791 542 791 c 1
 594 784 l 1
 594 784 287 -25 239 -153 c 1
 222 -171 194 -180 188 -180 c 0
 184 -180 181 -179 180 -175 c 2
 97 196 l 1
 14 150 l 1
EndSplineSet
Validated: 33
EndChar

StartChar: proportional
Encoding: 8733 8733 236
Width: 640
Flags: W
HStem: 37 73<136.311 237.394 517.052 560.164> 352 74<172.867 274.147 550.147 631.182>
LayerCount: 2
Fore
SplineSet
568 112 m 1
 576 112 576 101 574 90 c 0
 570 69 554 49 544 42 c 1
 422 42 379 162 369 162 c 2
 368 162 l 1
 306 99 237 37 146 37 c 0
 58 37 10 128 28 223 c 0
 49 332 152 426 253 426 c 0
 343 426 394 349 423 301 c 0
 424 299 427 298 428 300 c 0
 477 353 552 427 625 427 c 0
 632 427 635 396 631 373 c 0
 630 366 626 352 621 352 c 0
 617 352 612 352 605 352 c 0
 543 352 450 241 451 240 c 0
 466 210 497 112 568 112 c 1
112 229 m 0
 98 159 138 110 187 110 c 0
 248 110 313 187 341 218 c 0
 342 220 298 352 227 352 c 0
 177 352 125 297 112 229 c 0
EndSplineSet
Validated: 33
EndChar

StartChar: infinity
Encoding: 8734 8734 237
Width: 807
Flags: W
HStem: 39 74<133.222 239.941 522.875 625.953> 352 74<172.455 275.953 557.556 662.258>
LayerCount: 2
Fore
SplineSet
606 357 m 0
 549 357 473 268 454 246 c 0
 453 245 453 245 454 244 c 0
 469 214 509 113 573 113 c 0
 620 113 670 166 683 233 c 0
 697 304 658 357 606 357 c 0
227 352 m 0
 177 352 125 297 112 229 c 0
 98 159 137 110 186 110 c 0
 247 110 312 187 340 218 c 0
 341 219 342 219 341 220 c 0
 331 244 292 352 227 352 c 0
252 426 m 0
 342 426 393 349 422 301 c 0
 423 299 427 298 428 300 c 0
 477 353 555 426 645 426 c 0
 733 426 786 337 768 242 c 0
 747 132 642 39 540 39 c 0
 418 39 378 162 368 162 c 2
 367 162 l 1
 305 99 237 37 146 37 c 0
 58 37 10 128 28 223 c 0
 49 332 151 426 252 426 c 0
EndSplineSet
Validated: 33
EndChar

StartChar: notequal
Encoding: 8800 8800 238
Width: 509
Flags: W
HStem: 109 72<31.1421 145 253 443.789> 251 72<51.7465 246 355 470.928>
LayerCount: 2
Fore
SplineSet
39 261 m 1
 39 261 56 323 65 323 c 2
 298 323 l 1
 367 420 l 1
 367 420 372 423 376 423 c 0
 387 423 395 415 401 406 c 0
 405 401 407 395 407 395 c 1
 355 323 l 1
 483 323 l 2
 485 323 487 322 486 318 c 0
 484 309 474 279 464 257 c 0
 461 251 458 251 458 251 c 1
 303 251 l 1
 253 181 l 1
 451 181 l 2
 455 181 459 183 458 176 c 0
 456 167 447 137 437 115 c 0
 434 109 430 109 430 109 c 1
 202 109 l 1
 136 16 l 1
 133 14 130 14 126 14 c 0
 123 14 108 18 99 34 c 0
 96 38 96 41 96 41 c 1
 145 109 l 1
 16 109 l 1
 16 109 10 109 12 119 c 0
 13 123 20 152 31 176 c 0
 34 182 39 181 39 181 c 1
 196 181 l 1
 246 251 l 1
 44 251 l 1
 44 251 37 251 39 261 c 1
EndSplineSet
Validated: 1
EndChar

StartChar: lessequal
Encoding: 8804 8804 239
Width: 472
Flags: W
HStem: 4 67<7.51428 383.059>
LayerCount: 2
Back
SplineSet
437 62 m 5
 437 62 445 63 441 51 c 4
 425 3 421 9 418 6 c 5
 63 6 l 5
 63 6 54 5 59 19 c 4
 64 33 66 37 75 57 c 4
 78 63 82 62 82 62 c 5
 437 62 l 5
137 342 m 6
 516 529 l 6
 518 530 520 531 521 531 c 4
 524 531 529 521 528 484 c 4
 528 478 524 475 524 475 c 5
 188 310 l 5
 464 142 l 5
 464 142 466 141 465 136 c 4
 464 129 447 86 441 86 c 4
 440 86 438 87 436 88 c 6
 125 279 l 6
 113 287 113 301 116 318 c 4
 118 329 127 337 137 342 c 6
EndSplineSet
Fore
SplineSet
21 71 m 1
 74 71 382 71 382 71 c 2
 388 71 390 59 390 53 c 3
 390 39 381 21 372 4 c 1
 7 4 l 2
 0 4 0 16 0 22 c 3
 0 36 11 59 21 71 c 1
462 529 m 17
 466 524 474 498 474 477 c 27
 474 472 473 466 469 464 c 2
 138 308 l 1
 413 149 l 1
 413 131 397 86 391 86 c 0
 389 86 385 86 382 88 c 2
 62 269 l 2
 54 274 45 292 45 302 c 0
 45 328 73 348 85 354 c 0
 225 420 315 461 462 529 c 17
EndSplineSet
Validated: 1
EndChar

StartChar: greaterequal
Encoding: 8805 8805 240
Width: 456
Flags: W
HStem: 4 67<5.36435 381.584>
LayerCount: 2
Fore
SplineSet
18 71 m 1
 71 71 380 71 380 71 c 2
 386 71 388 59 388 53 c 3
 388 39 381 21 369 4 c 1
 5 4 l 2
 -2 4 -2 16 -2 22 c 3
 -2 36 9 59 18 71 c 1
23 86 m 17
 19 91 11 117 11 138 c 27
 11 143 12 149 16 151 c 2
 347 307 l 1
 72 466 l 1
 72 484 88 529 94 529 c 0
 96 529 100 529 103 527 c 2
 423 346 l 2
 431 341 440 323 440 313 c 0
 440 287 412 267 400 261 c 0
 260 195 170 154 23 86 c 17
EndSplineSet
Validated: 1
EndChar

StartChar: propersubset
Encoding: 8834 8834 241
Width: 437
Flags: W
HStem: 11 60<125.552 361.902> 370 60<169.75 430.022>
LayerCount: 2
Fore
SplineSet
232 370 m 2
 173 370 110 309 93 220 c 0
 76 130 119 71 181 71 c 2
 356 71 l 2
 356 71 369 64 362 29 c 0
 360 20 352 11 352 11 c 1
 171 11 l 2
 67 11 6 109 28 221 c 0
 49 330 142 430 243 430 c 2
 433 430 l 1
 433 430 437 421 435 409 c 0
 429 378 414 370 414 370 c 1
 232 370 l 2
EndSplineSet
Validated: 33
EndChar

StartChar: uni0302
Encoding: 770 770 242
Width: 263
Flags: W
HStem: 493 168
VStem: 128 219
LayerCount: 2
Fore
SplineSet
334 493 m 0
 324 493 268 543 247 567 c 1
 216 543 141 493 131 493 c 0
 125 493 126 506 128 516 c 1
 136 523 154 540 204 594 c 0
 230 623 241 638 251 651 c 0
 256 658 260 661 266 661 c 27
 272 661 272 657 275 651 c 0
 282 636 287 622 299 599 c 0
 327 545 342 523 347 516 c 1
 345 506 340 493 334 493 c 0
EndSplineSet
Validated: 1
EndChar

StartChar: tildecomb
Encoding: 771 771 243
Width: 410
Flags: W
HStem: 517 58<338.594 414.247> 577 59<208.067 286.975>
VStem: 159 306<545 608>
LayerCount: 2
Fore
SplineSet
260 636 m 0
 318 636 337 575 395 575 c 0
 421 575 453 624 459 624 c 1
 461 623 465 613 465 608 c 1
 465 590 410 517 366 517 c 0
 307 517 289 577 230 577 c 0
 207 577 174 526 164 526 c 0
 161 526 159 538 159 545 c 0
 159 578 220 636 260 636 c 0
EndSplineSet
Validated: 1
EndChar

StartChar: dotlessi
Encoding: 305 305 244
Width: 314
VWidth: 0
Flags: W
HStem: -9 91<131 220.448> 358 91<94.5517 179.5>
VStem: 77 119<82.9927 216.316> 119 119<214.847 357.234>
LayerCount: 2
Fore
SplineSet
163 449 m 7xd0
 196 449 238 428 238 353 c 4xd0
 238 317 199 133 198 128 c 6
 197 125 196 117 196 112 c 4
 196 92 205 82 216 82 c 4
 233 82 264 139 267 139 c 4
 274 139 293 125 298 110 c 5
 286 80 234 -9 152 -9 c 7
 110 -9 77 22 77 87 c 7xe0
 77 93 79 106 82 124 c 6
 117 312 l 6
 118 315 119 323 119 328 c 4
 119 348 110 358 99 358 c 4
 82 358 51 301 48 301 c 4
 41 301 22 315 17 330 c 5
 29 360 81 449 163 449 c 7xd0
EndSplineSet
Validated: 1
EndChar

StartChar: f_f
Encoding: 61696 61696 245
Width: 946
Flags: W
HStem: -218 55<51 159.132> -195 55<325.174 436.336> 370 59<228.326 278.781 413.062 563.938 698 831.625> 632 55<491.366 592.388> 640 55<777.491 886>
LayerCount: 2
Fore
SplineSet
392 -140 m 0x60
 455 -140 484 -48 500 29 c 2
 566 363 l 2
 566 364 566 364 566 365 c 3
 566 368 564 370 562 370 c 1
 404 370 l 2
 401 370 398 367 397 364 c 2
 339 60 l 2
 326 -7 300 -59 287 -82 c 1
 297 -105 350 -140 392 -140 c 0x60
575 687 m 0xb0
 622 687 667 656 693 636 c 1
 743 679 805 695 860 695 c 0
 912 695 940 677 953 662 c 1
 953 622 944 562 894 562 c 0
 851 562 858 640 819 640 c 0
 776 640 715 550 702 474 c 2
 695 433 l 2
 695 432 l 3
 695 430 695 428 698 428 c 2
 826 428 l 2
 834 428 836 419 836 413 c 0
 836 403 829 382 822 370 c 1
 689 370 l 2
 686 370 683 367 682 364 c 2
 628 87 l 2
 586 -132 423 -195 340 -195 c 0x68
 300 -195 252 -179 228 -158 c 1
 210 -183 129 -218 77 -218 c 0
 25 -218 -8 -196 -13 -179 c 1
 -13 -129 0 -92 43 -92 c 0
 84 -92 79 -163 118 -163 c 0
 172 -163 195 -75 210 2 c 2
 281 363 l 2
 281 364 281 364 281 365 c 3
 281 368 279 370 277 370 c 2
 218 370 l 2
 213 370 213 379 213 380 c 0
 213 391 240 429 270 429 c 2
 287 429 l 2
 292 429 294 434 296 445 c 0
 326 598 444 687 575 687 c 0xb0
540 632 m 0x30
 488 632 430 550 417 474 c 2
 410 433 l 2
 410 432 l 3
 410 430 410 429 414 429 c 2
 572 429 l 2
 577 429 579 434 581 445 c 0
 588 483 600 513 613 539 c 0
 614 540 614 543 614 546 c 24
 614 550 614 552 613 556 c 0
 612 564 607 632 540 632 c 0x30
EndSplineSet
Validated: 1
LCarets2: 1 0 
Ligature2: "'liga' Standard Ligatures in Latin lookup 0-1" f f
EndChar

StartChar: f_i
Encoding: 61697 61697 246
Width: 766
Flags: W
HStem: -218 55<51 157.866> -9 91<585 674.448> 370 59<229.326 279.75 413.953 568.369> 640 55<493.334 599.667>
VStem: 531 119<82.9927 218.038> 573 127<258.571 400>
LayerCount: 2
Fore
SplineSet
572 695 m 0xf4
 613 695 644 688 667 678 c 4
 698 665 716 646 726 628 c 1
 726 567 699 540 657 540 c 0
 628 540 630 584 604 614 c 0
 591 629 570 640 535 640 c 0
 492 640 433 562 418 475 c 2
 411 434 l 2
 411 433 l 3
 411 431 411 429 414 429 c 2
 522 429 l 0
 534 429 671 438 679 438 c 3
 686 438 700 404 700 396 c 3xf4
 700 386 697 359 690 323 c 0
 678 259 653 131 652 128 c 0
 651 125 650 117 650 112 c 0
 650 92 659 82 670 82 c 0
 687 82 718 139 721 139 c 0
 728 139 747 125 752 110 c 1
 740 80 688 -9 606 -9 c 3
 564 -9 531 22 531 87 c 3xf8
 531 93 533 106 536 124 c 2
 571 312 l 2
 572 315 573 323 573 328 c 0
 573 348 565 370 518 370 c 0
 405 370 l 2
 402 370 399 367 398 364 c 2
 339 60 l 2
 296 -160 162 -218 77 -218 c 0
 25 -218 -8 -196 -13 -179 c 1
 -13 -129 0 -92 43 -92 c 0
 84 -92 79 -163 118 -163 c 0
 172 -163 195 -75 210 2 c 2
 282 363 l 2
 282 364 282 364 282 365 c 3
 282 368 280 370 278 370 c 2
 219 370 l 2
 214 370 214 379 214 380 c 0
 214 391 241 430 271 430 c 2
 288 430 l 2
 293 430 295 435 297 446 c 0
 327 599 441 695 572 695 c 0xf4
EndSplineSet
Validated: 1
LCarets2: 1 0 
Ligature2: "'liga' Standard Ligatures in Latin lookup 0-1" f i
EndChar

StartChar: f_f_i
Encoding: 61698 61698 247
Width: 1053
Flags: W
HStem: -218 55<51 159.132> -195 55<325.174 436.336> -9 91<872 961.448> 370 59<228.326 278.781 413.062 563.938 698 855.369> 632 55<491.366 592.388> 640 55<779.325 885.332>
VStem: 818 119<82.9927 218.038> 860 127<258.571 400>
LayerCount: 2
Fore
SplineSet
822 640 m 0x35
 778 640 715 550 702 474 c 2
 695 433 l 2
 695 432 l 3
 695 430 695 428 698 428 c 2
 809 429 l 0
 821 429 958 438 966 438 c 3
 973 438 987 404 987 396 c 3x35
 987 386 984 359 977 323 c 0
 965 259 940 131 939 128 c 0
 938 125 937 117 937 112 c 0
 937 92 946 82 957 82 c 0
 974 82 1005 139 1008 139 c 0
 1015 139 1034 125 1039 110 c 1
 1027 80 975 -9 893 -9 c 3
 851 -9 818 22 818 87 c 3x36
 818 93 820 106 823 124 c 2
 858 312 l 2
 859 315 860 323 860 328 c 0
 860 348 852 370 805 370 c 0
 689 370 l 2
 686 370 683 367 682 364 c 2
 628 87 l 2
 586 -132 423 -195 340 -195 c 0x75
 300 -195 252 -179 228 -158 c 1
 210 -183 129 -218 77 -218 c 0
 25 -218 -8 -196 -13 -179 c 1
 -13 -129 0 -92 43 -92 c 0
 84 -92 79 -163 118 -163 c 0
 172 -163 195 -75 210 2 c 2
 281 363 l 2
 281 364 281 364 281 365 c 3
 281 368 279 370 277 370 c 2
 218 370 l 2
 213 370 213 379 213 380 c 0
 213 391 240 429 270 429 c 2
 287 429 l 2
 292 429 294 434 296 445 c 0
 326 598 444 687 575 687 c 0xb9
 622 687 667 656 693 636 c 1
 743 679 803 695 859 695 c 0
 955 695 995 659 1013 628 c 1
 1013 567 986 540 944 540 c 0
 901 540 927 640 822 640 c 0x35
287 -82 m 1
 297 -105 350 -140 392 -140 c 0x70
 455 -140 484 -48 500 29 c 2
 566 363 l 2
 566 364 566 364 566 365 c 3
 566 368 564 370 562 370 c 1
 404 370 l 2
 401 370 398 367 397 364 c 2
 339 60 l 2
 326 -7 300 -59 287 -82 c 1
613 539 m 0
 614 540 614 543 614 546 c 24
 614 550 614 552 613 556 c 0
 612 564 607 632 540 632 c 0x38
 488 632 430 550 417 474 c 2
 410 433 l 2
 410 432 l 3
 410 430 410 429 414 429 c 2
 572 429 l 2
 577 429 579 434 581 445 c 0
 588 483 600 513 613 539 c 0
EndSplineSet
Validated: 1
LCarets2: 2 0 0 
Ligature2: "'liga' Standard Ligatures in Latin lookup 0-1" f f i
EndChar

StartChar: f_l
Encoding: 61699 61699 248
Width: 776
Flags: W
HStem: -218 55<51 157.866> -9 91<585 674.448> 370 59<229.326 279.75 413.953 547.376> 640 55<493.334 603.081>
VStem: 531 119<82.9927 214.297>
LayerCount: 2
Fore
SplineSet
405 370 m 6
 401 370 399 367 398 364 c 6
 339 60 l 6
 296 -160 162 -218 77 -218 c 4
 25 -218 -8 -196 -13 -179 c 5
 -13 -129 0 -92 43 -92 c 4
 84 -92 79 -163 118 -163 c 4
 172 -163 195 -75 210 2 c 6
 282 363 l 6
 282 364 282 364 282 365 c 7
 282 368 280 370 278 370 c 6
 219 370 l 6
 214 370 214 379 214 380 c 4
 214 391 241 430 271 430 c 6
 288 430 l 6
 293 430 295 435 297 446 c 4
 327 599 441 695 572 695 c 4
 613 695 646 682 670 682 c 7
 705 682 735 685 756 695 c 4
 757 695 759 695 761 695 c 7
 766 695 770 682 770 678 c 13
 770 678 752 639 741 584 c 6
 652 128 l 6
 651 125 650 117 650 112 c 4
 650 92 659 82 670 82 c 4
 687 82 718 139 721 139 c 4
 728 139 747 125 752 110 c 5
 740 80 688 -9 606 -9 c 7
 564 -9 531 22 531 87 c 7
 531 93 532 106 535 123 c 6
 617 544 l 6
 620 558 621 569 621 575 c 4
 621 589 615 640 535 640 c 4
 492 640 433 562 418 475 c 6
 411 434 l 6
 411 433 l 7
 411 431 410 429 414 429 c 6
 542 429 l 6
 550 429 552 420 552 414 c 4
 552 404 545 382 538 370 c 5
 405 370 l 6
EndSplineSet
Validated: 1
Ligature2: "'liga' Standard Ligatures in Latin lookup 0-1" f l
EndChar

StartChar: f_f_l
Encoding: 61700 61700 249
Width: 1061
Flags: W
HStem: -218 55<51 159.132> -195 55<325.174 436.235> -9 91<870 959.448> 370 59<228.326 278.781 413.062 563.938 698.953 832.376> 632 55<491.366 592.388> 640 55<776.616 888.355>
VStem: 816 119<82.9927 214.297>
LayerCount: 2
Fore
SplineSet
822 640 m 0,0,-1
287 -82 m 1,1,-1
 297 -105 350 -140 392 -140 c 0,4,-1
 455 -140 484 -48 500 29 c 2,7,-1
 566 363 l 2,8,-1
 566 364 566 364 566 365 c 3,11,-1
 566 368 564 370 562 370 c 1,14,-1
 404 370 l 2,15,-1
 401 370 398 367 397 364 c 2,18,-1
 339 60 l 2,19,-1
 326 -7 300 -59 287 -82 c 1,1,-1
613 539 m 0,22,-1
 614 540 614 543 614 546 c 24,25,-1
 614 550 614 552 613 556 c 0,28,-1
 612 564 607 632 540 632 c 0,31,-1
 488 632 430 550 417 474 c 2,34,-1
 410 433 l 2,35,-1
 410 432 l 3,36,-1
 410 430 410 429 414 429 c 2,39,-1
 572 429 l 2,40,-1
 577 429 579 434 581 445 c 0,43,-1
 588 483 600 513 613 539 c 0,22,-1
955 682 m 3,46,-1
 990 682 1020 685 1041 695 c 0,49,-1
 1042 695 1044 695 1046 695 c 3,52,-1
 1051 695 1055 682 1055 678 c 9,55,-1
 1055 678 1037 639 1026 584 c 2,58,-1
 937 128 l 2,59,-1
 936 125 935 117 935 112 c 0,62,-1
 935 92 944 82 955 82 c 0,65,-1
 972 82 1003 139 1006 139 c 0,68,-1
 1013 139 1032 125 1037 110 c 1,71,-1
 1025 80 973 -9 891 -9 c 3,74,-1
 849 -9 816 22 816 87 c 3,77,-1
 816 93 817 106 820 123 c 2,80,-1
 902 544 l 2,81,-1
 905 558 906 569 906 575 c 0,84,-1
 906 589 900 640 820 640 c 0,87,-1
 777 640 718 562 703 475 c 2,90,-1
 696 434 l 2,91,-1
 696 433 l 3,92,-1
 696 431 695 429 699 429 c 2,95,-1
 827 429 l 2,96,-1
 835 429 837 420 837 414 c 0,99,-1
 837 404 830 382 823 370 c 1,102,-1
 690 370 l 2,103,-1
 686 370 684 367 683 364 c 2,106,-1
 628 87 l 2,107,-1
 585 -132 423 -195 340 -195 c 0,110,-1
 300 -195 252 -179 228 -158 c 1,113,-1
 210 -183 129 -218 77 -218 c 0,116,-1
 25 -218 -8 -196 -13 -179 c 1,119,-1
 -13 -129 0 -92 43 -92 c 0,122,-1
 84 -92 79 -163 118 -163 c 0,125,-1
 172 -163 195 -75 210 2 c 2,128,-1
 281 363 l 2,129,-1
 281 364 281 364 281 365 c 3,132,-1
 281 368 279 370 277 370 c 2,135,-1
 218 370 l 2,136,-1
 213 370 213 379 213 380 c 0,139,-1
 213 391 240 429 270 429 c 2,142,-1
 287 429 l 2,143,-1
 292 429 294 434 296 445 c 0,146,-1
 326 598 444 687 575 687 c 0,149,-1
 622 687 667 656 693 636 c 1,152,-1
 743 679 803 695 859 695 c 0,155,-1
 910 695 931 682 955 682 c 3,46,-1
EndSplineSet
Validated: 1
LCarets2: 2 0 0 
Ligature2: "'liga' Standard Ligatures in Latin lookup 0-1" f f l
EndChar

StartChar: f_b
Encoding: 61701 61701 250
Width: 970
Flags: W
HStem: -218 55<51 157.866> -10 55<649.779 718.177> 363 86<783.537 860.55> 370 59<229.326 279.75 413.953 547.376> 640 55<493.334 603.081>
VStem: 536 112<45.5684 213.841> 825 130<216.87 360.36>
LayerCount: 2
Fore
SplineSet
795 363 m 3xee
 750 363 677 265 664 190 c 2
 656 145 l 2
 652 122 648 95 648 90 c 3
 648 68 650 45 674 45 c 3
 746 45 825 226 825 318 c 3
 825 337 820 363 795 363 c 3xee
617 544 m 2
 620 558 621 569 621 575 c 0
 621 589 615 640 535 640 c 0
 492 640 433 562 418 475 c 2
 411 434 l 2
 411 433 l 3
 411 431 410 429 414 429 c 2
 542 429 l 2
 550 429 552 420 552 414 c 0
 552 404 545 382 538 370 c 1
 405 370 l 2xde
 401 370 399 367 398 364 c 2
 339 60 l 2
 296 -160 162 -218 77 -218 c 0
 25 -218 -8 -196 -13 -179 c 1
 -13 -129 0 -92 43 -92 c 0
 84 -92 79 -163 118 -163 c 0
 172 -163 195 -75 210 2 c 2
 282 363 l 2xee
 282 364 282 364 282 365 c 3
 282 368 280 370 278 370 c 2
 219 370 l 2xde
 214 370 214 379 214 380 c 0
 214 391 241 430 271 430 c 2
 288 430 l 2
 293 430 295 435 297 446 c 0
 327 599 441 695 572 695 c 0
 613 695 646 682 670 682 c 3
 705 682 735 685 756 695 c 0
 757 695 759 695 761 695 c 3
 766 695 770 682 770 678 c 9
 770 678 752 639 741 584 c 10
 696 352 l 2
 695 348 696 346 698 346 c 3
 700 346 703 347 706 350 c 0
 752 405 795 449 848 449 c 0
 899 449 955 422 955 331 c 3
 955 138 775 -10 661 -10 c 3
 580 -10 536 34 536 95 c 3
 536 100 537 128 541 151 c 2
 617 544 l 2
EndSplineSet
Validated: 1
Ligature2: "'liga' Standard Ligatures in Latin lookup 0-1" f b
EndChar

StartChar: f_f_b
Encoding: 61702 61702 251
Width: 1254
Flags: W
HStem: -218 55<51 159.132> -195 55<325.174 436.235> -10 55<933.779 1002.18> 363 86<1067.54 1144.55> 370 59<228.326 278.781 413.062 563.938 698.953 832.376> 632 55<491.366 592.388> 640 55<776.616 888.355>
VStem: 820 112<45.5684 213.841> 1109 130<216.87 360.36>
LayerCount: 2
Fore
SplineSet
1079 363 m 3x3180
 1034 363 961 265 948 190 c 2
 940 145 l 2
 936 122 932 95 932 90 c 3
 932 68 934 45 958 45 c 3
 1030 45 1109 226 1109 318 c 3
 1109 337 1104 363 1079 363 c 3x3180
901 544 m 2
 904 558 906 569 906 575 c 0
 906 589 900 640 820 640 c 0
 777 640 718 562 703 475 c 2
 696 434 l 2
 696 433 l 3
 696 431 695 429 699 429 c 2
 827 429 l 2
 835 429 837 420 837 414 c 0
 837 404 830 382 823 370 c 1
 690 370 l 2
 686 370 684 367 683 364 c 2
 628 87 l 2
 585 -132 423 -195 340 -195 c 0x6b80
 300 -195 252 -179 228 -158 c 1
 210 -183 129 -218 77 -218 c 0
 25 -218 -8 -196 -13 -179 c 1
 -13 -129 0 -92 43 -92 c 0
 84 -92 79 -163 118 -163 c 0
 172 -163 195 -75 210 2 c 2
 281 363 l 2xb180
 281 364 281 364 281 365 c 3
 281 368 279 370 277 370 c 2
 218 370 l 2
 213 370 213 379 213 380 c 0
 213 391 240 429 270 429 c 2
 287 429 l 2
 292 429 294 434 296 445 c 0
 326 598 444 687 575 687 c 0x2d80
 622 687 667 656 693 636 c 1
 743 679 803 695 859 695 c 0
 910 695 931 682 955 682 c 3
 990 682 1020 685 1041 695 c 0
 1042 695 1044 695 1046 695 c 3x2380
 1051 695 1055 682 1055 678 c 9
 1055 678 1036 639 1025 584 c 10
 980 352 l 2
 979 348 980 346 982 346 c 3
 984 346 987 347 990 350 c 0
 1036 405 1079 449 1132 449 c 0
 1183 449 1239 422 1239 331 c 3
 1239 138 1059 -10 945 -10 c 3
 864 -10 820 34 820 95 c 3
 820 100 821 128 825 151 c 2
 901 544 l 2
822 640 m 0
287 -82 m 1
 297 -105 350 -140 392 -140 c 0
 455 -140 484 -48 500 29 c 2
 566 363 l 2x7180
 566 364 566 364 566 365 c 3
 566 368 564 370 562 370 c 1
 404 370 l 2
 401 370 398 367 397 364 c 2
 339 60 l 2
 326 -7 300 -59 287 -82 c 1
613 539 m 0
 614 540 614 543 614 546 c 24
 614 550 614 552 613 556 c 0
 612 564 607 632 540 632 c 0
 488 632 430 550 417 474 c 2
 410 433 l 2
 410 432 l 3
 410 430 410 429 414 429 c 2
 572 429 l 2x2d80
 577 429 579 434 581 445 c 0
 588 483 600 513 613 539 c 0
EndSplineSet
Validated: 1
Ligature2: "'liga' Standard Ligatures in Latin lookup 0-1" f f b
EndChar

StartChar: f_k
Encoding: 61703 61703 252
Width: 992
VWidth: 0
Flags: W
HStem: -218 55<51 157.866> -4 70<821 915.614> 370 59<229.326 279.75 413.953 547.376> 376 73<762.706 863> 640 55<493.334 603.081>
VStem: 829 125<287.776 371.32>
LayerCount: 2
Fore
SplineSet
572 695 m 0xec
 613 695 646 682 670 682 c 3
 705 682 735 685 756 695 c 0
 757 695 759 695 761 695 c 3
 766 695 770 682 770 678 c 9
 770 678 751 639 741 584 c 2
 696 346 l 2
 696 345 696 342 697 342 c 3
 698 342 699 344 701 349 c 0
 713 375 750 449 834 449 c 3xdc
 892 449 954 416 954 357 c 27
 954 271 857 209 797 202 c 1
 815 156 859 66 890 66 c 0
 916 66 933 104 941 115 c 0
 942 116 947 117 950 117 c 3
 960 117 972 107 975 102 c 1
 965 75 934 -4 844 -4 c 0
 798 -4 771 16 737 54 c 0
 699 98 668 196 668 196 c 2
 668 197 667 197 667 197 c 3
 666 197 666 197 666 196 c 0
 651 121 643 76 628 0 c 17
 615 -6 584 -8 573 -8 c 0
 562 -8 524 -3 512 0 c 1
 512 0 575 327 617 544 c 0
 620 558 621 569 621 575 c 0
 621 589 615 640 535 640 c 0
 492 640 433 562 418 475 c 2
 411 434 l 2
 411 433 l 3
 411 431 410 429 414 429 c 2
 542 429 l 2
 550 429 552 420 552 414 c 0
 552 404 545 382 538 370 c 1
 405 370 l 2
 401 370 399 367 398 364 c 2
 339 60 l 2
 296 -160 162 -218 77 -218 c 0
 25 -218 -8 -196 -13 -179 c 1
 -13 -129 0 -92 43 -92 c 0
 84 -92 79 -163 118 -163 c 0
 172 -163 195 -75 210 2 c 2
 282 363 l 2
 282 364 282 364 282 365 c 3
 282 368 280 370 278 370 c 2
 219 370 l 2
 214 370 214 379 214 380 c 0
 214 391 241 430 271 430 c 2
 288 430 l 2
 293 430 295 435 297 446 c 0
 327 599 441 695 572 695 c 0xec
792 376 m 3
 733 376 679 277 679 253 c 3
 679 245 693 241 712 241 c 0
 720 241 762 242 792 262 c 0
 816 278 829 307 829 333 c 3
 829 351 815 376 792 376 c 3
EndSplineSet
Validated: 1
Ligature2: "'liga' Standard Ligatures in Latin lookup 0-1" f k
EndChar

StartChar: f_f_k
Encoding: 61704 61704 253
Width: 1277
Flags: W
HStem: -218 55<51 159.132> -195 55<325.174 436.235> -4 70<1106 1200.61> 370 59<228.326 278.781 413.062 563.938 698.953 832.376> 376 73<1047.71 1148> 632 55<491.366 592.388> 640 55<776.616 888.355>
VStem: 1114 125<287.776 371.32>
LayerCount: 2
Fore
SplineSet
902 544 m 0x2b
 905 558 906 569 906 575 c 0
 906 589 900 640 820 640 c 0
 777 640 718 562 703 475 c 2
 696 434 l 2
 696 433 l 3
 696 431 695 429 699 429 c 2
 827 429 l 2
 835 429 837 420 837 414 c 0
 837 404 830 382 823 370 c 1
 690 370 l 2
 686 370 684 367 683 364 c 2
 628 87 l 2
 585 -132 423 -195 340 -195 c 0x73
 300 -195 252 -179 228 -158 c 1
 210 -183 129 -218 77 -218 c 0
 25 -218 -8 -196 -13 -179 c 1
 -13 -129 0 -92 43 -92 c 0
 84 -92 79 -163 118 -163 c 0
 172 -163 195 -75 210 2 c 2
 281 363 l 2
 281 364 281 364 281 365 c 3
 281 368 279 370 277 370 c 2
 218 370 l 2
 213 370 213 379 213 380 c 0
 213 391 240 429 270 429 c 2
 287 429 l 2
 292 429 294 434 296 445 c 0
 326 598 444 687 575 687 c 0xb5
 622 687 667 656 693 636 c 1
 743 679 803 695 859 695 c 0
 910 695 931 682 955 682 c 3
 990 682 1020 685 1041 695 c 0
 1042 695 1044 695 1046 695 c 3
 1051 695 1055 682 1055 678 c 9
 1055 678 1036 639 1026 584 c 2
 981 346 l 2
 981 345 981 342 982 342 c 3
 983 342 984 344 986 349 c 0
 998 375 1035 449 1119 449 c 3
 1177 449 1239 416 1239 357 c 27
 1239 271 1142 209 1082 202 c 1
 1100 156 1144 66 1175 66 c 0
 1201 66 1218 104 1226 115 c 0
 1227 116 1232 117 1235 117 c 3
 1245 117 1257 107 1260 102 c 1
 1250 75 1219 -4 1129 -4 c 0
 1083 -4 1056 16 1022 54 c 0
 984 98 953 196 953 196 c 2
 953 197 952 197 952 197 c 3
 951 197 951 197 951 196 c 0
 936 121 928 76 913 0 c 17
 900 -6 869 -8 858 -8 c 0
 847 -8 809 -3 797 0 c 1
 797 0 861 334 902 544 c 0x2b
1077 376 m 3x29
 1018 376 964 277 964 253 c 3
 964 245 978 241 997 241 c 0
 1005 241 1047 242 1077 262 c 0
 1101 278 1114 307 1114 333 c 3
 1114 351 1100 376 1077 376 c 3x29
822 640 m 0x23
287 -82 m 1
 297 -105 350 -140 392 -140 c 0
 455 -140 484 -48 500 29 c 2
 566 363 l 2
 566 364 566 364 566 365 c 3
 566 368 564 370 562 370 c 1
 404 370 l 2x71
 401 370 398 367 397 364 c 2
 339 60 l 2
 326 -7 300 -59 287 -82 c 1
613 539 m 0
 614 540 614 543 614 546 c 24
 614 550 614 552 613 556 c 0
 612 564 607 632 540 632 c 0x35
 488 632 430 550 417 474 c 2
 410 433 l 2
 410 432 l 3
 410 430 410 429 414 429 c 2
 572 429 l 2
 577 429 579 434 581 445 c 0
 588 483 600 513 613 539 c 0
EndSplineSet
Validated: 1
Ligature2: "'liga' Standard Ligatures in Latin lookup 0-1" f f k
EndChar

StartChar: f_h
Encoding: 61705 61705 254
Width: 993
Flags: W
HStem: -218 55<51 157.866> -9 91<818.5 903.448> 341 108<750.5 862> 370 59<229.326 279.75 413.953 547.376> 640 55<493.334 603.081>
VStem: 760 119<82.7656 208.796> 796 119<192.762 367.5>
LayerCount: 2
Fore
SplineSet
741 584 m 0xda
 721 482 688 314 688 311 c 0
 688 310 689 310 689 310 c 3
 690 310 690 310 690 310 c 16
 703 335 756 449 833 449 c 0
 891 449 915 394 915 341 c 0xea
 915 312 910 284 906 264 c 2
 881 128 l 2
 880 125 879 117 879 112 c 0
 879 92 888 82 899 82 c 0
 916 82 947 139 950 139 c 0
 957 139 976 125 981 110 c 1
 969 80 917 -9 835 -9 c 3
 802 -9 760 12 760 87 c 0xec
 760 133 796 246 796 296 c 0
 796 326 791 341 768 341 c 0xea
 733 341 671 211 642 73 c 8
 636 45 633 28 627 0 c 17
 617 -3 584 -6 574 -6 c 0
 564 -6 525 -4 512 0 c 9
 617 544 l 2
 620 560 621 569 621 575 c 0
 621 589 615 640 535 640 c 0
 492 640 433 562 418 475 c 2
 411 434 l 2
 411 433 l 3
 411 431 410 429 414 429 c 2
 542 429 l 2
 550 429 552 420 552 414 c 0
 552 404 545 382 538 370 c 1
 405 370 l 2
 401 370 399 367 398 364 c 2
 339 60 l 2
 296 -160 162 -218 77 -218 c 0
 25 -218 -8 -196 -13 -179 c 1
 -13 -129 0 -92 43 -92 c 0
 84 -92 79 -163 118 -163 c 0
 172 -163 195 -75 210 2 c 2
 282 363 l 2
 282 364 282 364 282 365 c 3
 282 368 280 370 278 370 c 2
 219 370 l 2
 214 370 214 379 214 380 c 0
 214 391 241 430 271 430 c 2
 288 430 l 2
 293 430 295 435 297 446 c 0
 327 599 441 695 572 695 c 0
 613 695 646 682 670 682 c 3
 705 682 735 685 756 695 c 0
 757 695 759 695 761 695 c 3
 766 695 770 682 770 678 c 9
 770 678 752 639 741 584 c 0xda
EndSplineSet
Validated: 1
Ligature2: "'liga' Standard Ligatures in Latin lookup 0-1" f h
EndChar

StartChar: f_f_h
Encoding: 61706 61706 255
Width: 1278
Flags: W
HStem: -218 55<51 159.132> -195 55<325.174 436.235> -9 91<1103.5 1188.45> 341 108<1035.5 1147> 370 59<228.326 278.781 413.062 563.938 698.953 832.376> 632 55<491.366 592.388> 640 55<776.616 888.355>
VStem: 1045 119<82.7656 208.796> 1081 119<192.762 367.5>
LayerCount: 2
Fore
SplineSet
1025 584 m 0x2280
 1005 482 973 314 973 311 c 0
 973 310 974 310 974 310 c 3
 975 310 975 310 975 310 c 16
 988 335 1041 449 1118 449 c 0
 1176 449 1200 394 1200 341 c 0x3280
 1200 312 1195 284 1191 264 c 2
 1166 128 l 2
 1165 125 1164 117 1164 112 c 0
 1164 92 1173 82 1184 82 c 0
 1201 82 1232 139 1235 139 c 0
 1242 139 1261 125 1266 110 c 1
 1254 80 1202 -9 1120 -9 c 3
 1087 -9 1045 12 1045 87 c 0x33
 1045 133 1081 246 1081 296 c 0
 1081 326 1076 341 1053 341 c 0x3280
 1018 341 956 211 927 73 c 8
 921 45 918 28 912 0 c 17
 902 -3 869 -6 859 -6 c 0
 849 -6 810 -4 797 0 c 9
 902 544 l 2
 905 560 906 569 906 575 c 0
 906 589 900 640 820 640 c 0
 777 640 718 562 703 475 c 2
 696 434 l 2
 696 433 l 3
 696 431 695 429 699 429 c 2
 827 429 l 2
 835 429 837 420 837 414 c 0
 837 404 830 382 823 370 c 1
 690 370 l 2
 686 370 684 367 683 364 c 2
 628 87 l 2
 585 -132 423 -195 340 -195 c 0x6a80
 300 -195 252 -179 228 -158 c 1
 210 -183 129 -218 77 -218 c 0
 25 -218 -8 -196 -13 -179 c 1
 -13 -129 0 -92 43 -92 c 0
 84 -92 79 -163 118 -163 c 0
 172 -163 195 -75 210 2 c 2
 281 363 l 2
 281 364 281 364 281 365 c 3
 281 368 279 370 277 370 c 2
 218 370 l 2
 213 370 213 379 213 380 c 0
 213 391 240 429 270 429 c 2
 287 429 l 2
 292 429 294 434 296 445 c 0
 326 598 444 687 575 687 c 0xac80
 622 687 667 656 693 636 c 1
 743 679 803 695 859 695 c 0
 910 695 931 682 955 682 c 3
 990 682 1020 685 1041 695 c 0
 1042 695 1044 695 1046 695 c 3
 1051 695 1055 682 1055 678 c 9
 1044 641 1036 639 1025 584 c 0x2280
822 640 m 0
287 -82 m 1
 297 -105 350 -140 392 -140 c 0
 455 -140 484 -48 500 29 c 2
 566 363 l 2
 566 364 566 364 566 365 c 3
 566 368 564 370 562 370 c 1
 404 370 l 2x68
 401 370 398 367 397 364 c 2
 339 60 l 2
 326 -7 300 -59 287 -82 c 1
613 539 m 0
 614 540 614 543 614 546 c 24
 614 550 614 552 613 556 c 0
 612 564 607 632 540 632 c 0x2c
 488 632 430 550 417 474 c 2
 410 433 l 2
 410 432 l 3
 410 430 410 429 414 429 c 2
 572 429 l 2
 577 429 579 434 581 445 c 0
 588 483 600 513 613 539 c 0
EndSplineSet
Validated: 1
Ligature2: "'liga' Standard Ligatures in Latin lookup 0-1" f f h
EndChar

StartChar: f_j
Encoding: 61707 61707 256
Width: 732
VWidth: 0
Flags: W
HStem: -218 55<51 157.866> -218 37<386.219 406.984> 370 59<229.326 279.75 413.953 568.369> 640 55<493.334 599.667>
VStem: 573 127<259.281 400>
LayerCount: 2
Fore
SplineSet
651 120 m 0xb8
 635 36 606 -47 565 -102 c 0
 522 -159 429 -210 401 -218 c 1
 396 -215 385 -204 385 -193 c 0
 385 -187 385 -184 388 -181 c 0x78
 479 -101 502 -49 531 100 c 0
 571 312 l 2
 572 316 573 323 573 328 c 0
 573 348 565 370 518 370 c 0
 405 370 l 2
 402 370 399 367 398 364 c 2
 339 60 l 2
 296 -160 162 -218 77 -218 c 0
 25 -218 -8 -196 -13 -179 c 1
 -13 -129 0 -92 43 -92 c 0
 84 -92 79 -163 118 -163 c 0
 172 -163 195 -75 210 2 c 2
 282 363 l 2
 282 364 282 364 282 365 c 3
 282 368 280 370 278 370 c 2
 219 370 l 2
 214 370 214 379 214 380 c 0
 214 391 241 430 271 430 c 2
 288 430 l 2
 293 430 295 435 297 446 c 0
 327 599 441 695 572 695 c 0
 613 695 644 688 667 678 c 0
 698 665 716 646 726 628 c 1
 726 567 699 540 657 540 c 0
 628 540 630 584 604 614 c 0
 591 629 570 640 535 640 c 0
 492 640 433 562 418 475 c 2
 411 434 l 2
 411 433 l 3
 411 431 411 429 414 429 c 2
 522 429 l 0
 534 429 671 438 679 438 c 3
 686 438 700 404 700 396 c 3
 700 386 697 359 690 323 c 0
 678 259 666 195 651 120 c 0xb8
EndSplineSet
Validated: 1
Ligature2: "'liga' Standard Ligatures in Latin lookup 0-1" f j
EndChar

StartChar: f_f_j
Encoding: 61708 61708 257
Width: 1019
Flags: W
HStem: -218 55<51 159.132> -218 37<673.219 693.984> -195 55<325.174 436.336> 370 59<228.326 278.781 413.062 563.938 698 855.369> 632 55<491.366 592.388> 640 55<779.325 885.332>
VStem: 860 127<259.281 400>
LayerCount: 2
Fore
SplineSet
805 370 m 0x56
 689 370 l 2
 686 370 683 367 682 364 c 2
 628 87 l 2
 586 -132 423 -195 340 -195 c 0x32
 300 -195 252 -179 228 -158 c 1
 210 -183 129 -218 77 -218 c 0
 25 -218 -8 -196 -13 -179 c 1
 -13 -129 0 -92 43 -92 c 0
 84 -92 79 -163 118 -163 c 0
 172 -163 195 -75 210 2 c 2
 281 363 l 2
 281 364 281 364 281 365 c 3
 281 368 279 370 277 370 c 2
 218 370 l 2
 213 370 213 379 213 380 c 0
 213 391 240 429 270 429 c 2
 287 429 l 2
 292 429 294 434 296 445 c 0
 326 598 444 687 575 687 c 0x9a
 622 687 667 656 693 636 c 1
 743 679 803 695 859 695 c 0
 955 695 995 659 1013 628 c 1
 1013 567 986 540 944 540 c 0
 901 540 927 640 822 640 c 0
 778 640 715 550 702 474 c 2
 695 433 l 2
 695 432 l 3
 695 430 695 428 698 428 c 2
 809 429 l 0
 821 429 958 438 966 438 c 3
 973 438 987 404 987 396 c 3
 987 386 984 359 977 323 c 0
 965 259 953 195 938 120 c 0
 922 36 893 -47 852 -102 c 0
 809 -159 716 -210 688 -218 c 1
 683 -215 672 -204 672 -193 c 0
 672 -187 672 -184 675 -181 c 0
 766 -101 789 -49 818 100 c 0
 858 312 l 2
 859 316 860 323 860 328 c 0
 860 348 852 370 805 370 c 0x56
287 -82 m 1
 297 -105 350 -140 392 -140 c 0
 455 -140 484 -48 500 29 c 2
 566 363 l 2
 566 364 566 364 566 365 c 3
 566 368 564 370 562 370 c 1
 404 370 l 2
 401 370 398 367 397 364 c 2
 339 60 l 2
 326 -7 300 -59 287 -82 c 1
613 539 m 0
 614 540 614 543 614 546 c 24
 614 550 614 552 613 556 c 0
 612 564 607 632 540 632 c 0x1a
 488 632 430 550 417 474 c 2
 410 433 l 2
 410 432 l 3
 410 430 410 429 414 429 c 2
 572 429 l 2
 577 429 579 434 581 445 c 0
 588 483 600 513 613 539 c 0
EndSplineSet
Validated: 1
Ligature2: "'liga' Standard Ligatures in Latin lookup 0-1" f f j
EndChar

StartChar: T_h
Encoding: 61709 61709 258
Width: 962
Flags: W
HStem: -9 91<787.5 872.448> -4 34<64.08 122.896 282.061 322.646> 341 108<719.5 831> 607 50<95.5 235.55 377.224 582.519> 675 20G<714.5 732.5>
VStem: 729 119<82.7656 208.796> 765 119<192.762 367.5>
LayerCount: 2
Fore
SplineSet
586 544 m 2xba
 587 548 588 554 588 558 c 0
 588 602 562 607 515 607 c 0
 442 607 382 597 379 589 c 0
 366 561 361 538 354 500 c 2
 284 139 l 2
 278 108 274 92 274 59 c 3
 274 43 315 30 322 30 c 0
 323 30 324 28 324 25 c 0
 324 17 321 2 317 -4 c 1
 280 -2 231 4 190 4 c 0
 147 4 107 -2 64 -4 c 1
 63 -3 63 -1 63 2 c 0
 63 12 67 30 69 30 c 0
 80 30 120 39 128 52 c 0
 138 69 150 117 153 135 c 2
 223 497 l 2
 229 528 236 559 236 577 c 0
 236 604 225 607 161 607 c 0
 113 607 74 583 42 509 c 0
 40 505 37 504 32 504 c 0
 24 504 9 508 7 511 c 1
 56 674 l 1
 70 670 105 663 118 663 c 0
 201 662 246 657 320 657 c 0
 394 657 477 658 542 662 c 0
 585 665 704 685 725 695 c 0
 726 695 728 695 730 695 c 3
 735 695 739 682 739 678 c 1
 739 678 716 616 708 575 c 0
 688 473 657 314 657 311 c 0
 657 310 658 310 658 310 c 3
 659 310 659 310 659 310 c 16
 672 335 725 449 802 449 c 0
 860 449 884 394 884 341 c 0x7a
 884 312 879 284 875 264 c 2
 850 128 l 2
 849 125 848 117 848 112 c 0
 848 92 857 82 868 82 c 0
 885 82 916 139 919 139 c 0
 926 139 945 125 950 110 c 1
 938 80 886 -9 804 -9 c 3
 771 -9 729 12 729 87 c 0xbc
 729 133 765 246 765 296 c 0
 765 326 760 341 737 341 c 0
 702 341 640 211 611 73 c 8
 605 45 602 28 596 0 c 17
 586 -3 553 -6 543 -6 c 0
 533 -6 494 -4 481 0 c 9
 586 544 l 2xba
EndSplineSet
Validated: 1
Ligature2: "'liga' Standard Ligatures in Latin lookup 0-1" T h
EndChar

StartChar: uni02F3
Encoding: 755 755 259
Width: 228
Flags: W
HStem: 535 150
VStem: 152 173
LayerCount: 2
Fore
SplineSet
311 535 m 4
 298 535 152 602 152 641 c 4
 152 658 175 685 208 685 c 4
 214 685 218 684 221 682 c 4
 248 657 325 566 325 557 c 4
 325 551 317 535 311 535 c 4
EndSplineSet
Validated: 1
EndChar

StartChar: uni02F4
Encoding: 756 756 260
Width: 228
Flags: W
HStem: 535 150
VStem: 184 173
LayerCount: 2
Fore
SplineSet
198 535 m 0
 192 535 184 551 184 557 c 0
 184 566 261 657 288 682 c 0
 291 684 295 685 301 685 c 0
 334 685 357 658 357 641 c 0
 357 602 211 535 198 535 c 0
EndSplineSet
Validated: 1
EndChar

StartChar: uni02F5
Encoding: 757 757 261
Width: 266
Flags: W
HStem: 706 131
VStem: 24 228
LayerCount: 2
Fore
SplineSet
239 706 m 4
 228 706 173 738 146 759 c 1
 112 740 41 706 30 706 c 0
 23 706 23 722 24 726 c 1
 33 735 62 756 92 782 c 0
 109 796 126 811 140 828 c 0
 146 834 152 837 156 837 c 0
 161 837 168 832 171 828 c 0
 181 813 192 798 204 784 c 0
 227 756 252 729 252 726 c 1
 250 718 245 706 239 706 c 4
EndSplineSet
Validated: 1
EndChar

StartChar: uni02F6
Encoding: 758 758 262
Width: 400
Flags: W
HStem: 703 63<369.678 472.226> 757 63<219.689 320.866>
LayerCount: 2
Fore
SplineSet
516 791 m 0x80
 516 768 475 703 409 703 c 0x80
 342 703 318 757 251 757 c 0
 224 757 184 712 177 712 c 0
 173 712 172 725 172 729 c 0
 172 758 221 820 282 820 c 0x40
 348 820 373 766 439 766 c 0
 466 766 507 811 511 811 c 0
 514 811 516 796 516 791 c 0x80
EndSplineSet
Validated: 1
EndChar

StartChar: uni0304
Encoding: 772 772 263
Width: 354
Flags: W
HStem: 530 69<167.546 405.555>
VStem: 157 260
LayerCount: 2
Fore
SplineSet
157 541 m 0
 168 589 179 599 182 599 c 2
 413 599 l 2
 415 599 419 597 417 589 c 0
 411 561 403 546 398 538 c 4
 394 532 392 530 392 530 c 1
 160 530 l 1
 160 530 154 529 157 541 c 0
EndSplineSet
Validated: 1
EndChar

StartChar: uni0305
Encoding: 773 773 264
Width: 526
Flags: W
HStem: 734 72<142.678 682.857>
LayerCount: 2
Fore
SplineSet
131 744 m 0
 131 746 146 806 156 806 c 2
 697 806 l 2
 699 806 703 805 701 797 c 0
 698 779 685 745 683 741 c 0
 680 735 674 734 674 734 c 1
 135 734 l 1
 135 734 129 734 131 744 c 0
EndSplineSet
Validated: 1
EndChar

StartChar: uni0306
Encoding: 774 774 265
Width: 233
Flags: W
HStem: 521 60<182.687 283.957>
VStem: 131 36<600.846 635.313> 314 28<618.089 636.885>
LayerCount: 2
Fore
SplineSet
233 581 m 0
 261 581 296 601 314 639 c 0
 315 641 316 642 318 642 c 0
 324 642 343 627 342 620 c 0
 342 618 340 615 339 613 c 0
 315 560 271 521 221 521 c 0
 171 521 135 560 131 613 c 0
 131 615 131 618 131 620 c 0
 132 627 158 642 164 642 c 0
 166 642 167 641 167 639 c 0
 170 601 205 581 233 581 c 0
EndSplineSet
Validated: 33
EndChar

StartChar: uni0307
Encoding: 775 775 266
Width: 285
Flags: W
HStem: 542 147<220.25 298.319>
VStem: 191 138<571.668 659.971>
LayerCount: 2
Fore
SplineSet
191 616 m 0
 199 657 236 689 274 689 c 4
 312 689 337 657 329 616 c 0
 321 575 284 542 246 542 c 0
 208 542 183 575 191 616 c 0
EndSplineSet
Validated: 33
EndChar

StartChar: uni0308
Encoding: 776 776 267
Width: 343
Flags: W
HStem: 465 139<143.859 219.141 319.288 394.712>
VStem: 117 129<492.062 577.554> 292 130<492.062 577.554>
LayerCount: 2
Fore
SplineSet
371 604 m 0
 407 604 429 573 422 535 c 0
 415 497 379 465 343 465 c 0
 307 465 285 497 292 535 c 0
 299 573 335 604 371 604 c 0
195 604 m 0
 231 604 253 573 246 535 c 0
 239 497 204 465 168 465 c 0
 132 465 110 497 117 535 c 0
 124 573 159 604 195 604 c 0
EndSplineSet
Validated: 33
EndChar

StartChar: hookabovecomb
Encoding: 777 777 268
Width: 167
Flags: W
HStem: 636 38<195.138 243.802>
VStem: 130 58<580.82 632.3> 150 44<499.931 514.906>
LayerCount: 2
Fore
SplineSet
242 674 m 0xc0
 280 674 301 649 295 616 c 0
 288 579 260 553 233 542 c 0
 211 533 198 528 195 515 c 0
 195 513 194 510 194 507 c 1
 193 504 169 498 156 498 c 1
 152 501 149 512 150 515 c 0xa0
 155 543 183 556 201 564 c 0
 224 574 239 587 243 606 c 0
 245 618 245 636 226 636 c 0
 205 636 192 619 188 600 c 0
 185 583 160 578 147 578 c 0
 139 578 128 583 130 595 c 0
 140 646 196 674 242 674 c 0xc0
EndSplineSet
Validated: 33
EndChar

StartChar: uni030A
Encoding: 778 778 269
Width: 426
Flags: W
HStem: 510 45<270.555 349.668> 663 44<283.185 362.399>
VStem: 224 184
LayerCount: 2
Fore
SplineSet
267 609 m 0
 261 579 278 555 306 555 c 0
 334 555 360 579 366 609 c 0
 372 639 355 663 327 663 c 0
 299 663 273 639 267 609 c 0
224 609 m 0
 234 663 286 707 336 707 c 0
 386 707 418 663 408 609 c 0
 398 555 347 510 297 510 c 0
 247 510 214 555 224 609 c 0
EndSplineSet
Validated: 33
EndChar

StartChar: uni030B
Encoding: 779 779 270
Width: 350
Flags: W
HStem: 494 150
VStem: 126 317
LayerCount: 2
Fore
SplineSet
284 494 m 0
 278 494 270 510 270 516 c 0
 270 525 347 616 374 641 c 0
 377 643 381 644 387 644 c 0
 420 644 443 617 443 600 c 0
 443 561 297 494 284 494 c 0
140 494 m 0
 134 494 126 510 126 516 c 0
 126 525 203 616 230 641 c 0
 233 643 237 644 243 644 c 0
 276 644 299 617 299 600 c 0
 299 561 153 494 140 494 c 0
EndSplineSet
Validated: 1
EndChar

StartChar: uni030C
Encoding: 780 780 271
Width: 263
Flags: W
HStem: 493 168
VStem: 151 220
LayerCount: 2
Fore
SplineSet
251 587 m 5
 282 611 357 661 367 661 c 0
 373 661 373 648 371 638 c 1
 363 631 339 609 290 555 c 0
 269 532 259 518 246 503 c 0
 240 497 239 493 233 493 c 27
 227 493 225 496 223 503 c 0
 218 516 213 531 198 560 c 0
 169 614 156 631 151 638 c 1
 153 648 158 661 164 661 c 0
 174 661 230 611 251 587 c 5
EndSplineSet
Validated: 1
EndChar

StartChar: uni0312
Encoding: 786 786 272
Width: 131
Flags: W
HStem: 473 162<183.352 199.141>
VStem: 103 97<499.768 580.5>
LayerCount: 2
Fore
SplineSet
229 518 m 0
 229 482 160 473 115 473 c 1
 105 484 103 498 103 520 c 0
 103 568 189 626 233 635 c 1
 234 635 235 635 236 635 c 0
 243 635 257 628 257 621 c 0
 257 618 200 593 200 568 c 0
 200 546 229 545 229 518 c 0
EndSplineSet
Validated: 1
EndChar

StartChar: uni0315
Encoding: 789 789 273
Width: 131
Flags: W
HStem: 454 227
VStem: 144 97<559.974 645.787> 165 76<539 664.339>
LayerCount: 2
Fore
SplineSet
105 476 m 0xa0
 105 482 165 519 165 559 c 0xa0
 165 580 144 587 144 616 c 0xc0
 144 675 200 681 238 681 c 1
 240 675 241 665 241 654 c 0
 241 641 240 625 237 610 c 0
 225 546 166 478 125 454 c 1
 123 454 l 2
 117 454 105 469 105 476 c 0xa0
EndSplineSet
Validated: 1
EndChar

StartChar: uni0326
Encoding: 806 806 274
Width: 131
Flags: W
HStem: -218 162<26.8587 42.6484>
VStem: 26 97<-163.5 -82.7684>
LayerCount: 2
Fore
SplineSet
-3 -101 m 4
 -3 -65 66 -56 111 -56 c 5
 121 -67 123 -81 123 -103 c 4
 123 -151 37 -209 -7 -218 c 5
 -8 -218 -9 -218 -10 -218 c 4
 -17 -218 -31 -211 -31 -204 c 4
 -31 -201 26 -176 26 -151 c 4
 26 -129 -3 -128 -3 -101 c 4
EndSplineSet
Validated: 1
EndChar

StartChar: uni0327
Encoding: 807 807 275
Width: 406
Flags: W
HStem: -156 32<118.743 202.37> -67 65<174.988 201.828>
VStem: 113 147
LayerCount: 2
Fore
SplineSet
202 -28 m 5
 202 -28 213 -27 220 -27 c 31
 247 -27 265 -52 260 -78 c 4
 251 -125 211 -156 154 -156 c 4
 134 -156 118 -147 113 -140 c 5
 113 -137 113 -127 114 -123 c 4
 115 -116 121 -109 124 -109 c 4
 129 -109 147 -124 167 -124 c 4
 193 -124 206 -109 209 -95 c 4
 212 -81 208 -67 192 -67 c 4
 186 -67 173 -69 163 -73 c 4
 161 -73 150 -61 153 -57 c 4
 164 -42 180 -16 190 -2 c 5
 220 -2 l 5
 202 -28 l 5
EndSplineSet
Validated: 33
EndChar

StartChar: dotbelowcomb
Encoding: 803 803 276
Width: 285
Flags: W
HStem: -192 148<78.75 155.75>
VStem: 48 138<-162.332 -75.1053>
LayerCount: 2
Fore
SplineSet
48 -118 m 0
 56 -77 94 -44 132 -44 c 0
 170 -44 194 -77 186 -118 c 0
 178 -159 141 -192 103 -192 c 0
 65 -192 40 -159 48 -118 c 0
EndSplineSet
Validated: 33
EndChar

StartChar: gravecomb.cap
Encoding: 63632 63632 277
Width: 225
Flags: W
HStem: 731 118
VStem: 200 213
LayerCount: 2
Fore
SplineSet
399 731 m 4
 383 731 200 783 200 811 c 0
 200 842 247 849 270 849 c 0
 284 849 293 846 302 841 c 0
 347 816 413 756 413 750 c 0
 413 744 407 731 399 731 c 4
EndSplineSet
Validated: 1
EndChar

StartChar: acutecomb.cap
Encoding: 63633 63633 278
Width: 225
Flags: W
HStem: 731 118
VStem: 151 213
LayerCount: 2
Fore
SplineSet
165 731 m 0
 157 731 151 744 151 750 c 0
 151 756 217 816 262 841 c 0
 271 846 280 849 294 849 c 0
 317 849 364 842 364 811 c 0
 364 783 181 731 165 731 c 0
EndSplineSet
Validated: 1
EndChar

StartChar: uni0302.cap
Encoding: 63634 63634 279
Width: 353
Flags: W
HStem: 702 141
VStem: 179 273
LayerCount: 2
Fore
SplineSet
437 702 m 0
 425 702 353 744 325 764 c 1
 288 744 198 702 186 702 c 0
 178 702 177 713 179 721 c 1
 189 727 212 741 271 786 c 0
 301 810 315 823 326 834 c 0
 333 840 337 843 342 843 c 0
 347 843 350 839 355 834 c 0
 365 821 372 810 388 790 c 0
 426 744 445 727 452 721 c 1
 450 713 445 702 437 702 c 0
EndSplineSet
Validated: 1
EndChar

StartChar: uni030A.cap
Encoding: 63635 63635 280
Width: 286
Flags: W
HStem: 660 45<257.555 336.668> 813 44<270.898 348.945>
VStem: 211 184
LayerCount: 2
Fore
SplineSet
254 759 m 0
 248 729 265 705 293 705 c 0
 321 705 347 729 353 759 c 0
 359 789 342 813 314 813 c 0
 286 813 260 789 254 759 c 0
211 759 m 0
 221 813 272 857 322 857 c 0
 372 857 405 813 395 759 c 0
 385 705 334 660 284 660 c 0
 234 660 201 705 211 759 c 0
EndSplineSet
Validated: 33
EndChar

StartChar: tildecomb.cap
Encoding: 63636 63636 281
Width: 611
Flags: W
HStem: 728 66<507.954 600.039> 796 66<346.884 437.998>
LayerCount: 2
Fore
SplineSet
293 739 m 0
 286 739 289 755 290 761 c 0
 294 780 305 798 316 811 c 0
 346 845 375 862 408 862 c 0
 479 862 502 794 573 794 c 0
 605 794 637 851 651 851 c 0
 655 851 657 839 655 829 c 0
 652 814 639 791 628 778 c 0
 598 742 571 728 538 728 c 0
 466 728 445 796 373 796 c 0
 344 796 305 739 293 739 c 0
EndSplineSet
Validated: 1
EndChar

StartChar: uni0304.cap
Encoding: 63637 63637 282
Width: 393
Flags: W
HStem: 735 69<207.546 481.803>
VStem: 197 296
LayerCount: 2
Fore
SplineSet
197 746 m 0
 208 794 219 804 222 804 c 2
 489 804 l 2
 491 804 495 802 493 794 c 0
 482 745 468 735 468 735 c 1
 200 735 l 1
 200 735 194 734 197 746 c 0
EndSplineSet
Validated: 1
EndChar

StartChar: uni0306.cap
Encoding: 63638 63638 283
Width: 233
Flags: W
HStem: 705 60<215.519 316.611>
VStem: 166 31<791.026 804.264>
LayerCount: 2
Fore
SplineSet
265 765 m 0
 293 765 332 790 350 811 c 0
 351 813 353 814 355 813 c 0
 360 811 374 791 371 784 c 0
 370 782 368 779 367 777 c 0
 332 730 290 705 253 705 c 0
 216 705 184 730 167 777 c 0
 166 779 166 782 166 784 c 0
 166 791 187 811 193 813 c 0
 195 814 196 813 197 811 c 0
 207 790 237 765 265 765 c 0
EndSplineSet
Validated: 33
EndChar

StartChar: uni0327.cap
Encoding: 63639 63639 284
Width: 406
Flags: W
HStem: -184 38<117.292 216.891> -79 77<187.72 215.562>
VStem: 111 173
LayerCount: 2
Fore
SplineSet
216 -33 m 1
 216 -33 229 -32 236 -32 c 27
 268 -32 290 -61 284 -92 c 0
 273 -147 227 -184 160 -184 c 0
 136 -184 117 -173 111 -165 c 1
 111 -161 112 -150 113 -145 c 0
 115 -137 119 -129 123 -129 c 0
 129 -129 151 -146 175 -146 c 0
 206 -146 221 -129 224 -112 c 0
 227 -95 223 -79 204 -79 c 0
 197 -79 182 -81 170 -86 c 0
 168 -86 156 -72 159 -67 c 0
 173 -49 190 -19 202 -2 c 1
 236 -2 l 1
 216 -33 l 1
EndSplineSet
Validated: 33
EndChar

StartChar: uni0307.cap
Encoding: 63640 63640 285
Width: 285
Flags: W
HStem: 726 148<257.25 334.25>
VStem: 227 138<757.105 844.332>
LayerCount: 2
Fore
SplineSet
227 800 m 4
 235 841 272 874 310 874 c 4
 348 874 373 841 365 800 c 4
 357 759 319 726 281 726 c 4
 243 726 219 759 227 800 c 4
EndSplineSet
Validated: 33
EndChar

StartChar: uni0323.cap
Encoding: 63641 63641 286
Width: 285
Flags: W
HStem: -180 148<81.25 157.75>
VStem: 51 137<-150.332 -61.6684>
LayerCount: 2
Fore
SplineSet
51 -106 m 0
 59 -65 96 -32 134 -32 c 0
 172 -32 196 -65 188 -106 c 0
 180 -147 143 -180 105 -180 c 0
 67 -180 43 -147 51 -106 c 0
EndSplineSet
Validated: 33
EndChar

StartChar: uni0305.cap
Encoding: 63642 63642 287
Width: 526
Flags: W
HStem: 734 72<142.678 682.857>
LayerCount: 2
Fore
SplineSet
131 744 m 0
 131 746 146 806 156 806 c 2
 697 806 l 2
 699 806 703 805 701 797 c 0
 698 779 685 745 683 741 c 0
 680 735 674 734 674 734 c 1
 135 734 l 1
 135 734 129 734 131 744 c 0
EndSplineSet
Validated: 1
EndChar

StartChar: hookabovecomb.cap
Encoding: 63643 63643 288
Width: 167
Flags: W
HStem: 636 38<195.138 243.802>
VStem: 130 58<580.82 632.3> 150 44<499.931 514.906>
LayerCount: 2
Fore
SplineSet
242 674 m 0xc0
 280 674 301 649 295 616 c 0
 288 579 260 553 233 542 c 0
 211 533 198 528 195 515 c 0
 195 513 194 510 194 507 c 1
 193 504 169 498 156 498 c 1
 152 501 149 512 150 515 c 0xa0
 155 543 183 556 201 564 c 0
 224 574 239 587 243 606 c 0
 245 618 245 636 226 636 c 0
 205 636 192 619 188 600 c 0
 185 583 160 578 147 578 c 0
 139 578 128 583 130 595 c 0
 140 646 196 674 242 674 c 0xc0
EndSplineSet
Validated: 33
EndChar

StartChar: uni030B.cap
Encoding: 63644 63644 289
Width: 432
Flags: W
HStem: 731 118
LayerCount: 2
Fore
SplineSet
559 811 m 0
 559 783 376 731 360 731 c 0
 352 731 346 744 346 750 c 0
 346 756 412 816 457 841 c 0
 466 846 475 849 489 849 c 0
 512 849 559 842 559 811 c 0
364 811 m 0
 364 783 181 731 165 731 c 0
 157 731 151 744 151 750 c 0
 151 756 217 816 262 841 c 0
 271 846 280 849 294 849 c 0
 317 849 364 842 364 811 c 0
EndSplineSet
Validated: 1
EndChar

